<svg width="48" height="44" viewBox="0 0 48 44" fill="none" xmlns="http://www.w3.org/2000/svg">
<path d="M45.8409 6.88443C45.6678 6.86711 45.9103 6.87208 42.0147 6.87208V3.29188C42.0147 1.96345 40.9377 0.886475 39.6093 0.886475C38.2808 0.886475 37.2039 1.96345 37.2039 3.29188V6.87208C33.3119 6.87208 33.5509 6.86711 33.3777 6.88443C32.1663 7.00711 31.2183 8.03069 31.2183 9.27749C31.2183 10.5228 32.1647 11.5472 33.3777 11.6705C33.5507 11.6879 33.3082 11.6829 37.2039 11.6829V15.2631C37.2039 16.5915 38.2808 17.6685 39.6093 17.6685C40.9377 17.6685 42.0147 16.5915 42.0147 15.2631V11.6829C45.9066 11.6829 45.6677 11.6879 45.8409 11.6705C47.0537 11.5472 48.0003 10.5228 48.0003 9.27749C48.0003 8.03085 47.0522 7.00711 45.8409 6.88443Z" fill="white"/>
<path d="M37.2036 20.3333V38.3029H4.81081V11.6831H28.5534C28.2059 10.9536 28.0108 10.1381 28.0108 9.27772C28.0108 8.41739 28.2059 7.60179 28.5534 6.87231H2.4054C1.07698 6.87231 0 7.94929 0 9.27772V40.7083C0 42.0368 1.07698 43.1137 2.4054 43.1137H39.609C40.9374 43.1137 42.0144 42.0368 42.0144 40.7083V20.3333C41.2849 20.6808 40.4693 20.8759 39.609 20.8759C38.7487 20.8758 37.9331 20.6808 37.2036 20.3333Z" fill="white"/>
<path d="M22.4185 16.0583H19.5628C18.8324 16.0583 18.1878 16.5356 17.9742 17.2341L13.6488 31.3861C13.4647 31.9882 13.5772 32.6418 13.9518 33.1479C14.3263 33.654 14.9186 33.9528 15.5482 33.9528C16.4405 33.9528 17.2233 33.3577 17.4621 32.498L18.3337 29.3593H23.4567L24.3942 32.477C24.6576 33.353 25.4643 33.9528 26.3791 33.9528C27.0377 33.9528 27.657 33.6398 28.0477 33.1096C28.4383 32.5795 28.5538 31.8952 28.3586 31.2663L24.0051 17.2275C23.7896 16.5322 23.1466 16.0583 22.4185 16.0583ZM18.9171 26.3331C18.9171 26.3331 20.5364 20.1487 20.8023 19.085H20.8539C21.1198 20.1487 22.8732 26.3331 22.8732 26.3331H18.9171Z" fill="white"/>
</svg>
