<svg width="16" height="17" viewBox="0 0 16 17" fill="none" xmlns="http://www.w3.org/2000/svg">
<path d="M7.64645 16.3536C7.84171 16.5488 8.15829 16.5488 8.35356 16.3536L11.5355 13.1716C11.7308 12.9763 11.7308 12.6597 11.5355 12.4645C11.3403 12.2692 11.0237 12.2692 10.8284 12.4645L8 15.2929L5.17157 12.4645C4.97631 12.2692 4.65973 12.2692 4.46447 12.4645C4.26921 12.6597 4.26921 12.9763 4.46447 13.1716L7.64645 16.3536ZM7.5 6.55671e-08L7.5 1L8.5 1L8.5 -6.55671e-08L7.5 6.55671e-08ZM7.5 3L7.5 5L8.5 5L8.5 3L7.5 3ZM7.5 7L7.5 9L8.5 9L8.5 7L7.5 7ZM7.5 11L7.5 13L8.5 13L8.5 11L7.5 11ZM7.5 15L7.5 16L8.5 16L8.5 15L7.5 15ZM7.2929 16.7071C7.68342 17.0976 8.31658 17.0976 8.70711 16.7071L15.0711 10.3431C15.4616 9.95262 15.4616 9.31946 15.0711 8.92893C14.6805 8.53841 14.0474 8.53841 13.6569 8.92893L8 14.5858L2.34315 8.92893C1.95262 8.53841 1.31946 8.53841 0.928933 8.92893C0.538409 9.31946 0.538409 9.95262 0.928934 10.3431L7.2929 16.7071ZM7 1.31134e-07L7 1L9 1L9 -1.31134e-07L7 1.31134e-07ZM7 3L7 5L9 5L9 3L7 3ZM7 7L7 9L9 9L9 7L7 7ZM7 11L7 13L9 13L9 11L7 11ZM7 15L7 16L9 16L9 15L7 15Z" fill="#DCDCDB"/>
</svg>
