<svg width="48" height="48" viewBox="0 0 48 48" fill="none" xmlns="http://www.w3.org/2000/svg">
<g clip-path="url(#clip0)">
<path d="M48.0806 6.25891C48.0806 2.80774 45.2725 0 41.8217 0C38.6887 0 36.0868 2.31372 35.6331 5.32178H1.03125C0.513428 5.32178 0.09375 5.74146 0.09375 6.25928V26.7576V26.7587V32.2207C0.09375 32.7385 0.513428 33.1582 1.03125 33.1582H13.5092V47.0625C13.5092 47.5803 13.9288 48 14.4467 48C14.9641 48 15.3842 47.5803 15.3842 47.0625V22.7981C15.3842 21.613 16.3118 20.6851 17.4961 20.6851C18.0604 20.6851 18.5914 20.9048 18.9902 21.3036C19.3894 21.7028 19.6091 22.2334 19.6091 22.7981V30.7848C19.6091 30.8793 19.6135 30.9727 19.6208 31.0657C19.6718 31.6853 19.89 32.2712 20.2595 32.7744L20.2603 32.7755L20.2617 32.777C20.8934 33.6383 21.9078 34.1528 22.9768 34.1528C23.8759 34.1528 24.7211 33.8024 25.3575 33.1659L25.3652 33.1582H32.9077L27.8203 40.9563C27.8024 40.9838 27.7863 41.012 27.7712 41.0409C27.3842 41.7957 27.1794 42.6431 27.1794 43.4919V47.0625C27.1794 47.5803 27.5995 48 28.1169 48C28.6348 48 29.0544 47.5803 29.0544 47.0625V43.4919C29.0544 42.9547 29.1804 42.4182 29.4192 41.9374L34.5187 34.1202C34.5363 34.0931 34.5527 34.0653 34.5674 34.0364C34.7128 33.7537 34.8311 33.46 34.9237 33.1582H41.8217C42.3391 33.1582 42.7592 32.7385 42.7592 32.2207V26.7587V26.7576V12.4475C45.7668 11.9938 48.0806 9.39148 48.0806 6.25891ZM38.8085 11.7429C39.3666 12.0509 39.9723 12.2725 40.5974 12.397C40.6652 12.4102 40.7333 12.4222 40.8014 12.4332C40.8278 12.4376 40.8541 12.4427 40.8805 12.4468L40.8838 12.4475V21.8412C38.8744 22.2235 37.2872 23.8107 36.9049 25.8201H28.496C30.5116 23.4635 31.7018 20.1108 31.7018 16.5538C31.7018 12.9379 30.4838 9.55444 28.4202 7.19678H35.632C35.6473 7.29895 35.6664 7.40039 35.6865 7.5011C35.9685 8.89636 36.7379 10.1726 37.8347 11.0793C38.1383 11.3302 38.4635 11.5525 38.8085 11.7429ZM40.8842 28.5516H21.4841V27.6962H40.8842V28.5516ZM38.8341 25.8201C39.1403 24.8467 39.9104 24.0765 40.8842 23.7704V25.8201H38.8341ZM1.96875 25.8201V23.7704C2.9425 24.0765 3.71265 24.8467 4.0188 25.8201H1.96875ZM1.96875 27.6962H13.5092V28.5516H1.96875V27.6962ZM13.5092 23.677V25.8201H5.94763C5.56531 23.8107 3.97852 22.2239 1.96875 21.8412V11.1757C3.97852 10.7933 5.56531 9.20618 5.94763 7.19678H15.0509C12.9873 9.55444 11.7693 12.9379 11.7693 16.5538C11.7689 19.1221 12.3713 21.5782 13.5092 23.677ZM1.96875 7.19678H4.0188C3.71265 8.17053 2.9425 8.94067 1.96875 9.24683V7.19678ZM1.96875 31.2832V30.4266H13.5092V31.2832H1.96875ZM17.4961 18.8101C16.2671 18.8101 15.0857 19.3964 14.3364 20.3698C14.3064 20.4089 14.2771 20.4485 14.2485 20.4884C14.239 20.5023 14.2284 20.5151 14.2189 20.5291C13.8398 19.2773 13.6439 17.9359 13.6439 16.5538C13.6439 12.6577 15.2256 9.104 17.7894 7.19678H25.6816C28.2455 9.104 29.8268 12.6577 29.8268 16.5538C29.8268 20.3741 28.2913 23.8923 25.801 25.8201H21.4841V23.1614C21.5911 23.2039 21.7072 23.2277 21.8291 23.2277C22.3466 23.2277 22.7666 22.808 22.7666 22.2902V21.6768C23.9506 21.6335 24.9005 20.6576 24.9005 19.4634V17.7382C24.9005 16.5165 23.9066 15.5226 22.6849 15.5226H20.9733C20.7854 15.5226 20.6327 15.3699 20.6327 15.182V13.5535C20.6327 13.3656 20.7854 13.2129 20.9733 13.2129H22.6849C22.8728 13.2129 23.0255 13.3656 23.0255 13.5535C23.0255 14.0713 23.4456 14.491 23.963 14.491C24.4808 14.491 24.9005 14.0713 24.9005 13.5535C24.9005 12.3593 23.9506 11.3833 22.7666 11.3401V10.7267C22.7666 10.2089 22.3469 9.78918 21.8295 9.78918C21.312 9.78918 20.8916 10.2089 20.8916 10.7267V11.3401C19.708 11.3833 18.7581 12.3593 18.7577 13.5535V15.1824C18.7577 16.4041 19.7516 17.3976 20.9733 17.3976H22.6849C22.8728 17.3976 23.0255 17.5507 23.0255 17.7385V19.4634C23.0255 19.6512 22.8728 19.804 22.6849 19.804H21.8295H20.9733C20.7854 19.804 20.6327 19.6512 20.6327 19.4641V19.3063C20.6331 18.7885 20.2134 18.3684 19.6959 18.368C19.2751 18.368 18.9181 18.6456 18.7998 19.0276C18.4471 18.906 18.0762 18.8335 17.6949 18.8148C17.629 18.8115 17.5627 18.8101 17.4961 18.8101ZM34.177 31.2832H21.5698C21.568 31.2777 21.5658 31.2722 21.564 31.2667C21.5563 31.2448 21.5497 31.222 21.5435 31.1997C21.5046 31.0653 21.4841 30.9247 21.4841 30.7848V30.4266H40.8842V31.2832H34.177ZM41.8246 10.6428L41.8217 10.6425C40.9149 10.6425 40.0719 10.366 39.3721 9.89282C38.2057 9.10437 37.4377 7.76953 37.4377 6.25891C37.4377 3.84155 39.4043 1.875 41.8217 1.875C44.2386 1.875 46.2056 3.84155 46.2056 6.25891C46.2056 8.67517 44.2405 10.641 41.8246 10.6428Z" fill="#FFA927"/>
<path d="M43.8566 5.13428H42.759V4.03674C42.759 3.51892 42.339 3.09924 41.8215 3.09924C41.3037 3.09924 40.884 3.51892 40.884 4.03674V5.13428H39.7861C39.2683 5.13428 38.8486 5.55396 38.8486 6.07178C38.8486 6.5896 39.2683 7.00928 39.7861 7.00928H40.884V8.10718C40.884 8.625 41.3037 9.04468 41.8215 9.04468C42.339 9.04468 42.759 8.625 42.759 8.10718V7.00928H43.8566C44.3744 7.00928 44.7941 6.5896 44.7941 6.07178C44.7941 5.55396 44.3744 5.13428 43.8566 5.13428Z" fill="#FFA927"/>
</g>
<defs>
<clipPath id="clip0">
<rect width="48" height="48" fill="white"/>
</clipPath>
</defs>
</svg>
