<svg width="48" height="48" viewBox="0 0 48 48" fill="none" xmlns="http://www.w3.org/2000/svg">
<path d="M47.4941 6.38771L27.4947 -0.0121652C27.3363 -0.0643043 27.1653 -0.0643043 27.0064 -0.0121652L7.00706 6.38771C6.67577 6.4938 6.45117 6.80182 6.45117 7.14955V10.3493C6.45117 10.7911 6.80933 11.1494 7.25131 11.1494H9.65111V16.7492H11.251V11.1494H14.4511V18.3494H16.0512V11.1494H19.2511V18.3494H20.851V11.1494H24.0511V18.3494H25.6506V11.1494H28.8508V19.1492H30.451V11.1494H33.6506V22.3491H35.2506V11.1494H38.4508V26.3492H37.6506V27.9491H46.4507V31.149H38.4508V32.7489H47.2505C47.6922 32.7489 48.0506 32.3911 48.0506 31.9491V27.1491C48.0506 26.7071 47.6922 26.3492 47.2505 26.3492H44.8505V11.1494H47.2505C47.6922 11.1494 48.0506 10.7911 48.0506 10.3493V7.14955C48.0506 6.80182 47.8254 6.4938 47.4941 6.38771ZM43.2506 26.3492H40.0506V11.1494H43.2506V26.3492ZM46.4507 9.54955H8.05144V7.7325L27.2509 1.58931L46.4507 7.7325V9.54955Z" fill="#FFA927"/>
<path d="M24.8511 5.54942C24.8511 6.87496 25.9253 7.94942 27.2509 7.94942C28.576 7.94942 29.6509 6.87496 29.6509 5.54942C29.6509 4.22368 28.576 3.14941 27.2509 3.14941C25.9253 3.14941 24.8511 4.22368 24.8511 5.54942ZM28.0506 5.54942C28.0506 5.9912 27.6929 6.34955 27.2509 6.34955C26.8091 6.34955 26.4507 5.9912 26.4507 5.54942C26.4507 5.10764 26.8091 4.74928 27.2509 4.74928C27.6929 4.74928 28.0506 5.10764 28.0506 5.54942Z" fill="#FFA927"/>
<path d="M0.851204 36.749H3.90235C4.445 38.3872 5.31191 39.8992 6.45135 41.1949V47.1486C6.45135 47.5906 6.80951 47.9487 7.25149 47.9487H13.6514C14.0929 47.9487 14.4513 47.5906 14.4513 47.1486V45.4487C14.9821 45.515 15.5165 45.5483 16.0514 45.5489H24.0513C24.5859 45.5483 25.1202 45.515 25.6508 45.4487V47.1486C25.6508 47.5906 26.0091 47.9487 26.4509 47.9487H32.8512C33.2928 47.9487 33.6507 47.5906 33.6507 47.1486V41.1961C35.2063 39.434 36.2453 37.277 36.654 34.9625C36.7827 34.64 36.8493 34.2961 36.8509 33.9488V32.7488C36.8423 25.6831 31.1168 19.9572 24.0513 19.9492H16.0514C14.7463 19.9488 13.4488 20.1505 12.2055 20.5478C11.2375 18.7069 9.33104 17.553 7.25149 17.5492C6.80951 17.5492 6.45135 17.9076 6.45135 18.3493V24.3002C5.31271 25.5977 4.4458 27.1103 3.90235 28.7491H0.851204C0.409626 28.7491 0.0512695 29.1072 0.0512695 29.5492V35.9489C0.0512695 36.3907 0.409626 36.749 0.851204 36.749ZM1.65134 30.3488H4.49633C4.85549 30.3488 5.17133 30.1091 5.26719 29.7626C5.74667 28.0422 6.62762 26.461 7.83925 25.1491C7.97542 25.0013 8.05082 24.808 8.05162 24.6072V19.2287C9.42368 19.5122 10.5479 20.4918 11.0177 21.812C11.0895 22.0153 11.2409 22.181 11.4365 22.2714C11.6322 22.3614 11.8562 22.3693 12.0575 22.2921C13.3315 21.8011 14.6853 21.5489 16.0514 21.5489H24.0513C30.2338 21.5559 35.2444 26.5663 35.2508 32.7488C35.2478 33.3427 35.1971 33.9353 35.0988 34.5207C34.8379 35.0028 34.2828 35.246 33.7522 35.1111C33.221 34.9757 32.8494 34.497 32.8512 33.9488V32.7488H31.2509V33.9488C31.2509 35.4951 32.5043 36.749 34.0512 36.749C34.2084 36.746 34.3654 36.7302 34.5205 36.7017C34.0101 38.0511 33.2435 39.2892 32.2636 40.3486C32.1267 40.4964 32.0511 40.6906 32.0511 40.8917V46.3485H27.2511V44.5083C27.2511 44.2685 27.1432 44.0409 26.9571 43.8889C26.7708 43.7371 26.5263 43.6765 26.2909 43.7247C25.5537 43.8733 24.8031 43.9485 24.0513 43.9487H16.0514C15.299 43.9481 14.5484 43.8729 13.811 43.7237C13.576 43.6757 13.3313 43.7361 13.145 43.8883C12.9589 44.0401 12.8512 44.2675 12.8512 44.5079V46.3485H8.05162V40.8879C8.05162 40.6863 7.97522 40.4926 7.83845 40.3444C6.62722 39.0343 5.74587 37.4543 5.26719 35.7349C5.17133 35.3886 4.85549 35.1484 4.49633 35.149H1.65134V30.3488Z" fill="#FFA927"/>
<path d="M10.4514 32.7489C11.7769 32.7489 12.8514 31.6744 12.8514 30.3489C12.8514 29.0232 11.7769 27.9491 10.4514 27.9491C9.12603 27.9491 8.05176 29.0232 8.05176 30.3489C8.05176 31.6744 9.12603 32.7489 10.4514 32.7489ZM10.4514 29.5494C10.8931 29.5494 11.2513 29.9071 11.2513 30.3489C11.2513 30.7909 10.8931 31.149 10.4514 31.149C10.0098 31.149 9.65143 30.7909 9.65143 30.3489C9.65143 29.9071 10.0098 29.5494 10.4514 29.5494Z" fill="#FFA927"/>
<path d="M16.0513 23.1493H24.0512V24.7491H16.0513V23.1493Z" fill="#FFA927"/>
</svg>
