<svg width="47" height="45" viewBox="0 0 47 45" fill="none" xmlns="http://www.w3.org/2000/svg">
<path d="M19.1867 37.9326H7.10864C5.40263 37.9326 3.99029 36.5914 3.99029 34.8854V7.20464C3.99029 5.49862 5.40263 4.16802 7.10864 4.16802H28.7207C30.4267 4.16802 31.8194 5.49862 31.8194 7.20464V35.4001L35.8112 30.6544V4.24068C35.8112 1.99728 34.037 0.177734 31.7966 0.177734H3.87373C1.71964 0.177734 0 1.92462 0 4.0772V37.9583C0 40.2017 1.79381 42.0273 4.04024 42.0273H23.7198L19.1867 37.9326Z" fill="#10345A"/>
<path d="M27.0586 9.28467H9.13411C8.03209 9.28467 7.14502 10.1793 7.14502 11.2798C7.14502 12.3788 8.0336 13.2734 9.13411 13.2734H27.0571C28.1591 13.2734 29.0432 12.3788 29.0432 11.2798C29.0462 10.1808 28.1591 9.28467 27.0586 9.28467Z" fill="#10345A"/>
<path d="M27.0586 15.9346H9.13411C8.03209 15.9346 7.14502 16.8277 7.14502 17.9297C7.14502 19.0257 8.0336 19.9249 9.13411 19.9249H27.0571C28.1591 19.9249 29.0432 19.0257 29.0432 17.9297C29.0462 16.8277 28.1591 15.9346 27.0586 15.9346Z" fill="#10345A"/>
<path d="M27.0586 22.5859H9.13411C8.03209 22.5859 7.14502 23.4306 7.14502 24.5326C7.14502 25.6301 8.0336 26.4733 9.13411 26.4733H27.0571C28.1591 26.4733 29.0432 25.6256 29.0432 24.5326C29.0462 23.4306 28.1591 22.5859 27.0586 22.5859Z" fill="#10345A"/>
<path d="M9.13264 32.816C8.03214 32.816 7.14355 31.9743 7.14355 30.8738C7.14355 29.7763 8.03214 28.9286 9.13416 28.9241H19.2552L25.563 28.9286H27.0586C28.1592 28.9286 29.0462 29.799 29.0508 30.892C29.0508 31.1296 29.0159 31.3298 28.9357 31.5535C28.5 32.5 28.097 32.816 27.5 33C25.5 31.5 25.2412 31.2678 25.2412 31.2678C23 29.5 19.5 30 18.308 32.816H15.8205H9.13264Z" fill="#10345A"/>
<path d="M45.2135 26.3776C44.1583 25.4536 42.5674 25.5852 41.6642 26.6677L31.2933 38.8008L24.0515 32.7232C22.9931 31.8014 21.4043 31.923 20.5 32.9999C19.5935 34.0791 19.716 35.6983 20.7712 36.6223L29.9287 44.3783C30.3901 44.7778 30.9686 44.9999 31.5689 44.9999C31.6367 44.9999 31.699 44.9976 31.7679 44.991C32.4316 44.9385 33.0538 44.616 33.4868 44.0971L45.5 29.9999C46.3988 28.9208 46.2753 27.3016 45.2135 26.3776Z" fill="#10345A"/>
</svg>
