<svg width="10" height="17" viewBox="0 0 10 17" fill="none" xmlns="http://www.w3.org/2000/svg">
<path d="M8.99947 0.995272L6.92463 0.991943C4.59362 0.991943 3.08721 2.53746 3.08721 4.92956V6.74507H1.00105C0.820784 6.74507 0.674805 6.89122 0.674805 7.07149V9.70195C0.674805 9.88222 0.820951 10.0282 1.00105 10.0282H3.08721V16.6657C3.08721 16.846 3.23319 16.9919 3.41346 16.9919H6.13531C6.31558 16.9919 6.46156 16.8458 6.46156 16.6657V10.0282H8.90076C9.08103 10.0282 9.22701 9.88222 9.22701 9.70195L9.22801 7.07149C9.22801 6.98493 9.19356 6.90204 9.13247 6.84078C9.07138 6.77953 8.98815 6.74507 8.9016 6.74507H6.46156V5.20604C6.46156 4.46633 6.63783 4.09081 7.60143 4.09081L8.99914 4.09031C9.17924 4.09031 9.32522 3.94416 9.32522 3.76406V1.32152C9.32522 1.14158 9.17941 0.995605 8.99947 0.995272Z" fill="white"/>
</svg>
