<svg width="16" height="78" viewBox="0 0 16 78" fill="none" xmlns="http://www.w3.org/2000/svg">
<path d="M7.64646 77.3536C7.84172 77.5488 8.1583 77.5488 8.35356 77.3536L11.5355 74.1716C11.7308 73.9763 11.7308 73.6597 11.5355 73.4645C11.3403 73.2692 11.0237 73.2692 10.8284 73.4645L8.00001 76.2929L5.17158 73.4645C4.97632 73.2692 4.65974 73.2692 4.46448 73.4645C4.26921 73.6597 4.26921 73.9763 4.46448 74.1716L7.64646 77.3536ZM7.5 6.55671e-08L7.5 1.01316L8.5 1.01316L8.5 -6.55671e-08L7.5 6.55671e-08ZM7.5 3.03947L7.5 5.06579L8.5 5.06579L8.5 3.03947L7.5 3.03947ZM7.5 7.09211L7.5 9.11842L8.5 9.11842L8.5 7.09211L7.5 7.09211ZM7.5 11.1447L7.5 13.1711L8.5 13.1711L8.5 11.1447L7.5 11.1447ZM7.5 15.1974L7.5 17.2237L8.5 17.2237L8.5 15.1974L7.5 15.1974ZM7.5 19.25L7.5 21.2763L8.5 21.2763L8.5 19.25L7.5 19.25ZM7.5 23.3026L7.5 25.3289L8.5 25.3289L8.5 23.3026L7.5 23.3026ZM7.5 27.3553L7.5 29.3816L8.5 29.3816L8.5 27.3553L7.5 27.3553ZM7.5 31.4079L7.5 33.4342L8.5 33.4342L8.5 31.4079L7.5 31.4079ZM7.5 35.4605L7.5 37.4868L8.5 37.4868L8.5 35.4605L7.5 35.4605ZM7.50001 39.5132L7.50001 41.5395L8.50001 41.5395L8.50001 39.5132L7.50001 39.5132ZM7.50001 43.5658L7.50001 45.5921L8.50001 45.5921L8.50001 43.5658L7.50001 43.5658ZM7.50001 47.6184L7.50001 49.6447L8.50001 49.6447L8.50001 47.6184L7.50001 47.6184ZM7.50001 51.671L7.50001 53.6974L8.50001 53.6974L8.50001 51.671L7.50001 51.671ZM7.50001 55.7237L7.50001 57.75L8.50001 57.75L8.50001 55.7237L7.50001 55.7237ZM7.50001 59.7763L7.50001 61.8026L8.50001 61.8026L8.50001 59.7763L7.50001 59.7763ZM7.50001 63.8289L7.50001 65.8552L8.50001 65.8552L8.50001 63.8289L7.50001 63.8289ZM7.50001 67.8815L7.50001 69.9079L8.50001 69.9079L8.50001 67.8815L7.50001 67.8815ZM7.50001 71.9342L7.50001 73.9605L8.50001 73.9605L8.50001 71.9342L7.50001 71.9342ZM7.50001 75.9868L7.50001 77L8.50001 77L8.50001 75.9868L7.50001 75.9868ZM7.2929 77.7071C7.68343 78.0976 8.31659 78.0976 8.70712 77.7071L15.0711 71.3431C15.4616 70.9526 15.4616 70.3195 15.0711 69.9289C14.6806 69.5384 14.0474 69.5384 13.6569 69.9289L8.00001 75.5858L2.34316 69.9289C1.95263 69.5384 1.31947 69.5384 0.928941 69.9289C0.538417 70.3195 0.538417 70.9526 0.928942 71.3431L7.2929 77.7071ZM7 1.31134e-07L7 1.01316L9 1.01316L9 -1.31134e-07L7 1.31134e-07ZM7 3.03947L7 5.06579L9 5.06579L9 3.03947L7 3.03947ZM7 7.09211L7 9.11842L9 9.11842L9 7.09211L7 7.09211ZM7 11.1447L7 13.1711L9 13.1711L9 11.1447L7 11.1447ZM7 15.1974L7 17.2237L9 17.2237L9 15.1974L7 15.1974ZM7 19.25L7 21.2763L9 21.2763L9 19.25L7 19.25ZM7 23.3026L7 25.3289L9 25.3289L9 23.3026L7 23.3026ZM7 27.3553L7 29.3816L9 29.3816L9 27.3553L7 27.3553ZM7 31.4079L7 33.4342L9 33.4342L9 31.4079L7 31.4079ZM7 35.4605L7 37.4868L9 37.4868L9 35.4605L7 35.4605ZM7.00001 39.5132L7.00001 41.5395L9.00001 41.5395L9.00001 39.5132L7.00001 39.5132ZM7.00001 43.5658L7.00001 45.5921L9.00001 45.5921L9.00001 43.5658L7.00001 43.5658ZM7.00001 47.6184L7.00001 49.6447L9.00001 49.6447L9.00001 47.6184L7.00001 47.6184ZM7.00001 51.671L7.00001 53.6974L9.00001 53.6974L9.00001 51.671L7.00001 51.671ZM7.00001 55.7237L7.00001 57.75L9.00001 57.75L9.00001 55.7237L7.00001 55.7237ZM7.00001 59.7763L7.00001 61.8026L9.00001 61.8026L9.00001 59.7763L7.00001 59.7763ZM7.00001 63.8289L7.00001 65.8552L9.00001 65.8552L9.00001 63.8289L7.00001 63.8289ZM7.00001 67.8815L7.00001 69.9079L9.00001 69.9079L9.00001 67.8815L7.00001 67.8815ZM7.00001 71.9342L7.00001 73.9605L9.00001 73.9605L9.00001 71.9342L7.00001 71.9342ZM7.00001 75.9868L7.00001 77L9.00001 77L9.00001 75.9868L7.00001 75.9868Z" fill="#DCDCDB"/>
</svg>
