<svg width="16" height="18" viewBox="0 0 16 18" fill="none" xmlns="http://www.w3.org/2000/svg">
<path d="M8.00001 9C5.79445 9 4 7.20558 4 4.99999C4 2.79439 5.79445 1 8.00001 1C10.2056 1 12 2.79442 12 5.00001C12 7.20561 10.2056 9 8.00001 9ZM8.00001 2.00001C6.34573 2.00001 5.00001 3.3457 5.00001 5.00001C5.00001 6.65433 6.3457 8.00002 8.00001 8.00002C9.65433 8.00002 11 6.6543 11 5.00001C11 3.34573 9.6543 2.00001 8.00001 2.00001Z" fill="#FFA927" stroke="#FFA927" stroke-width="0.6"/>
<path d="M14.5 16.9998H1.50001C1.22363 16.9998 1 16.7761 1 16.4998V13.0579C1 12.5413 1.26416 12.0559 1.68897 11.7903C5.44384 9.44799 10.5596 9.44849 14.3106 11.7898C14.7359 12.0559 15 12.5413 15 13.0579V16.4997C15 16.7761 14.7764 16.9998 14.5 16.9998ZM2.00001 15.9998H14V13.0579C14 12.8836 13.916 12.7224 13.7808 12.638C10.3477 10.4949 5.65479 10.4934 2.21879 12.6385C2.08403 12.7225 2.00004 12.8836 2.00004 13.0579L2.00001 15.9998Z" fill="#FFA927" stroke="#FFA927" stroke-width="0.6"/>
</svg>
