<svg width="16" height="16" viewBox="0 0 16 16" fill="none" xmlns="http://www.w3.org/2000/svg">
<path d="M15.2 13.5998H0.8C0.358405 13.5998 0 13.9582 0 14.3998C0 14.8414 0.358405 15.1998 0.8 15.1998H15.2C15.6416 15.1998 16 14.8414 16 14.3998C16 13.9582 15.6416 13.5998 15.2 13.5998ZM0.8 2.3998H15.2C15.6416 2.3998 16 2.04143 16 1.5998C16 1.15818 15.6416 0.799805 15.2 0.799805H0.8C0.358405 0.799831 0 1.15821 0 1.59983C0 2.04143 0.358405 2.3998 0.8 2.3998ZM15.2 7.1998H0.8C0.358405 7.1998 0 7.55821 0 7.99983C0 8.44145 0.358405 8.79983 0.8 8.79983H15.2C15.6416 8.79983 16 8.44143 16 7.99983C16 7.55824 15.6416 7.1998 15.2 7.1998Z" fill="#FFA927"/>
</svg>
