<svg width="48" height="48" viewBox="0 0 48 48" fill="none" xmlns="http://www.w3.org/2000/svg">
<path d="M47.9448 18.9233C47.9352 18.8985 47.9232 18.8761 47.9112 18.8521C47.8801 18.7884 47.8406 18.7292 47.7936 18.6761C47.7824 18.6633 47.7776 18.6465 47.7656 18.6345L44.7985 15.669V8.80042C44.7985 8.35864 44.4403 8.00045 43.9985 8.00045H37.13L32.0389 2.90942C30.6921 1.55466 28.859 0.795288 26.9487 0.800688H21.0497C19.1394 0.795288 17.3063 1.55466 15.9595 2.90942L10.8684 8.00045H7.19976C6.75798 8.00045 6.39979 8.35864 6.39979 8.80042V11.2003H3.99987C3.55808 11.2003 3.19989 11.5585 3.19989 12.0003V15.669L0.234392 18.6345C0.222393 18.6465 0.217593 18.6633 0.206393 18.6761C0.159395 18.7292 0.119896 18.7884 0.088797 18.8521C0.0767974 18.8761 0.0647978 18.8985 0.0551982 18.9233C0.0202993 19.0115 0.00159995 19.1053 0 19.2001V46.3992C0 46.4096 0.00559981 46.4176 0.00559981 46.428C0.00739975 46.5231 0.0259991 46.6171 0.060798 46.7056C0.060798 46.712 0.0687977 46.7176 0.0719976 46.724C0.117296 46.8285 0.187294 46.9205 0.275991 46.992C0.326689 47.0364 0.382887 47.0739 0.443185 47.1039C0.467784 47.1176 0.493184 47.1299 0.519183 47.1407C0.60848 47.1769 0.703577 47.1967 0.799973 47.1991H47.1984C47.2941 47.1973 47.3886 47.1783 47.4776 47.1431C47.5049 47.1322 47.5316 47.1199 47.5576 47.1063C47.6175 47.0761 47.6735 47.0385 47.724 46.9943C47.8124 46.923 47.8821 46.8314 47.9272 46.7272C47.9272 46.72 47.9368 46.7144 47.9392 46.7072C47.9743 46.6188 47.993 46.5247 47.9944 46.4296C47.9944 46.4192 48 46.4112 48 46.4008V19.2001C47.9984 19.1053 47.9797 19.0115 47.9448 18.9233ZM44.7985 17.9313L46.0673 19.2001L44.7985 20.4688V17.9313ZM17.0906 4.04058C18.1384 2.98722 19.5639 2.39663 21.0497 2.40063H26.9487C28.4345 2.39663 29.86 2.98722 30.9078 4.04058L34.8676 8.00045H13.1308L17.0906 4.04058ZM7.99973 9.6004H43.1986V22.0688L41.5986 23.6687V12.0003C41.5986 11.5585 41.2404 11.2003 40.7986 11.2003H7.99973V9.6004ZM4.79984 12.8003H39.9987V25.2687L36.4676 28.7998H30.7302L29.1302 27.1998H34.3989C34.8406 27.1998 35.1988 26.8416 35.1988 26.3998C35.1988 25.0744 36.2733 23.9999 37.5987 23.9999C38.0405 23.9999 38.3987 23.6417 38.3987 23.1999V18.4001C38.3987 17.9583 38.0405 17.6001 37.5987 17.6001C36.2733 17.6001 35.1988 16.5257 35.1988 15.2002C35.1988 14.7584 34.8406 14.4002 34.3989 14.4002H10.3997C9.95787 14.4002 9.59968 14.7584 9.59968 15.2002C9.59968 16.5257 8.52522 17.6001 7.19976 17.6001C6.75798 17.6001 6.39979 17.9583 6.39979 18.4001V23.1999C6.39979 23.6417 6.75798 23.9999 7.19976 23.9999C8.52522 23.9999 9.59968 25.0744 9.59968 26.3998C9.59968 26.8416 9.95787 27.1998 10.3997 27.1998H18.8674L17.2674 28.7998H11.5308L4.79984 22.0688V12.8003ZM34.8676 30.3997L33.5989 31.6685L32.3301 30.3997H34.8676ZM21.5993 24.6527V25.4719C21.4817 25.5135 21.3593 25.5519 21.2473 25.5999H11.1196C10.7966 24.0298 9.56978 22.803 7.99973 22.48V19.1201C9.56978 18.7971 10.7966 17.5702 11.1196 16.0002H21.5993V16.9473C20.352 17.3866 19.697 18.7539 20.1364 20.0011C20.4744 20.9607 21.3819 21.602 22.3993 21.6C22.841 21.6 23.1992 21.9582 23.1992 22.4C23.1992 22.8418 22.841 23.1999 22.3993 23.1999C21.9575 23.1999 21.5993 22.8418 21.5993 22.4H19.9993C20.0035 23.4133 20.6438 24.3149 21.5993 24.6527ZM23.1992 24.6527C24.4465 24.2134 25.1015 22.8462 24.6622 21.5989C24.3242 20.6393 23.4167 19.998 22.3993 20C21.9575 20 21.5993 19.6419 21.5993 19.2001C21.5993 18.7583 21.9575 18.4001 22.3993 18.4001C22.841 18.4001 23.1992 18.7583 23.1992 19.2001H24.7992C24.795 18.1867 24.1547 17.2851 23.1992 16.9473V16.0002H33.6789C34.0019 17.5702 35.2287 18.7971 36.7988 19.1201V22.48C35.2287 22.803 34.0019 24.0298 33.6789 25.5999H26.7511C25.6276 25.1387 24.4061 24.9679 23.1992 25.1031V24.6527ZM15.6683 30.3997L14.3995 31.6685L13.1308 30.3997H15.6683ZM3.19989 17.9313V20.4688L1.93114 19.2001L3.19989 17.9313ZM1.59995 21.1312L13.2684 32.7996L1.59995 44.468V21.1312ZM2.73111 45.5992L14.9643 33.366L20.0377 28.2926C22.2263 26.1094 25.7689 26.1094 27.9575 28.2926L33.0309 33.366L45.2673 45.5992H2.73111ZM46.3985 44.468L34.73 32.7996L46.3985 21.1312V44.468Z" fill="#FFA927"/>
</svg>
