<svg width="32" height="32" viewBox="0 0 32 32" fill="none" xmlns="http://www.w3.org/2000/svg">
<path d="M30.905 8.65981L22.7525 0.188625C22.6365 0.068125 22.4763 0 22.3091 0H10.1585C8.79866 0 7.69235 1.10588 7.69235 2.46513V11.0769H2.76816C1.75078 11.0769 0.923096 11.9044 0.923096 12.9215V22.1555C0.923096 23.1726 1.75078 24 2.76816 24H7.69235V29.5392C7.69235 30.8961 8.79866 32 10.1585 32H28.6108C29.9707 32 31.077 30.8967 31.077 29.5406V9.08656C31.077 8.92744 31.0153 8.7745 30.905 8.65981ZM22.4616 1.66131L29.154 8.61537H22.4616V1.66131ZM2.76816 22.7693C2.42941 22.7693 2.15391 22.4939 2.15391 22.1555V12.9215C2.15391 12.5831 2.42947 12.3077 2.76816 12.3077H19.3858C19.7245 12.3077 20 12.5831 20 12.9215V22.1555C20 22.4939 19.7245 22.7693 19.3858 22.7693H2.76816ZM29.8462 29.5406C29.8462 30.2181 29.292 30.7693 28.6108 30.7693H10.1585C9.47728 30.7693 8.9231 30.2175 8.9231 29.5392V24H19.3858C20.4032 24 21.2308 23.1726 21.2308 22.1555V12.9215C21.2308 11.9044 20.4032 11.0769 19.3858 11.0769H8.9231V2.46513C8.9231 1.78444 9.47728 1.23075 10.1585 1.23075H21.2308V9.23075C21.2308 9.57063 21.5063 9.84612 21.8462 9.84612H29.8462V29.5406Z" fill="#FFA927"/>
<path d="M8.28004 15.6182C8.07573 15.3526 7.8221 15.1801 7.51923 15.1008C7.3221 15.0479 6.89904 15.0215 6.24998 15.0215H4.53723V20.3075H5.60454V18.3135H6.30048C6.78367 18.3135 7.15267 18.2883 7.40748 18.2378C7.59498 18.1969 7.77948 18.1134 7.96098 17.9872C8.14248 17.861 8.2921 17.6873 8.40992 17.4662C8.52773 17.245 8.5866 16.9722 8.5866 16.6477C8.58654 16.227 8.48435 15.8839 8.28004 15.6182ZM7.36598 17.0732C7.28548 17.191 7.17429 17.2775 7.03242 17.3328C6.89054 17.3881 6.60935 17.4157 6.18867 17.4157H5.60454V15.9157H6.12017C6.50479 15.9157 6.76079 15.9277 6.88817 15.9518C7.06123 15.983 7.20429 16.0612 7.31723 16.1862C7.43023 16.3112 7.48673 16.4699 7.48673 16.6621C7.48679 16.8184 7.44648 16.9554 7.36598 17.0732Z" fill="#FFA927"/>
<path d="M13.7175 16.4656C13.6022 16.1279 13.4339 15.8424 13.2127 15.6092C12.9916 15.376 12.7259 15.2138 12.4159 15.1224C12.1851 15.0551 11.8497 15.0215 11.4099 15.0215H9.45911V20.3075H11.4675C11.8618 20.3075 12.1767 20.2703 12.4122 20.1957C12.7272 20.0948 12.9772 19.9542 13.1622 19.7739C13.4074 19.5359 13.5961 19.2246 13.7284 18.84C13.8365 18.525 13.8906 18.15 13.8906 17.715C13.8906 17.2198 13.8329 16.8034 13.7175 16.4656ZM12.679 18.6363C12.6069 18.8731 12.5138 19.0432 12.3996 19.1465C12.2854 19.2499 12.1418 19.3232 11.9687 19.3664C11.8365 19.4001 11.6214 19.4169 11.3233 19.4169H10.5264V15.9157H11.006C11.441 15.9157 11.7332 15.9325 11.8822 15.9662C12.0817 16.0095 12.2464 16.0924 12.3762 16.215C12.506 16.3377 12.6069 16.5083 12.679 16.727C12.7512 16.9458 12.7872 17.2595 12.7872 17.6682C12.7872 18.0768 12.7512 18.3995 12.679 18.6363Z" fill="#FFA927"/>
<path d="M18.4267 15.9157V15.0215H14.8029V20.3075H15.8702V18.0612H18.0769V17.1669H15.8702V15.9157H18.4267Z" fill="#FFA927"/>
</svg>
