<svg width="40" height="40" viewBox="0 0 40 40" fill="none" xmlns="http://www.w3.org/2000/svg">
<path d="M9.86332 1.69227C7.60694 -0.564091 3.94859 -0.564091 1.69221 1.69227C-0.563977 3.94883 -0.564164 7.60697 1.69221 9.86334C3.94859 12.1197 7.60694 12.1197 9.86332 9.86334C12.1197 7.60697 12.1197 3.94864 9.86332 1.69227Z" fill="#10345A"/>
<path d="M2.40328 37.5968C3.70522 38.899 5.81584 38.8984 7.11722 37.5968L37.597 7.11744C38.8987 5.81569 38.8987 3.70508 37.597 2.40352C36.2952 1.10177 34.1846 1.10177 32.883 2.40352L2.40328 32.8829C1.10152 34.1847 1.10152 36.2953 2.40328 37.5968Z" fill="#10345A"/>
<path d="M30.1367 38.3077C32.3931 40.5641 36.0515 40.5641 38.3079 38.3077C40.564 36.0512 40.564 32.393 38.3079 30.1367C36.0515 27.8803 32.3931 27.8803 30.1367 30.1367C27.8804 32.393 27.8804 36.0514 30.1367 38.3077Z" fill="#10345A"/>
</svg>
