<svg width="14" height="212" viewBox="0 0 14 212" fill="none" xmlns="http://www.w3.org/2000/svg">
<path d="M7.93262 52.8643L7.93262 54.0469L12 54.0469L12 56.0977L2.04687 56.0977L2.04687 54.0469L6.03223 54.0469L6.03223 53.1104L2.04687 50.6768L2.04687 48.1748L6.75684 51.2441L12 47.8535L12 50.3008L7.93262 52.8643ZM8.49316 42.3218L12 42.3218L12 44.3725L2.04687 44.3725L2.04687 40.4897C2.04687 39.7423 2.18359 39.0861 2.45703 38.521C2.73047 37.9513 3.12012 37.5138 3.62598 37.2085C4.12728 36.9031 4.69922 36.7505 5.3418 36.7505C6.31706 36.7505 7.08724 37.0854 7.65234 37.7554C8.21289 38.4207 8.49316 39.3436 8.49316 40.5239L8.49316 42.3218ZM6.83203 42.3218L6.83203 40.4897C6.83203 39.9474 6.70443 39.535 6.44922 39.2524C6.19401 38.9653 5.82943 38.8218 5.35547 38.8218C4.86784 38.8218 4.47363 38.9653 4.17285 39.2524C3.87207 39.5395 3.71712 39.936 3.70801 40.4419L3.70801 42.3218L6.83203 42.3218ZM6.75 28.915L2.04687 27.1035L2.04687 24.8886L10.2568 28.3681L10.7969 28.6484C11.6947 29.1634 12.1436 29.9518 12.1436 31.0136L12.1162 31.7314L10.4687 31.7519C10.487 31.6426 10.4961 31.4648 10.4961 31.2187C10.4961 30.9316 10.446 30.7015 10.3457 30.5283C10.2454 30.3506 10.0609 30.2025 9.79199 30.084L9.14258 29.831L2.04687 33.3242L2.04687 31.1162L6.75 28.915ZM3.70801 13.4985L3.70801 16.5473L12 16.5473L12 18.5981L3.70801 18.5981L3.70801 21.6059L2.04687 21.6059L2.04687 13.4985L3.70801 13.4985ZM2.04687 3.66695L2.04687 1.60933L12 1.60933L12 3.66695L5.38965 3.66695L12 7.6523L12 9.70308L2.04687 9.70308L2.04687 7.6523L8.6709 7.6523L2.04687 3.66695Z" fill="#FFA927"/>
<line opacity="0.7" x1="7.5" y1="75" x2="7.49999" y2="212" stroke="#FFA927"/>
</svg>
