<svg width="16" height="16" viewBox="0 0 16 16" fill="none" xmlns="http://www.w3.org/2000/svg">
<g clip-path="url(#clip0)">
<path d="M5.89551 8.43408C4.96751 8.43408 4.21484 9.18675 4.21484 10.1147V14.3187C4.21484 15.2467 4.96751 15.9994 5.89551 15.9994C6.82351 15.9994 7.57618 15.2467 7.57618 14.3187V10.1147C7.57551 9.18675 6.82284 8.43408 5.89551 8.43408Z" fill="#FFA927"/>
<path d="M0.0126953 10.1146C0.0126953 11.0433 0.766029 11.7966 1.6947 11.7966C2.62336 11.7966 3.3767 11.0433 3.3767 10.1146V8.43262H1.69603C1.69536 8.43262 1.69536 8.43262 1.6947 8.43262C0.766029 8.43262 0.0126953 9.18595 0.0126953 10.1146Z" fill="#FFA927"/>
<path d="M5.89738 -0.000610352C5.89671 -0.000610352 5.89604 -0.000610352 5.89538 -0.000610352C4.96671 -0.000610352 4.21338 0.752723 4.21338 1.68139C4.21338 2.61006 4.96671 3.36339 5.89538 3.36339H7.57604V1.68139C7.57604 1.68072 7.57604 1.67939 7.57604 1.67806C7.57538 0.750723 6.82404 -0.000610352 5.89738 -0.000610352Z" fill="#FFA927"/>
<path d="M1.68346 7.57994H5.89547C6.82413 7.57994 7.57747 6.82661 7.57747 5.89794C7.57747 4.96928 6.82413 4.21594 5.89547 4.21594H1.68346C0.754798 4.21594 0.00146484 4.96928 0.00146484 5.89794C0.00146484 6.82661 0.754798 7.57994 1.68346 7.57994Z" fill="#FFA927"/>
<path d="M14.3046 4.21533C13.3773 4.21533 12.626 4.96667 12.626 5.894V5.89733V7.57933H14.3066C15.2353 7.57933 15.9886 6.826 15.9886 5.89733C15.9886 4.96867 15.2353 4.21533 14.3066 4.21533C14.306 4.21533 14.3053 4.21533 14.3046 4.21533Z" fill="#FFA927"/>
<path d="M8.42725 1.68128V5.89794C8.42725 6.82594 9.17991 7.57861 10.1079 7.57861C11.0359 7.57861 11.7886 6.82594 11.7886 5.89794V1.68128C11.7886 0.753277 11.0359 0.000610352 10.1079 0.000610352C9.17991 0.000610352 8.42725 0.753277 8.42725 1.68128Z" fill="#FFA927"/>
<path d="M11.7881 14.3174C11.7881 13.3894 11.0354 12.6367 10.1074 12.6367H8.42676V14.3187C8.42742 15.2461 9.17942 15.998 10.1074 15.998C11.0354 15.998 11.7881 15.2454 11.7881 14.3174Z" fill="#FFA927"/>
<path d="M14.3193 8.43262H10.1073C9.17863 8.43262 8.42529 9.18595 8.42529 10.1146C8.42529 11.0433 9.17863 11.7966 10.1073 11.7966H14.3193C15.248 11.7966 16.0013 11.0433 16.0013 10.1146C16.0013 9.18595 15.248 8.43262 14.3193 8.43262Z" fill="#FFA927"/>
</g>
<defs>
<clipPath id="clip0">
<rect width="16" height="16" fill="white"/>
</clipPath>
</defs>
</svg>
