<svg width="16" height="17" viewBox="0 0 16 17" fill="none" xmlns="http://www.w3.org/2000/svg">
<g clip-path="url(#clip0)">
<path d="M5.89551 9.42603C4.96751 9.42603 4.21484 10.1787 4.21484 11.1067V15.3107C4.21484 16.2387 4.96751 16.9914 5.89551 16.9914C6.82351 16.9914 7.57618 16.2387 7.57618 15.3107V11.1067C7.57551 10.1787 6.82284 9.42603 5.89551 9.42603Z" fill="white"/>
<path d="M0.0126953 11.1066C0.0126953 12.0352 0.766029 12.7886 1.6947 12.7886C2.62336 12.7886 3.3767 12.0352 3.3767 11.1066V9.42456H1.69603C1.69536 9.42456 1.69536 9.42456 1.6947 9.42456C0.766029 9.42456 0.0126953 10.1779 0.0126953 11.1066Z" fill="white"/>
<path d="M5.89738 0.991333C5.89671 0.991333 5.89604 0.991333 5.89538 0.991333C4.96671 0.991333 4.21338 1.74467 4.21338 2.67333C4.21338 3.602 4.96671 4.35533 5.89538 4.35533H7.57604V2.67333C7.57604 2.67267 7.57604 2.67133 7.57604 2.67C7.57538 1.74267 6.82404 0.991333 5.89738 0.991333Z" fill="white"/>
<path d="M1.68346 8.57188H5.89547C6.82413 8.57188 7.57747 7.81855 7.57747 6.88989C7.57747 5.96122 6.82413 5.20789 5.89547 5.20789H1.68346C0.754798 5.20789 0.00146484 5.96122 0.00146484 6.88989C0.00146484 7.81855 0.754798 8.57188 1.68346 8.57188Z" fill="white"/>
<path d="M14.3046 5.20728C13.3773 5.20728 12.626 5.95861 12.626 6.88594V6.88928V8.57128H14.3066C15.2353 8.57128 15.9886 7.81794 15.9886 6.88928C15.9886 5.96061 15.2353 5.20728 14.3066 5.20728C14.306 5.20728 14.3053 5.20728 14.3046 5.20728Z" fill="white"/>
<path d="M8.42725 2.67322V6.88989C8.42725 7.81789 9.17991 8.57055 10.1079 8.57055C11.0359 8.57055 11.7886 7.81789 11.7886 6.88989V2.67322C11.7886 1.74522 11.0359 0.992554 10.1079 0.992554C9.17991 0.992554 8.42725 1.74522 8.42725 2.67322Z" fill="white"/>
<path d="M11.7881 15.3093C11.7881 14.3813 11.0354 13.6287 10.1074 13.6287H8.42676V15.3107C8.42742 16.238 9.17942 16.99 10.1074 16.99C11.0354 16.99 11.7881 16.2373 11.7881 15.3093Z" fill="white"/>
<path d="M14.3193 9.42456H10.1073C9.17863 9.42456 8.42529 10.1779 8.42529 11.1066C8.42529 12.0352 9.17863 12.7886 10.1073 12.7886H14.3193C15.248 12.7886 16.0013 12.0352 16.0013 11.1066C16.0013 10.1779 15.248 9.42456 14.3193 9.42456Z" fill="white"/>
</g>
<defs>
<clipPath id="clip0">
<rect y="0.991943" width="16" height="16" fill="white"/>
</clipPath>
</defs>
</svg>
