<svg width="48" height="48" viewBox="0 0 48 48" fill="none" xmlns="http://www.w3.org/2000/svg">
<path d="M6.75 21C8.4045 21 9.75 22.3455 9.75 24C9.75 25.6545 8.4045 27 6.75 27C5.0955 27 3.75 25.6545 3.75 24C3.75 22.3455 5.0955 21 6.75 21ZM6.75 25.5C7.57725 25.5 8.25 24.8273 8.25 24C8.25 23.1727 7.57725 22.5 6.75 22.5C5.92275 22.5 5.25 23.1727 5.25 24C5.25 24.8273 5.92275 25.5 6.75 25.5Z" fill="#FFA927"/>
<path d="M9 15.75C12.4357 15.75 15.4583 17.838 16.6868 21H18V18.0045C18 15.1845 19.7385 12.765 22.1992 11.7555C20.5747 10.6807 19.5 8.8395 19.5 6.75C19.5 3.44175 22.1917 0.75 25.5 0.75C28.8083 0.75 31.5 3.44175 31.5 6.75C31.5 9.1245 30.1095 11.1757 28.1033 12.147C28.6125 12.4395 29.082 12.792 29.4967 13.2023C31.5773 12.0555 33 10.086 33 8.25C33 6.5955 34.3455 5.25 36 5.25C37.6545 5.25 39 6.5955 39 8.25C39 12.663 36.0075 16.8967 31.5112 18.942L31.5142 21H44.4773L47.25 22.8488V25.1512L45 26.6512V33H40.5V30H39V33H34.5V27H31.518L35.124 43.3898C35.598 44.9738 34.6957 46.6493 33.1132 47.1233C32.8327 47.2073 32.5425 47.25 32.25 47.25C30.936 47.25 29.754 46.371 29.373 45.102L25.3155 30.879C25.1835 31.1423 25.0845 31.425 25.0267 31.722L22.3748 45.1125C21.996 46.371 20.814 47.25 19.5 47.25C19.2075 47.25 18.9172 47.2073 18.6375 47.1233C17.055 46.6493 16.1528 44.9738 16.6095 43.4573L19.395 29.526C18.5595 28.9928 18 28.0627 18 27H16.6868C15.4583 30.162 12.4357 32.25 9 32.25C4.45125 32.25 0.75 28.5487 0.75 24C0.75 19.4513 4.45125 15.75 9 15.75ZM30 6.75C30 4.26825 27.9818 2.25 25.5 2.25C23.0182 2.25 21 4.26825 21 6.75C21 9.23175 23.0182 11.25 25.5 11.25C27.9818 11.25 30 9.23175 30 6.75ZM37.5 8.25C37.5 7.42275 36.8273 6.75 36 6.75C35.1727 6.75 34.5 7.42275 34.5 8.25C34.5 10.5825 32.9032 12.9622 30.4538 14.3955C30.9982 15.252 31.3605 16.2353 31.4715 17.2935C35.0662 15.4118 37.5 11.829 37.5 8.25ZM30.0098 17.9963C30.0053 15.1035 27.648 12.75 24.7552 12.75C21.858 12.75 19.5 15.1073 19.5 18.0045V27C19.5 27.8272 20.1728 28.5 21 28.5C21.8272 28.5 22.5 27.8272 22.5 27V18.8558C22.5 17.5988 23.124 16.4325 24.1702 15.7358L25.0845 15.1268L25.9163 16.3748L25.002 16.9837C24.3743 17.4015 24 18.1012 24 18.8558V21H30.0142L30.0098 17.9963ZM45.75 23.6512L44.0227 22.5H24V25.5H44.0227L45.75 24.3488V23.6512ZM36 31.5H37.5V28.5H42V31.5H43.5V27H36V31.5ZM18.063 43.8195C17.8267 44.6115 18.2767 45.4492 19.0687 45.6862C19.8435 45.9188 20.7098 45.4342 20.9198 44.7503L23.5545 31.4303C23.8905 29.7308 25.1198 28.3357 26.763 27.7875L27.2377 29.2102C26.9753 29.298 26.7292 29.4195 26.5012 29.5658L30.813 44.6798C31.044 45.4493 31.9043 45.9188 32.682 45.6855C33.4733 45.4485 33.9232 44.6108 33.6727 43.7648L30.0173 27.1598L30.0142 27H24C24 28.6545 22.6545 30 21 30C20.943 30 20.8897 29.9865 20.8335 29.9827L18.063 43.8195ZM9 30.75C11.964 30.75 14.5522 28.851 15.4403 26.025L15.6052 25.5H18V22.5H15.6052L15.4403 21.975C14.5522 19.149 11.964 17.25 9 17.25C5.27775 17.25 2.25 20.2785 2.25 24C2.25 27.7215 5.27775 30.75 9 30.75Z" fill="#FFA927"/>
</svg>
