<svg width="48" height="48" viewBox="0 0 48 48" fill="none" xmlns="http://www.w3.org/2000/svg">
<path d="M35.0769 46.0948V47.9409H12.9231V46.0948C12.9231 45.0775 13.752 44.2486 14.7692 44.2486H18.4855C18.5834 41.9446 20.0788 40.0209 22.1538 39.2843V17.6382C21.1809 17.0234 20.5292 15.9452 20.5292 14.7083H22.1538H25.8462H27.4708C27.4708 15.9452 26.8191 17.0234 25.8462 17.6382V39.2825C27.9212 40.0191 29.4166 41.9428 29.5145 44.2468H33.2308C34.248 44.2486 35.0769 45.0775 35.0769 46.0948ZM48 29.4775C46.6468 33.288 43.0431 36.0369 38.7692 36.0369C34.4954 36.0369 30.8917 33.2862 29.5385 29.4775H31.6689L37.9052 12.9489C38.1748 12.2289 39.3618 12.2289 39.6332 12.9489L45.8695 29.4775H48ZM43.896 29.4775L38.7692 15.8917L33.6425 29.4794H43.896V29.4775ZM9.23077 11.0363C10.0671 11.0363 10.7483 10.4769 10.9846 9.71816C11.5957 9.48554 12.2215 9.1717 12.864 8.84677C14.2763 8.13416 15.8769 7.3237 17.5385 7.3237C19.1335 7.3237 20.1305 8.06031 20.7009 8.688C20.6788 8.84677 20.6529 9.00554 20.6529 9.16985C20.6529 11.0179 22.152 12.5169 24 12.5169C25.848 12.5169 27.3471 11.0179 27.3471 9.16985C27.3471 9.00554 27.3212 8.84862 27.2991 8.68985C27.8677 8.064 28.8646 7.3237 30.4615 7.3237C32.1231 7.3237 33.7237 8.13231 35.1342 8.84493C35.7785 9.16985 36.4043 9.4837 37.0154 9.71631C37.2517 10.4751 37.9329 11.0345 38.7692 11.0345C39.7994 11.0345 40.6338 10.2 40.6338 9.16985C40.6338 8.1397 39.7994 7.30524 38.7692 7.30524C38.2375 7.30524 37.7631 7.53416 37.4234 7.89231C36.9674 7.70031 36.4745 7.45477 35.9668 7.19816C34.3717 6.39139 32.5643 5.47754 30.4615 5.47754C28.6228 5.47754 27.3415 6.17724 26.472 6.93047C26.0825 6.50031 25.584 6.17908 25.0172 5.99631C25.7058 5.62708 26.1895 4.9237 26.1895 4.09108C26.1895 2.88185 24 0.059082 24 0.059082C24 0.059082 21.8105 2.88185 21.8105 4.09108C21.8105 4.92554 22.2942 5.62708 22.9828 5.99631C22.416 6.17724 21.9175 6.50031 21.528 6.93047C20.6585 6.17724 19.3772 5.47754 17.5385 5.47754C15.4357 5.47754 13.6265 6.39139 12.0314 7.19816C11.5237 7.45662 11.0326 7.70216 10.5766 7.89231C10.2369 7.53601 9.76246 7.30524 9.23077 7.30524C8.20061 7.30524 7.36615 8.1397 7.36615 9.16985C7.36615 10.2 8.20061 11.0363 9.23077 11.0363ZM9.23077 36.0388C4.95692 36.0388 1.35323 33.288 0 29.4794H2.13046L8.36677 12.9508C8.63631 12.2308 9.82338 12.2308 10.0948 12.9508L16.3311 29.4794H18.4615C17.1083 33.288 13.5046 36.0388 9.23077 36.0388ZM14.3575 29.4775L9.23077 15.8917L4.104 29.4794H14.3575V29.4775Z" fill="white"/>
</svg>
