<svg width="175" height="30" viewBox="0 0 175 30" fill="none" xmlns="http://www.w3.org/2000/svg">
<g clip-path="url(#clip0)">
<path d="M50.8466 1.96153H47.933V6.0518H45.3375V8.67251H47.933V24.7152H50.8466V8.67251H54.2607V6.0518H50.8466V1.96153ZM73.3329 24.7152H76.2465V0.785889H73.3329V24.7152ZM79.23 24.7152H82.1436V0.785889H79.2338L79.23 24.7152ZM110.178 11.3055L119.501 0.785889H115.799L106.166 11.6239V0.785889H103.315V24.7397H106.166V15.4896L108.168 13.3669L117.134 24.7356H121.052L110.178 11.3055ZM157.086 6.02322C155.053 6.02322 153.416 6.93353 152.159 8.73782V6.12528H149.246V24.7152H152.159V16.0897C152.159 13.9262 152.241 12.0484 152.605 10.9585C153.086 9.51342 154.406 8.88069 156.431 8.89702C157.955 8.90927 158.98 9.44403 159.496 10.5584C159.849 11.3381 160.031 12.6321 160.031 14.4609V24.7152H162.96V13.9262C162.96 8.66434 160.997 6.02322 157.086 6.02322ZM147.927 7.17029C146.289 6.08446 145.211 6.02731 144.807 6.02731C143.966 5.99394 143.139 6.26478 142.464 6.79474C142.026 7.12539 141.579 7.65606 140.967 8.51331V6.12119H138.057V24.7152H140.967V15.6202C140.92 11.7341 141.739 9.10521 144.097 8.97867C144.582 8.95009 145.285 9.09705 146.188 9.71344L147.927 7.17029ZM91.2568 12.3505L91.218 12.3015C90.5158 11.4524 90.1201 10.8238 89.8834 10.2155C89.7376 9.83067 89.674 9.41677 89.6972 9.00316C89.6985 8.75883 89.7502 8.51771 89.8487 8.29643C89.9471 8.07514 90.09 7.87895 90.2675 7.72138C90.6581 7.37735 91.155 7.19583 91.6642 7.21112C92.2461 7.21112 92.7272 7.39889 93.1384 7.78261C93.3266 7.94508 93.4781 8.14945 93.5821 8.38099C93.6861 8.61252 93.7399 8.86545 93.7398 9.12154C93.7398 9.62772 93.5342 10.1012 93.2509 10.5095C92.9794 10.8973 92.5061 11.3259 91.8271 11.881L91.3073 12.3097L91.2568 12.3505ZM91.1365 23.1721C90.0037 23.1721 89.1967 22.8578 88.4441 22.123C88.0709 21.7791 87.7706 21.3564 87.5627 20.8824C87.3549 20.4084 87.2441 19.8937 87.2375 19.3717C87.2375 18.6859 87.4781 18.1062 87.9669 17.5225C88.3665 17.0449 89.1463 16.4203 90.0541 15.7141L90.927 15.0283L90.9814 14.9875L95.2994 20.5922L95.2451 20.6371C94.9735 20.8617 94.698 21.1148 94.4226 21.3556C93.926 21.8005 93.4139 22.2537 92.9677 22.5639C92.4194 22.9346 91.7876 23.1459 91.1365 23.1762V23.1721ZM91.7379 5.45173C90.574 5.45173 89.6041 5.81912 88.8553 6.5539C88.4922 6.90444 88.2049 7.33295 88.0128 7.81043C87.8207 8.28792 87.7283 8.80325 87.7419 9.32156C87.7419 9.87673 87.9359 10.5462 88.3199 11.3055C88.6652 12.028 89.3209 12.8771 89.8058 13.4567L89.8563 13.5139L89.7981 13.5588L88.9678 14.2364C87.6643 15.2978 86.5314 16.2162 86.0193 17.0408C85.5958 17.7387 85.376 18.5519 85.3869 19.3799C85.3869 21.0454 85.8796 22.4129 86.8496 23.4415C87.8854 24.5315 89.1385 24.9642 90.6671 25.0621C91.7689 25.1275 92.8552 24.858 93.8096 24.2335C94.2635 23.9355 94.7291 23.5558 95.4429 22.9231L96.3779 22.1108L96.4322 22.07L98.4341 24.6621H100.828L97.8522 20.9025L100.316 18.592L99.1984 17.1102L96.7155 19.437L96.6767 19.3758L92.4129 13.8486L92.4673 13.8078L93.1152 13.269C93.9144 12.6117 94.4924 12.1341 94.861 11.6198C95.3665 10.9408 95.6398 10.1024 95.6369 9.23992C95.6369 8.28879 95.3886 7.39481 94.7562 6.70902C94.3619 6.29295 93.8905 5.96664 93.3712 5.75035C92.852 5.53406 92.296 5.43242 91.7379 5.45173ZM57.3877 13.4812C57.5563 12.1612 58.1906 10.9561 59.1645 10.1053C60.1965 9.17869 61.3371 8.71741 62.6019 8.71741C63.8628 8.71741 64.9684 9.17461 65.9151 10.0808C66.8656 11.0075 67.4359 12.1382 67.6221 13.4812H57.3877ZM67.657 19.139C66.4 21.1678 64.7977 22.1802 62.8463 22.1802C61.2285 22.1802 59.8861 21.5964 58.8425 20.4167C57.8026 19.2509 57.2289 17.7089 57.2402 16.1101H70.6909C70.8344 13.273 70.2059 10.885 68.7899 8.95417C67.2885 6.88047 65.2012 5.84361 62.5631 5.84361C59.9909 5.84361 57.9347 6.81923 56.3945 8.75415C54.9668 10.5666 54.2568 12.8648 54.2568 15.6856C54.2568 18.3308 55.0172 20.5637 56.569 22.3598C58.1093 24.1559 60.1306 25.0376 62.6329 25.0376C65.9888 25.0376 68.5416 23.5232 70.2603 20.4657L67.657 19.139Z" fill="#395B6F"/>
<path d="M122.402 13.4821C122.572 12.1614 123.208 10.9563 124.183 10.1062C125.215 9.17952 126.348 8.71825 127.617 8.71825C128.878 8.71825 129.983 9.17544 130.93 10.0817C131.88 11.0083 132.451 12.139 132.637 13.4821H122.402ZM132.672 19.1399C131.411 21.1687 129.813 22.181 127.861 22.181C126.243 22.181 124.901 21.5973 123.857 20.4176C122.818 19.2515 122.244 17.7096 122.255 16.1109H135.706C135.849 13.2739 135.217 10.8858 133.805 8.95501C132.303 6.8813 130.216 5.84445 127.578 5.84445C125.006 5.84445 122.949 6.82007 121.409 8.75499C119.978 10.5674 119.272 12.8657 119.272 15.6864C119.272 18.3316 120.036 20.5645 121.58 22.3606C123.124 24.1568 125.145 25.0385 127.648 25.0385C131.004 25.0385 133.553 23.524 135.275 20.4665L132.672 19.1399ZM25.7221 14.0617L18.3896 18.3806L17.2218 19.3276L22.2964 7.29359L22.5912 6.28123L22.8938 7.30176L25.7221 14.0617ZM21.8735 0.843872L11.6545 25.0099H12.2365L26.8627 16.7396L29.9276 24.7405H33.4581L23.3245 0.843872H21.8735ZM42.517 14.7761C41.3857 14.1554 40.2341 13.5767 39.0641 13.0412C37.6636 12.3921 36.9575 11.7227 36.9575 10.8164C36.9575 10.2531 37.1825 9.66529 37.6248 9.28158C38.0342 8.90858 38.5575 8.70285 39.099 8.70192C40.1543 8.70192 40.938 9.31423 41.5432 10.8246L44.0145 9.47344C43.4132 8.33861 42.8894 7.45688 42.1368 6.84456C41.3298 6.19221 40.3417 5.83656 39.3241 5.8322C37.8886 5.8322 36.6782 6.32205 35.6656 7.28543C35.1768 7.74924 34.7892 8.31883 34.5294 8.9551C34.2696 9.59138 34.1436 10.2793 34.1603 10.9716C34.1603 12.6126 35.266 14.1719 36.3135 14.8006C37.6015 15.5966 38.6956 16.0538 39.9448 16.6661C41.3027 17.3723 42.2609 18.1275 42.067 19.5644C41.9858 20.3003 41.6436 20.9768 41.1087 21.4585C40.5811 21.981 39.9875 22.1647 39.1689 22.1647C37.6481 22.1647 36.4687 21.1972 35.6307 19.2623L33.0158 20.4257C33.5279 21.8381 34.2611 22.9974 35.3358 23.8057C36.4221 24.6221 37.6907 25.0181 39.134 25.0181C40.7556 25.0181 42.1407 24.4588 43.2852 23.3444C44.4335 22.2218 44.9069 21.0421 44.9922 19.344C45.0776 17.7968 44.5771 15.9681 42.517 14.7761Z" fill="#395B6F"/>
</g>
<defs>
<clipPath id="clip0">
<rect x="0.433228" y="0.441162" width="173.632" height="28.9386" fill="white"/>
</clipPath>
</defs>
</svg>
