<svg width="111" height="38" viewBox="0 0 111 38" fill="none" xmlns="http://www.w3.org/2000/svg">
<path d="M46.8648 19.8241C46.8648 24.9567 42.8201 28.7388 37.8562 28.7388C32.8924 28.7388 28.8477 24.9567 28.8477 19.8241C28.8477 14.6554 32.8924 10.9094 37.8562 10.9094C42.8201 10.9094 46.8648 14.6554 46.8648 19.8241ZM42.9213 19.8241C42.9213 16.6168 40.577 14.4222 37.8562 14.4222C35.1354 14.4222 32.7912 16.6168 32.7912 19.8241C32.7912 22.9993 35.1354 25.226 37.8562 25.226C40.577 25.226 42.9213 22.9953 42.9213 19.8241Z" fill="#395B6F"/>
<path d="M66.2991 19.8241C66.2991 24.9567 62.2544 28.7388 57.2906 28.7388C52.3267 28.7388 48.282 24.9567 48.282 19.8241C48.282 14.6594 52.3267 10.9094 57.2906 10.9094C62.2544 10.9094 66.2991 14.6554 66.2991 19.8241ZM62.3556 19.8241C62.3556 16.6168 60.0114 14.4222 57.2906 14.4222C54.5698 14.4222 52.2255 16.6168 52.2255 19.8241C52.2255 22.9993 54.5698 25.226 57.2906 25.226C60.0114 25.226 62.3556 22.9953 62.3556 19.8241Z" fill="#395B6F"/>
<path d="M84.9235 11.448V27.4527C84.9235 34.0362 81.0124 36.7251 76.3886 36.7251C72.0362 36.7251 69.4166 33.8352 68.4287 31.4719L71.8621 30.0531C72.4735 31.5041 73.9715 33.2163 76.3846 33.2163C79.3443 33.2163 81.1784 31.4036 81.1784 27.9912V26.7091H81.0407C80.1581 27.7903 78.4576 28.7348 76.3117 28.7348C71.8216 28.7348 67.708 24.8522 67.708 19.8563C67.708 14.8242 71.8216 10.9094 76.3117 10.9094C78.4535 10.9094 80.154 11.8539 81.0407 12.903H81.1784V11.452H84.9235V11.448ZM81.4577 19.8563C81.4577 16.7172 79.3483 14.4222 76.664 14.4222C73.9432 14.4222 71.6637 16.7172 71.6637 19.8563C71.6637 22.9631 73.9432 25.226 76.664 25.226C79.3483 25.226 81.4577 22.9631 81.4577 19.8563Z" fill="#395B6F"/>
<path d="M91.0981 2.06714V28.1923H87.2517V2.06714H91.0981Z" fill="#395B6F"/>
<path d="M106.087 22.7582L109.148 24.7839C108.16 26.2348 105.779 28.7348 101.666 28.7348C96.5641 28.7348 92.7542 24.82 92.7542 19.8201C92.7542 14.5187 96.5965 10.9054 101.224 10.9054C105.884 10.9054 108.164 14.587 108.909 16.5766L109.318 17.5894L97.3131 22.525C98.2322 24.3136 99.6614 25.226 101.666 25.226C103.674 25.226 105.067 24.2453 106.087 22.7582ZM96.6653 19.5508L104.69 16.243C104.249 15.1296 102.921 14.3539 101.358 14.3539C99.3537 14.3539 96.5641 16.1103 96.6653 19.5508Z" fill="#395B6F"/>
<path d="M14.288 17.5046V13.7225H27.1267C27.2522 14.3817 27.317 15.1614 27.317 16.0054C27.317 18.843 26.5356 22.3518 24.0173 24.8518C21.5677 27.3839 18.438 28.7344 14.292 28.7344C6.6074 28.7344 0.145508 22.5206 0.145508 14.8921C0.145508 7.26356 6.6074 1.0498 14.292 1.0498C18.5433 1.0498 21.5718 2.70574 23.8472 4.86407L21.1588 7.53285C19.5271 6.01358 17.3165 4.83192 14.288 4.83192C8.67634 4.83192 4.28743 9.32142 4.28743 14.8921C4.28743 20.4628 8.67634 24.9523 14.288 24.9523C17.9279 24.9523 20.0008 23.5013 21.3288 22.183C22.4058 21.1139 23.1144 19.5866 23.3937 17.5006L14.288 17.5046Z" fill="#395B6F"/>
</svg>
