<svg width="179" height="31" viewBox="0 0 179 31" fill="none" xmlns="http://www.w3.org/2000/svg">
<g clip-path="url(#clip0)">
<path d="M176.283 5.31567C176.504 5.31567 176.703 5.29983 176.703 5.03384C176.703 4.81766 176.507 4.77691 176.327 4.77691H175.97V5.31567H176.283ZM175.97 6.29471H175.711V4.55282H176.366C176.773 4.55282 176.974 4.70448 176.974 5.04743C176.974 5.36208 176.783 5.49564 176.526 5.52846L177.018 6.29471H176.725L176.27 5.54204H175.97V6.29471ZM176.287 6.6818C176.962 6.6818 177.495 6.14644 177.495 5.42093C177.495 4.70448 176.962 4.16459 176.287 4.16459C175.606 4.16459 175.07 4.70448 175.07 5.42093C175.07 6.14644 175.606 6.6818 176.287 6.6818ZM174.771 5.42093C174.771 4.55281 175.465 3.91219 176.287 3.91219C177.101 3.91219 177.795 4.55281 177.795 5.42093C177.795 6.29471 177.101 6.9342 176.287 6.9342C175.465 6.9342 174.771 6.29471 174.771 5.42093ZM105.789 29.9272H104.871L105.552 28.6878L103.791 25.4247H104.756L106.015 27.9748L107.203 25.4247H108.089L105.789 29.9272ZM101.41 25.8468C100.71 25.8468 100.248 26.2995 100.248 27.059C100.248 27.8173 100.678 28.2531 101.41 28.2531C102.123 28.2531 102.572 27.78 102.572 27.0465C102.572 26.2995 102.149 25.8468 101.41 25.8468ZM101.641 28.8054C100.897 28.8054 100.473 28.5372 100.221 28.1942C100.221 28.2995 100.198 28.5904 100.191 28.6821H99.3889C99.3945 28.5055 99.4124 28.1376 99.4124 27.9928V23.9962H100.248V25.9305C100.556 25.574 100.96 25.3024 101.648 25.3024C102.629 25.3024 103.453 25.9113 103.453 27.0409C103.453 28.1173 102.625 28.8054 101.641 28.8054ZM171.965 28.823L167.306 21.9029V28.823H165.863V20.4689H168.059L172.722 27.3889V20.4689H174.165V28.823H171.965ZM159.428 21.6721L157.492 25.6743H161.353L159.428 21.6721ZM162.876 28.8231L161.913 26.822H156.921L155.948 28.8231H154.231L158.523 20.469H160.426L164.695 28.8231H162.876ZM151.504 28.823V21.5237L148.126 28.823H146.374L142.998 21.5237V28.823H141.567V20.4689H144.108L147.325 27.4806L150.531 20.4689H153.061V28.823H151.504ZM136.027 21.6382H133.644V24.1146H136.027C137.296 24.1146 137.835 23.766 137.835 22.8639C137.835 21.997 137.296 21.6382 136.027 21.6382ZM138.132 28.8231C138.029 28.3726 137.926 27.7467 137.835 27.3879L137.583 26.3568C137.342 25.3993 136.998 25.2816 135.773 25.2816H133.644V28.8231H132.041V20.469H136.403C138.568 20.469 139.483 21.3473 139.483 22.7145C139.483 24.2074 137.88 24.6353 137.501 24.693C138.498 24.7734 139.047 25.0518 139.266 26.3478L139.562 27.7807C139.642 28.2311 139.758 28.6612 139.837 28.8231H138.132ZM125.605 21.6721L123.671 25.6743H127.529L125.605 21.6721ZM129.052 28.8231L128.09 26.822H123.098L122.127 28.8231H120.407L124.701 20.469H126.602L130.874 28.8231H129.052ZM117.637 28.823V25.132H112.748V28.823H111.145V20.4689H112.748V23.9187H117.637V20.4689H119.24V28.823H117.637ZM85.451 17.8721L95.5802 0.696411H96.2119L86.0514 17.8721H85.451ZM162.885 5.13242H166.188V7.05543H166.237C166.868 5.71872 168.097 4.92191 169.375 4.92191C172.299 4.92191 174.279 6.14317 174.279 9.33043V17.8509H170.98V10.2959C170.98 9.1663 170.833 7.83073 168.593 7.83073C166.587 7.83073 166.188 8.93428 166.188 9.96538V17.8509H162.885V5.13242ZM152.039 9.16687C151.776 9.66149 151.423 10.5964 151.423 11.6524C151.423 12.7107 151.776 13.6478 152.039 14.1402C152.652 15.1973 153.571 15.572 154.398 15.572C155.224 15.572 156.143 15.1973 156.755 14.1402C157.016 13.6478 157.371 12.7107 157.371 11.6524C157.371 10.5964 157.016 9.66149 156.755 9.16687C156.143 8.112 155.224 7.73736 154.398 7.73736C153.571 7.73736 152.652 8.112 152.039 9.16687ZM149.985 16.8396C148.716 15.6897 148.103 13.7214 148.103 11.6524C148.103 9.58904 148.716 7.62078 149.985 6.4697C151.118 5.43633 152.748 4.92247 154.398 4.92247C156.049 4.92247 157.677 5.43633 158.812 6.4697C160.08 7.62078 160.698 9.58904 160.698 11.6524C160.698 13.7214 160.08 15.6897 158.812 16.8396C157.677 17.8696 156.049 18.3891 154.398 18.3891C152.748 18.3891 151.118 17.8696 149.985 16.8396ZM137.65 9.1929C137.417 9.68638 137.083 10.6235 137.083 11.6796C137.083 12.7344 137.417 13.6716 137.65 14.1662C138.215 15.2211 139.088 15.5969 139.868 15.5969C140.623 15.5969 141.492 15.2211 142.063 14.1662C142.297 13.6716 142.629 12.7344 142.629 11.6796C142.629 10.6235 142.297 9.68638 142.063 9.1929C141.492 8.13916 140.623 7.76112 139.868 7.76112C139.088 7.76112 138.215 8.13916 137.65 9.1929ZM145.927 17.9183H142.629V16.5804H142.579C141.683 17.8956 140.388 18.3427 139.344 18.3891C137.039 18.4797 135.719 17.564 134.725 15.452C134.208 14.3043 133.828 13.1577 133.758 11.9116C133.687 10.67 133.924 9.33099 134.583 7.80753C135.666 5.34351 137.767 4.99378 138.969 4.92247C141.118 4.82853 142.111 5.79173 142.579 6.86811H142.629V0.748243H145.927V17.9183ZM125.359 5.13242H128.658V7.59645H128.712C128.923 6.84377 129.088 6.40348 130.245 5.60327C130.81 5.18109 131.561 4.76006 132.6 4.92191V8.27555C131.185 8.11143 129.06 7.92354 128.658 10.692V17.8509H125.359V5.13242ZM119.227 11.8668C118.281 12.4304 117.008 12.3829 116.155 12.5481C115.145 12.7349 114.436 13.5781 114.719 14.6092C114.905 15.363 115.498 15.8995 116.911 15.6686C118.873 15.363 119.227 14.0003 119.227 12.5945V11.8668ZM119.601 17.8508C119.363 17.5429 119.227 17.0268 119.249 16.5809C118.091 17.6573 117.079 18.3884 115.145 18.3884C112.545 18.3884 111.273 16.9329 111.37 14.4689C111.442 12.6851 112.149 10.9511 115.073 10.4576C116.299 10.4101 117.618 10.1317 118.4 9.87359C118.987 9.65967 119.27 9.04848 119.227 8.43955C119.227 7.64273 118.565 7.2896 117.057 7.2896C115.165 7.2896 114.932 8.43955 114.882 9.35521H111.769C111.816 5.29643 115.308 4.92179 117.057 4.92179C118.323 4.92179 119.433 5.13232 120.072 5.39038C121.347 5.90537 122.36 6.93873 122.36 8.95454V15.8995C122.336 16.4643 122.669 17.0268 123.092 17.4015V17.8508H119.601ZM102.186 0.747681V10.0831H102.234L106.36 5.13242H110.138L105.821 9.99029L110.417 17.8509H106.55L103.557 12.4068L102.186 13.8816V17.8509H98.8852V0.747681H102.186ZM71.4272 5.13242H74.7338V7.05543H74.7763C75.4182 5.71872 76.6413 4.92191 77.9183 4.92191C80.8429 4.92191 82.8221 6.14317 82.8221 9.33043V17.8509H79.5211V10.2959C79.5211 9.1663 79.3755 7.83073 77.1353 7.83073C75.1314 7.83073 74.7338 8.93428 74.7338 9.96538V17.8509H71.4272V5.13242ZM65.2697 11.8668C64.3244 12.4304 63.0508 12.3829 62.204 12.5481C61.1869 12.7349 60.479 13.5781 60.7635 14.6092C60.9517 15.363 61.5409 15.8995 62.9578 15.6686C64.9158 15.363 65.2697 14.0003 65.2697 12.5945V11.8668ZM65.6461 17.8508C65.4097 17.5429 65.2697 17.0268 65.291 16.5809C64.1339 17.6573 63.1225 18.3884 61.1869 18.3884C58.5939 18.3884 57.3214 16.9329 57.4144 14.4689C57.4861 12.6851 58.1917 10.9511 61.1164 10.4576C62.3451 10.4101 63.6657 10.1317 64.4442 9.87359C65.0356 9.65967 65.3179 9.04848 65.2697 8.43955C65.2697 7.64273 64.6066 7.2896 63.1012 7.2896C61.2093 7.2896 60.9752 8.43955 60.9271 9.35521H57.812C57.8602 5.29643 61.3549 4.92179 63.1012 4.92179C64.3725 4.92179 65.4814 5.13232 66.1177 5.39038C67.3946 5.90537 68.4061 6.93873 68.4061 8.95454V15.8995C68.3825 16.4643 68.7118 17.0268 69.1341 17.4015V17.8508H65.6461ZM37.4056 17.851V5.13254H40.7099V7.03404H40.7525C41.792 5.52869 42.7373 4.6617 44.6729 4.92202C46.297 5.13254 46.7496 5.69733 47.6893 6.77371C48.4902 5.6498 49.4838 4.61642 52.1687 4.92202C54.7225 5.29666 55.426 6.98536 55.426 9.0272V17.851H52.125V9.09851C52.0768 8.15795 51.2558 7.80708 50.4739 7.7618C48.7064 7.64296 48.0713 9.19245 48.0713 10.0594V17.851H44.7647V9.09851C44.5754 8.20548 43.9874 7.78331 42.9501 7.7618C41.792 7.73691 40.7099 8.48958 40.7099 10.0594V17.851H37.4056ZM27.8704 5.13242H31.1747V7.59645H31.2207C31.4312 6.84377 31.5993 6.40348 32.753 5.60327C33.3186 5.18109 34.0747 4.76006 35.1119 4.92191V8.27555C33.6984 8.11143 31.5724 7.92354 31.1747 10.692V17.8509H27.8704V5.13242ZM21.7385 11.8668C20.7931 12.4304 19.5206 12.3829 18.6682 12.5481C17.6557 12.7349 16.9489 13.5781 17.2323 14.6092C17.4171 15.363 18.0096 15.8995 19.4221 15.6686C21.3856 15.363 21.7385 14.0003 21.7385 12.5945V11.8668ZM22.1137 17.8508C21.8751 17.5429 21.7385 17.0268 21.7609 16.5809C20.6072 17.6573 19.5912 18.3884 17.6557 18.3884C15.0626 18.3884 13.7857 16.9329 13.8786 14.4689C13.9548 12.6851 14.6605 10.9511 17.5862 10.4576C18.8139 10.4101 20.1356 10.1317 20.9129 9.87359C21.4999 9.65967 21.7822 9.04848 21.7385 8.43955C21.7385 7.64273 21.0765 7.2896 19.5688 7.2896C17.6781 7.2896 17.444 8.43955 17.3958 9.35521H14.2808C14.33 5.29643 17.8192 4.92179 19.5688 4.92179C20.8413 4.92179 21.9502 5.13232 22.5864 5.39038C23.86 5.90537 24.8748 6.93873 24.8748 8.95454V15.8995C24.8535 16.4643 25.1806 17.0268 25.6051 17.4015V17.8508H22.1137ZM0.651001 0.747681H3.95533V6.82453H4.00014C4.63636 5.71872 5.86513 4.92191 7.14093 4.92191C10.0655 4.92191 12.0448 6.14317 12.0448 9.33043V17.8509H8.74494V10.2959C8.74494 9.1663 8.59932 7.83073 6.3591 7.83073C4.35297 7.83073 3.95533 8.93428 3.95533 9.96538V17.8509H0.651001V0.747681ZM85.451 17.8721L95.5802 0.696411H96.2119L86.0514 17.8721H85.451ZM162.885 5.13242H166.188V7.05543H166.237C166.868 5.71872 168.097 4.92191 169.375 4.92191C172.299 4.92191 174.279 6.14317 174.279 9.33043V17.8509H170.98V10.2959C170.98 9.1663 170.833 7.83073 168.593 7.83073C166.587 7.83073 166.188 8.93428 166.188 9.96538V17.8509H162.885V5.13242ZM152.039 9.16687C151.776 9.66149 151.423 10.5964 151.423 11.6524C151.423 12.7107 151.776 13.6478 152.039 14.1402C152.652 15.1973 153.571 15.572 154.398 15.572C155.224 15.572 156.143 15.1973 156.755 14.1402C157.016 13.6478 157.371 12.7107 157.371 11.6524C157.371 10.5964 157.016 9.66149 156.755 9.16687C156.143 8.112 155.224 7.73736 154.398 7.73736C153.571 7.73736 152.652 8.112 152.039 9.16687ZM149.985 16.8396C148.716 15.6897 148.103 13.7214 148.103 11.6524C148.103 9.58904 148.716 7.62078 149.985 6.4697C151.118 5.43633 152.748 4.92247 154.398 4.92247C156.049 4.92247 157.677 5.43633 158.812 6.4697C160.08 7.62078 160.698 9.58904 160.698 11.6524C160.698 13.7214 160.08 15.6897 158.812 16.8396C157.677 17.8696 156.049 18.3891 154.398 18.3891C152.748 18.3891 151.118 17.8696 149.985 16.8396ZM137.65 9.1929C137.417 9.68638 137.083 10.6235 137.083 11.6796C137.083 12.7344 137.417 13.6716 137.65 14.1662C138.215 15.2211 139.088 15.5969 139.868 15.5969C140.623 15.5969 141.492 15.2211 142.063 14.1662C142.297 13.6716 142.629 12.7344 142.629 11.6796C142.629 10.6235 142.297 9.68638 142.063 9.1929C141.492 8.13916 140.623 7.76112 139.868 7.76112C139.088 7.76112 138.215 8.13916 137.65 9.1929ZM145.927 17.9183H142.629V16.5804H142.579C141.683 17.8956 140.388 18.3427 139.344 18.3891C137.039 18.4797 135.719 17.564 134.725 15.452C134.208 14.3043 133.828 13.1577 133.758 11.9116C133.687 10.67 133.924 9.33099 134.583 7.80753C135.666 5.34351 137.767 4.99378 138.969 4.92247C141.118 4.82853 142.111 5.79173 142.579 6.86811H142.629V0.748243H145.927V17.9183ZM125.359 5.13242H128.658V7.59645H128.712C128.923 6.84377 129.088 6.40348 130.245 5.60327C130.81 5.18109 131.561 4.76006 132.6 4.92191V8.27555C131.185 8.11143 129.06 7.92354 128.658 10.692V17.8509H125.359V5.13242ZM119.227 11.8668C118.281 12.4304 117.008 12.3829 116.155 12.5481C115.145 12.7349 114.436 13.5781 114.719 14.6092C114.905 15.363 115.498 15.8995 116.911 15.6686C118.873 15.363 119.227 14.0003 119.227 12.5945V11.8668ZM119.601 17.8508C119.363 17.5429 119.227 17.0268 119.249 16.5809C118.091 17.6573 117.079 18.3884 115.145 18.3884C112.545 18.3884 111.273 16.9329 111.37 14.4689C111.442 12.6851 112.149 10.9511 115.073 10.4576C116.299 10.4101 117.618 10.1317 118.4 9.87359C118.987 9.65967 119.27 9.04848 119.227 8.43955C119.227 7.64273 118.565 7.2896 117.057 7.2896C115.165 7.2896 114.932 8.43955 114.882 9.35521H111.769C111.816 5.29643 115.308 4.92179 117.057 4.92179C118.323 4.92179 119.433 5.13232 120.072 5.39038C121.347 5.90537 122.36 6.93873 122.36 8.95454V15.8995C122.336 16.4643 122.669 17.0268 123.092 17.4015V17.8508H119.601ZM102.186 0.747681V10.0831H102.234L106.36 5.13242H110.138L105.821 9.99029L110.417 17.8509H106.55L103.557 12.4068L102.186 13.8816V17.8509H98.8852V0.747681H102.186ZM71.4272 5.13242H74.7338V7.05543H74.7763C75.4182 5.71872 76.6413 4.92191 77.9183 4.92191C80.8429 4.92191 82.8221 6.14317 82.8221 9.33043V17.8509H79.5211V10.2959C79.5211 9.1663 79.3755 7.83073 77.1353 7.83073C75.1314 7.83073 74.7338 8.93428 74.7338 9.96538V17.8509H71.4272V5.13242ZM65.2697 11.8668C64.3244 12.4304 63.0508 12.3829 62.204 12.5481C61.1869 12.7349 60.479 13.5781 60.7635 14.6092C60.9517 15.363 61.5409 15.8995 62.9578 15.6686C64.9158 15.363 65.2697 14.0003 65.2697 12.5945V11.8668ZM65.6461 17.8508C65.4097 17.5429 65.2697 17.0268 65.291 16.5809C64.1339 17.6573 63.1225 18.3884 61.1869 18.3884C58.5939 18.3884 57.3214 16.9329 57.4144 14.4689C57.4861 12.6851 58.1917 10.9511 61.1164 10.4576C62.3451 10.4101 63.6657 10.1317 64.4442 9.87359C65.0356 9.65967 65.3179 9.04848 65.2697 8.43955C65.2697 7.64273 64.6066 7.2896 63.1012 7.2896C61.2093 7.2896 60.9752 8.43955 60.9271 9.35521H57.812C57.8602 5.29643 61.3549 4.92179 63.1012 4.92179C64.3725 4.92179 65.4814 5.13232 66.1177 5.39038C67.3946 5.90537 68.4061 6.93873 68.4061 8.95454V15.8995C68.3825 16.4643 68.7118 17.0268 69.1341 17.4015V17.8508H65.6461ZM37.4056 17.851V5.13254H40.7099V7.03404H40.7525C41.792 5.52869 42.7373 4.6617 44.6729 4.92202C46.297 5.13254 46.7496 5.69733 47.6893 6.77371C48.4902 5.6498 49.4838 4.61642 52.1687 4.92202C54.7225 5.29666 55.426 6.98536 55.426 9.0272V17.851H52.125V9.09851C52.0768 8.15795 51.2558 7.80708 50.4739 7.7618C48.7064 7.64296 48.0713 9.19245 48.0713 10.0594V17.851H44.7647V9.09851C44.5754 8.20548 43.9874 7.78331 42.9501 7.7618C41.792 7.73691 40.7099 8.48958 40.7099 10.0594V17.851H37.4056ZM27.8704 5.13242H31.1747V7.59645H31.2207C31.4312 6.84377 31.5993 6.40348 32.753 5.60327C33.3186 5.18109 34.0747 4.76006 35.1119 4.92191V8.27555C33.6984 8.11143 31.5724 7.92354 31.1747 10.692V17.8509H27.8704V5.13242ZM21.7385 11.8668C20.7931 12.4304 19.5206 12.3829 18.6682 12.5481C17.6557 12.7349 16.9489 13.5781 17.2323 14.6092C17.4171 15.363 18.0096 15.8995 19.4221 15.6686C21.3856 15.363 21.7385 14.0003 21.7385 12.5945V11.8668ZM22.1137 17.8508C21.8751 17.5429 21.7385 17.0268 21.7609 16.5809C20.6072 17.6573 19.5912 18.3884 17.6557 18.3884C15.0626 18.3884 13.7857 16.9329 13.8786 14.4689C13.9548 12.6851 14.6605 10.9511 17.5862 10.4576C18.8139 10.4101 20.1356 10.1317 20.9129 9.87359C21.4999 9.65967 21.7822 9.04848 21.7385 8.43955C21.7385 7.64273 21.0765 7.2896 19.5688 7.2896C17.6781 7.2896 17.444 8.43955 17.3958 9.35521H14.2808C14.33 5.29643 17.8192 4.92179 19.5688 4.92179C20.8413 4.92179 21.9502 5.13232 22.5864 5.39038C23.86 5.90537 24.8748 6.93873 24.8748 8.95454V15.8995C24.8535 16.4643 25.1806 17.0268 25.6051 17.4015V17.8508H22.1137ZM0.651001 0.747681H3.95533V6.82453H4.00014C4.63636 5.71872 5.86513 4.92191 7.14093 4.92191C10.0655 4.92191 12.0448 6.14317 12.0448 9.33043V17.8509H8.74494V10.2959C8.74494 9.1663 8.59932 7.83073 6.3591 7.83073C4.35297 7.83073 3.95533 8.93428 3.95533 9.96538V17.8509H0.651001V0.747681Z" fill="#395B6F"/>
</g>
<defs>
<clipPath id="clip0">
<rect x="0.398438" y="0.441162" width="177.651" height="29.7424" fill="white"/>
</clipPath>
</defs>
</svg>
