<svg width="147" height="34" viewBox="0 0 147 34" fill="none" xmlns="http://www.w3.org/2000/svg">
<path d="M5.48101 32.1364L7.74901 32.5557V32.8353H0V32.5557L2.268 32.1364V13.9665L0 13.5472V13.2677H7.74901V13.5472L5.48101 13.9665V32.1364Z" fill="#0C2E41"/>
<path d="M26.9107 14.2461L24.4537 13.5472V13.2677H30.1237V13.5472L27.6667 14.2461V33.1148H27.0997L14.2477 15.6438V31.8569L16.7047 32.5557V32.8353H11.0347V32.5557L13.4917 31.8569V14.1063L11.0347 13.5472V13.2677H16.1377L26.9107 27.9434V14.2461Z" fill="#0C2E41"/>
<path d="M31.3318 13.5472V13.2677H39.2698V13.5472L37.0018 13.9665L43.0498 28.6422L48.3418 14.2461L45.8848 13.5472V13.2677H51.5549V13.5472L49.0978 14.2461L42.1048 33.2546H41.5378L33.5998 13.9665L31.3318 13.5472Z" fill="#0C2E41"/>
<path d="M65.612 32.2762C65.612 31.4935 65.8262 30.7667 66.2546 30.0958C66.683 29.4249 67.2248 28.8472 67.8801 28.3627H68.2581C68.2077 28.6049 68.1699 28.8565 68.1447 29.1174C68.1195 29.341 68.0942 29.5833 68.069 29.8442C68.069 30.1051 68.069 30.3567 68.069 30.599C68.069 30.953 68.069 31.2698 68.069 31.5494C68.0942 31.8103 68.1195 32.0432 68.1447 32.2482C68.1699 32.4719 68.2077 32.6675 68.2581 32.8353H52.571V32.5557L54.839 32.1364V13.9665L52.571 13.5472V13.2677H67.8801C67.8297 13.4354 67.7918 13.6311 67.7666 13.8547C67.7414 14.0597 67.7163 14.302 67.6911 14.5815C67.6911 14.8424 67.6911 15.1499 67.6911 15.504C67.6911 15.7649 67.6911 16.0258 67.6911 16.2867C67.7163 16.529 67.7414 16.7619 67.7666 16.9855C67.7918 17.2464 67.8297 17.498 67.8801 17.7403H67.502C66.8468 17.2557 66.305 16.678 65.8766 16.0072C65.4482 15.3363 65.234 14.6095 65.234 13.8268H58.052V22.2129H61.643L63.344 19.697H63.722V25.2878H63.344L61.643 22.7719H58.052V32.2762H65.612Z" fill="#0C2E41"/>
<path d="M74.1882 16.9017C74.1882 17.6657 74.4906 18.3273 75.0954 18.8864C75.7002 19.4268 76.4562 19.93 77.3634 20.3959C78.2706 20.8618 79.2534 21.3183 80.3118 21.7656C81.3954 22.2129 82.3908 22.7253 83.298 23.3031C84.2052 23.8621 84.9612 24.5237 85.566 25.2878C86.1708 26.0518 86.4732 26.9836 86.4732 28.0831C86.4732 28.8099 86.2969 29.4901 85.944 30.1237C85.5912 30.7574 85.0872 31.3071 84.432 31.773C83.802 32.2389 83.046 32.6023 82.164 32.8632C81.282 33.1241 80.3244 33.2546 79.2912 33.2546C78.3336 33.2546 77.5146 33.18 76.8342 33.0309C76.1538 32.9005 75.5868 32.7421 75.1332 32.5557C74.604 32.3507 74.163 32.1178 73.8102 31.8569C73.6086 32.1364 73.3314 32.3973 72.9786 32.6396C72.651 32.8818 72.2982 33.0402 71.9202 33.1148H71.3532C71.3784 32.8539 71.4036 32.5744 71.4288 32.2762C71.454 32.0339 71.4792 31.7637 71.5044 31.4655C71.5296 31.1674 71.5422 30.8785 71.5422 30.599C71.5422 30.2822 71.5296 29.9747 71.5044 29.6765C71.4792 29.3597 71.454 29.0708 71.4288 28.8099C71.4036 28.5118 71.3784 28.2229 71.3532 27.9434H71.9202C72.4998 29.4901 73.3314 30.6735 74.415 31.4935C75.5238 32.2948 77.0232 32.6955 78.9132 32.6955C80.4252 32.6955 81.6474 32.3414 82.5798 31.6332C83.5374 30.9065 84.0162 29.9094 84.0162 28.6422C84.0162 27.8781 83.7138 27.2259 83.109 26.6854C82.5042 26.1264 81.7482 25.6139 80.841 25.148C79.9338 24.6821 78.9384 24.2255 77.8548 23.7783C76.7964 23.331 75.8136 22.8278 74.9064 22.2688C73.9992 21.6911 73.2432 21.0202 72.6384 20.2561C72.0336 19.492 71.7312 18.5603 71.7312 17.4607C71.7312 16.8271 71.895 16.2308 72.2226 15.6717C72.5502 15.1126 73.0038 14.6281 73.5834 14.2181C74.163 13.7895 74.8434 13.4541 75.6246 13.2118C76.4058 12.9695 77.25 12.8484 78.1572 12.8484C78.9132 12.8484 79.581 12.9229 80.1606 13.072C80.7402 13.2211 81.2316 13.3795 81.6348 13.5472C82.0884 13.7522 82.5042 13.9852 82.8822 14.2461C83.0838 13.9665 83.3484 13.7056 83.676 13.4634C84.0288 13.2211 84.3942 13.0627 84.7722 12.9882H85.3392C85.2888 13.2677 85.251 13.5472 85.2258 13.8268C85.2006 14.0877 85.1754 14.3672 85.1502 14.6654C85.1502 14.9449 85.1502 15.2244 85.1502 15.504C85.1502 15.8208 85.1502 16.1376 85.1502 16.4544C85.1754 16.7526 85.2006 17.0321 85.2258 17.293C85.251 17.5912 85.2888 17.88 85.3392 18.1596H84.7722C84.1926 16.6128 83.3862 15.4388 82.353 14.6374C81.3198 13.8174 80.0472 13.4075 78.5352 13.4075C77.3004 13.4075 76.2672 13.7243 75.4356 14.3579C74.604 14.9915 74.1882 15.8394 74.1882 16.9017Z" fill="#0C2E41"/>
<path d="M98.2698 32.1364L100.538 32.5557V32.8353H92.7888V32.5557L95.0568 32.1364V13.8268H91.0878C91.0878 14.6095 90.8736 15.3363 90.4452 16.0072C90.0168 16.678 89.475 17.2557 88.8198 17.7403H88.4418C88.467 17.498 88.4922 17.2464 88.5174 16.9855C88.5426 16.7619 88.5678 16.529 88.593 16.2867C88.6182 16.0258 88.6308 15.7649 88.6308 15.504C88.6308 15.1499 88.6182 14.8424 88.593 14.5815C88.5678 14.302 88.5426 14.0597 88.5174 13.8547C88.4922 13.6311 88.467 13.4354 88.4418 13.2677H104.885C104.834 13.4354 104.797 13.6311 104.771 13.8547C104.746 14.0597 104.721 14.302 104.696 14.5815C104.696 14.8424 104.696 15.1499 104.696 15.504C104.696 15.7649 104.696 16.0258 104.696 16.2867C104.721 16.529 104.746 16.7619 104.771 16.9855C104.797 17.2464 104.834 17.498 104.885 17.7403H104.507C103.852 17.2557 103.31 16.678 102.881 16.0072C102.453 15.3363 102.239 14.6095 102.239 13.8268H98.2698V32.1364Z" fill="#0C2E41"/>
<path d="M125.008 23.0515C125.008 24.766 124.743 26.2661 124.214 27.552C123.71 28.8192 123.03 29.8815 122.173 30.7387C121.341 31.5773 120.396 32.211 119.338 32.6396C118.279 33.0496 117.208 33.2546 116.125 33.2546C115.041 33.2546 113.97 33.0496 112.912 32.6396C111.853 32.211 110.896 31.5773 110.039 30.7387C109.207 29.8815 108.527 28.8192 107.998 27.552C107.494 26.2661 107.242 24.766 107.242 23.0515C107.242 21.337 107.494 19.8461 107.998 18.5789C108.527 17.293 109.207 16.2308 110.039 15.3922C110.896 14.5349 111.853 13.9013 112.912 13.4913C113.97 13.0627 115.041 12.8484 116.125 12.8484C117.208 12.8484 118.279 13.0627 119.338 13.4913C120.396 13.9013 121.341 14.5349 122.173 15.3922C123.03 16.2308 123.71 17.293 124.214 18.5789C124.743 19.8461 125.008 21.337 125.008 23.0515ZM121.417 23.0515C121.417 21.132 121.253 19.5479 120.925 18.2994C120.623 17.0321 120.207 16.0258 119.678 15.2804C119.174 14.5349 118.607 14.0131 117.977 13.715C117.347 13.4168 116.73 13.2677 116.125 13.2677C115.52 13.2677 114.903 13.4168 114.273 13.715C113.643 14.0131 113.063 14.5349 112.534 15.2804C112.03 16.0258 111.614 17.0321 111.286 18.2994C110.984 19.5479 110.833 21.132 110.833 23.0515C110.833 24.971 110.984 26.5643 111.286 27.8315C111.614 29.0801 112.03 30.0772 112.534 30.8226C113.063 31.568 113.643 32.0898 114.273 32.388C114.903 32.6862 115.52 32.8353 116.125 32.8353C116.73 32.8353 117.347 32.6862 117.977 32.388C118.607 32.0898 119.174 31.568 119.678 30.8226C120.207 30.0772 120.623 29.0801 120.925 27.8315C121.253 26.5643 121.417 24.971 121.417 23.0515Z" fill="#0C2E41"/>
<path d="M135.282 13.2677C136.895 13.2677 138.293 13.3981 139.478 13.659C140.662 13.9199 141.645 14.274 142.426 14.7213C143.207 15.1685 143.787 15.6903 144.165 16.2867C144.543 16.8644 144.732 17.4887 144.732 18.1596C144.732 18.7 144.619 19.1846 144.392 19.6132C144.19 20.0232 143.913 20.3959 143.56 20.7313C143.233 21.0481 142.842 21.3183 142.388 21.542C141.935 21.7656 141.481 21.952 141.028 22.101C139.944 22.4551 138.722 22.6788 137.361 22.7719C138.47 22.8651 139.478 23.0608 140.385 23.359C141.166 23.6199 141.897 24.0019 142.577 24.5051C143.258 25.0082 143.661 25.6884 143.787 26.5457L144.543 31.4376C144.593 31.7917 144.707 32.0432 144.883 32.1923C145.06 32.3414 145.261 32.4159 145.488 32.4159C145.614 32.4159 145.74 32.388 145.866 32.3321C146.017 32.2575 146.156 32.1737 146.282 32.0805C146.408 31.9873 146.521 31.8662 146.622 31.7171L147 31.9966C146.849 32.2389 146.635 32.4532 146.357 32.6396C146.131 32.7887 145.828 32.9284 145.45 33.0589C145.097 33.1893 144.669 33.2546 144.165 33.2546C143.308 33.2546 142.603 33.0775 142.048 32.7234C141.519 32.3507 141.217 31.9221 141.141 31.4376L140.385 26.5457C140.284 25.9121 140.12 25.3809 139.894 24.9523C139.667 24.5051 139.352 24.1417 138.949 23.8621C138.571 23.5826 138.079 23.3776 137.474 23.2471C136.87 23.1167 136.139 23.0515 135.282 23.0515H133.77V32.1364L136.038 32.5557V32.8353H128.289V32.5557L130.557 32.1364V13.9665L128.289 13.5472V13.2677H135.282ZM141.141 18.1596C141.141 16.7619 140.637 15.6903 139.629 14.9449C138.621 14.1995 137.172 13.8268 135.282 13.8268H133.77V22.4924H135.282C137.172 22.4924 138.621 22.1197 139.629 21.3743C140.637 20.6288 141.141 19.5573 141.141 18.1596Z" fill="#0C2E41"/>
<path d="M56.6667 6.55913L57.4476 6.70488V6.80206H54.7795V6.70488L55.5604 6.55913V0.194345H54.1938C54.1938 0.466427 54.12 0.719075 53.9725 0.952288C53.825 1.1855 53.6385 1.38632 53.4129 1.55476H53.2827C53.2914 1.47054 53.3001 1.38308 53.3087 1.29239C53.3174 1.21465 53.3261 1.13368 53.3348 1.04946C53.3435 0.958766 53.3478 0.868072 53.3478 0.777378C53.3478 0.654293 53.3435 0.547404 53.3348 0.456709C53.3261 0.359537 53.3174 0.275321 53.3087 0.204062C53.3001 0.126324 53.2914 0.0583034 53.2827 0H58.9443C58.927 0.0583034 58.914 0.126324 58.9053 0.204062C58.8966 0.275321 58.8879 0.359537 58.8793 0.456709C58.8793 0.547404 58.8793 0.654293 58.8793 0.777378C58.8793 0.868072 58.8793 0.958766 58.8793 1.04946C58.8879 1.13368 58.8966 1.21465 58.9053 1.29239C58.914 1.38308 58.927 1.47054 58.9443 1.55476H58.8142C58.5886 1.38632 58.402 1.1855 58.2545 0.952288C58.107 0.719075 58.0333 0.466427 58.0333 0.194345H56.6667V6.55913Z" fill="#0C2E41"/>
<path d="M68.7984 3.30386V6.55913L69.5793 6.70488V6.80206H66.9112V6.70488L67.6921 6.55913V0.242931L66.9112 0.0971721V0H69.5793V0.0971721L68.7984 0.242931V3.10951H71.4665V0.242931L70.6856 0.0971721V0H73.3537V0.0971721L72.5728 0.242931V6.55913L73.3537 6.70488V6.80206H70.6856V6.70488L71.4665 6.55913V3.30386H68.7984Z" fill="#0C2E41"/>
<path d="M86.004 6.60771C86.004 6.33563 86.0778 6.08298 86.2253 5.84977C86.3728 5.61656 86.5594 5.41573 86.785 5.2473H86.9151C86.8978 5.33152 86.8847 5.41897 86.8761 5.50967C86.8674 5.5874 86.8587 5.67162 86.85 5.76231C86.85 5.85301 86.85 5.94046 86.85 6.02468C86.85 6.14776 86.85 6.25789 86.85 6.35506C86.8587 6.44576 86.8674 6.52674 86.8761 6.598C86.8847 6.67573 86.8978 6.74375 86.9151 6.80206H81.5138V6.70488L82.2947 6.55913V0.242931L81.5138 0.0971721V0H86.785C86.7676 0.0583034 86.7546 0.126324 86.7459 0.204062C86.7372 0.275321 86.7286 0.359537 86.7199 0.456709C86.7199 0.547404 86.7199 0.654293 86.7199 0.777378C86.7199 0.868072 86.7199 0.958766 86.7199 1.04946C86.7286 1.13368 86.7372 1.21465 86.7459 1.29239C86.7546 1.38308 86.7676 1.47054 86.785 1.55476H86.6548C86.4292 1.38632 86.2427 1.1855 86.0951 0.952288C85.9476 0.719075 85.8739 0.466427 85.8739 0.194345H83.401V3.10951H84.6374L85.2231 2.23496H85.3533V4.17841H85.2231L84.6374 3.30386H83.401V6.60771H86.004Z" fill="#0C2E41"/>
</svg>
