<svg width="178" height="76" viewBox="0 0 178 76" fill="none" xmlns="http://www.w3.org/2000/svg">
<path fill-rule="evenodd" clip-rule="evenodd" d="M50.1958 68.8301H177.644V71.698H50.1958V68.8301Z" fill="#1F3E63"/>
<path fill-rule="evenodd" clip-rule="evenodd" d="M50.2045 73.8489H177.644V75.2828H50.1958L50.2045 73.8489Z" fill="#ABB10B"/>
<path fill-rule="evenodd" clip-rule="evenodd" d="M16.2243 7.89209L15.4521 9.15389L16.0619 13.7924L16.2243 15.5414L15.9803 16.0708L22.1916 43.0934L29.2552 41.4664L29.8229 36.0941L25.0493 19.838L24.5463 18.4705L25.2771 10.2931V8.33907L16.2243 7.89209Z" fill="white"/>
<path fill-rule="evenodd" clip-rule="evenodd" d="M30.2306 22.8884L44.3962 35.9975L42.8181 42.0483L30.1937 36.1941L27.1211 24.7088" fill="#1F3E63"/>
<path fill-rule="evenodd" clip-rule="evenodd" d="M45.4835 42.5986L38.2949 72.4725L38.4936 73.2179L39.2095 72.8851L47.0383 42.3372L48.5574 41.329L48.5853 39.0331L46.5295 38.4817L45.0227 39.6527L45.2427 41.9233L45.4835 42.5986Z" fill="#1F3E63"/>
<path fill-rule="evenodd" clip-rule="evenodd" d="M44.2544 36.3862L46.4591 36.8027L48.4404 37.7882L48.9044 39.0947L48.742 41.0591L48.3206 41.8584L47.3782 42.0413L47.7633 41.0714L47.1031 39.8194L45.4635 39.6987L46.1283 40.9553L47.2416 41.4691L47.3782 42.0413L46.05 42.1179L44.3088 41.2583L43.1729 40.4383L44.2544 36.3862Z" fill="white"/>
<path fill-rule="evenodd" clip-rule="evenodd" d="M44.2544 36.3862L46.4591 36.8027L48.4404 37.7882L48.9044 39.0947L48.742 41.0591L48.3206 41.8584L47.3782 42.0413L47.7633 41.0714L47.1031 39.8194L45.4635 39.6987L46.1283 40.9553L47.2416 41.4691L47.3782 42.0413L46.05 42.1179L44.3088 41.2583L43.1729 40.4383L44.2544 36.3862Z" stroke="#1F3E63" stroke-width="0.344"/>
<path fill-rule="evenodd" clip-rule="evenodd" d="M45.1736 41.6858L42.8732 40.7957L42.811 40.3572L45.1736 41.6858Z" fill="#1F3E63"/>
<path fill-rule="evenodd" clip-rule="evenodd" d="M38.3677 39.7304L40.6849 32.8362L44.1116 36.3141L42.6371 41.6247L38.3677 39.7304Z" fill="white"/>
<path fill-rule="evenodd" clip-rule="evenodd" d="M25.3379 8.73488L15.9803 8.91393L25.5716 9.7826L27.4694 8.5422L28.4727 9.83255L25.3114 10.9536L24.6712 18.8221L23.4511 19.4002L18.4503 17.4241L23.7987 18.8221L23.7437 16.1973L24.2065 15.0893L21.8783 15.7277L21.2983 14.6825L22.2828 15.0296L24.5547 13.7555L23.6259 11.8839V10.7207L17.3454 9.90651L17.9849 12.6409L16.937 11.5919L16.069 12.3497L16.9998 14.5658L16.181 15.7932L15.2547 12.5547L12.4604 9.72356L13.4462 8.33071L15.7764 8.50328L15.1369 0.406345L25.8829 0.111816L25.3379 8.73488Z" fill="#1F3E63"/>
<path fill-rule="evenodd" clip-rule="evenodd" d="M25.0494 19.8381L30.1939 22.8119L31.3318 50.7915L29.4114 51.4084L28.8858 67.1397L28.1776 67.8144L29.9085 70.519L32.5196 73.7828L31.3577 74.5425L27.753 73.319L25.3115 71.3981V72.2097L23.2765 71.16L22.7548 68.0713L22.459 68.0143L19.9599 52.2816H19.0563L15.6898 67.6192L15.3461 67.9669L14.8251 70.0656L13.8341 71.8152V70.8382L12.0334 73.7524L9.46046 75.9561L8.29602 75.4884L8.8928 71.4104L9.82099 67.8534L9.23909 66.9756L8.79571 51.5752L7.34388 51.3455L6.29789 41.556L0.769531 33.4513L7.46039 20.5699L16.1811 15.7932L22.5451 42.2573L25.6837 38.0599L28.6948 40.9871L29.346 37.43L25.0494 19.8381Z" fill="#1F3E63"/>
<path fill-rule="evenodd" clip-rule="evenodd" d="M21.7063 19.554L19.6719 22.6666L20.8913 25.3459L22.5205 21.5002L25.3116 24.3546L25.4844 22.3163L22.5205 19.8102L21.7063 19.554Z" fill="#1F3E63"/>
<path fill-rule="evenodd" clip-rule="evenodd" d="M22.8743 11.2988L22.9404 10.9537L20.537 10.833L20.4399 12.4698L22.6679 12.5269L22.8743 11.6517H23.6789V11.243L22.8743 11.2988ZM22.3222 12.2816L20.7578 12.1889L20.8982 11.099L22.5125 11.2138L22.3222 12.2816Z" fill="#1F3E63"/>
<path fill-rule="evenodd" clip-rule="evenodd" d="M22.8743 11.2988L22.9404 10.9537L20.537 10.833L20.4399 12.4698L22.6679 12.5269L22.8743 11.6517H23.6789V11.243L22.8743 11.2988ZM22.3222 12.2816L20.7578 12.1889L20.8982 11.099L22.5125 11.2138L22.3222 12.2816Z" stroke="#1F3E63" stroke-width="0.189"/>
<path fill-rule="evenodd" clip-rule="evenodd" d="M10.1108 68.2576L10.8707 69.2495L14.0087 68.3179L10.7128 69.6069L10.1108 68.2576Z" fill="white"/>
<path fill-rule="evenodd" clip-rule="evenodd" d="M24.4985 68.5364L27.5174 68.975L28.1006 67.9539L27.3452 68.5364H24.4985Z" fill="white"/>
<path fill-rule="evenodd" clip-rule="evenodd" d="M23.8647 26.1082C23.8647 26.3379 23.6789 26.5228 23.451 26.5228C23.2219 26.5228 23.0381 26.3379 23.0381 26.1082C23.0381 25.8792 23.2219 25.6885 23.451 25.6885C23.6789 25.6885 23.8647 25.8792 23.8647 26.1082Z" fill="#1F3E63"/>
<path fill-rule="evenodd" clip-rule="evenodd" d="M24.8254 30.6584C24.8254 30.8907 24.6409 31.0749 24.4099 31.0749C24.1794 31.0749 23.9937 30.8907 23.9937 30.6584C23.9937 30.4301 24.1794 30.2419 24.4099 30.2419C24.6409 30.2419 24.8254 30.4301 24.8254 30.6584Z" fill="#1F3E63"/>
<path fill-rule="evenodd" clip-rule="evenodd" d="M25.7808 35.2062C25.7808 35.4359 25.5951 35.6169 25.3705 35.6169C25.1387 35.6169 24.9536 35.4359 24.9536 35.2062C24.9536 34.9733 25.1387 34.791 25.3705 34.791C25.5951 34.791 25.7808 34.9733 25.7808 35.2062Z" fill="#1F3E63"/>
<path fill-rule="evenodd" clip-rule="evenodd" d="M9.79297 32.7966L11.2202 36.351L13.4688 39.6693L12.672 40.5672L14.1737 44.2352L15.4424 45.4613L20.0283 43.8647L16.5783 29.8208L9.79297 32.7966Z" fill="#ABB10B"/>
<path fill-rule="evenodd" clip-rule="evenodd" d="M15.5434 29.8481L19.1041 43.1214L15.146 30.3269" fill="#1F3E63"/>
<path fill-rule="evenodd" clip-rule="evenodd" d="M12.6029 46.4423L4.868 48.8693L0.368164 36.4349L2.22584 35.6687L6.29395 41.556L9.00796 45.0054L10.3905 43.7708L12.6029 46.4423Z" fill="#ABB10B"/>
<path fill-rule="evenodd" clip-rule="evenodd" d="M11.2015 36.7935L6.19873 41.55L8.98653 45.2323L10.1976 44.047L11.296 45.9465L12.7828 46.8366L14.144 46.9592L14.1602 46.5577L12.8041 46.2936L12.0701 45.3867L13.2262 46.2456L14.8567 46.568L14.9143 46.0374L13.5873 45.5015L12.6961 44.5537L13.9077 45.4717L15.2152 45.977L15.8988 45.9621L16.1829 45.3328L15.8657 45.4412L14.7104 44.6393L13.6696 42.5893L15.0055 43.362L15.7816 43.5079L16.3357 42.9779L14.9143 41.9321L13.7304 40.9584L12.841 40.4783L13.4009 39.7686L11.2015 36.7935Z" fill="white"/>
<path fill-rule="evenodd" clip-rule="evenodd" d="M11.2015 36.7935L6.19873 41.55L8.98653 45.2323L10.1976 44.047L11.296 45.9465L12.7828 46.8366L14.144 46.9592L14.1602 46.5577L12.8041 46.2936L12.0701 45.3867L13.2262 46.2456L14.8567 46.568L14.9143 46.0374L13.5873 45.5015L12.6961 44.5537L13.9077 45.4717L15.2152 45.977L15.8988 45.9621L16.1829 45.3328L15.8657 45.4412L14.7104 44.6393L13.6696 42.5893L15.0055 43.362L15.7816 43.5079L16.3357 42.9779L14.9143 41.9321L13.7304 40.9584L12.841 40.4783L13.4009 39.7686L11.2015 36.7935Z" stroke="#1F3E63" stroke-width="0.344"/>
<path fill-rule="evenodd" clip-rule="evenodd" d="M8.61131 41.667C8.61131 41.9894 8.35499 42.2457 8.03653 42.2457C7.71937 42.2457 7.4624 41.9894 7.4624 41.667C7.4624 41.3543 7.71937 41.0955 8.03653 41.0955C8.35499 41.0955 8.61131 41.3543 8.61131 41.667Z" fill="#1F3E63"/>
<path fill-rule="evenodd" clip-rule="evenodd" d="M25.3378 11.2137L24.0335 11.0989L23.9448 11.6185L24.082 12.3678L25.2944 12.3496L25.3378 11.2137Z" fill="white"/>
<path fill-rule="evenodd" clip-rule="evenodd" d="M23.8954 10.9685L23.8501 11.7969L24.0391 12.3925L25.4307 12.4535L25.144 12.1944L24.1465 12.1032L24.1317 11.2287L25.2405 11.287L25.1379 12.1865L25.4307 12.4535L25.5718 10.9685H23.8954Z" fill="#1F3E63"/>
<path fill-rule="evenodd" clip-rule="evenodd" d="M47.9795 38.2053L48.5853 39.0331L48.742 41.0591" fill="white"/>
<path d="M47.9795 38.2053L48.5853 39.0331L48.742 41.0591" stroke="#1F3E63" stroke-width="0.344"/>
<path fill-rule="evenodd" clip-rule="evenodd" d="M40.584 39.3114C40.584 39.6241 40.3335 39.8745 40.0189 39.8745C39.7127 39.8745 39.4629 39.6241 39.4629 39.3114C39.4629 38.9994 39.7127 38.7483 40.0189 38.7483C40.3335 38.7483 40.584 38.9994 40.584 39.3114Z" fill="#1F3E63"/>
<path fill-rule="evenodd" clip-rule="evenodd" d="M10.2324 44.0472L12.8798 40.4785L10.2324 44.0472Z" fill="white"/>
<path d="M10.2324 44.0472L12.8798 40.4785" stroke="#00324F" stroke-width="0.344"/>
<path fill-rule="evenodd" clip-rule="evenodd" d="M135.826 54.063C137.555 53.3591 138.448 51.95 138.448 50.0797C138.448 47.5327 136.041 45.7993 133.447 46.1788C132.285 46.3144 131.447 46.3144 130.446 46.3144C130.411 46.3125 127.095 46.317 127.095 46.317V47.1188H128.257C128.58 47.1188 128.905 47.1811 129.067 47.3972C129.635 47.9116 129.69 49.6197 129.69 51.0826V59.6168C129.69 61.0259 129.418 61.7298 128.419 61.7298H126.905V62.444H134.447V61.7239H133.501C131.906 61.6701 131.555 60.7768 131.555 59.4501V54.6858H133.609C134.052 55.3676 134.623 56.209 135.282 57.1231C136.503 58.6418 139.119 61.6351 142.661 64.2787L142.853 64.1691C139.934 61.0797 137.502 57.4494 135.826 54.063ZM132.662 53.9546C132.338 53.9008 131.96 53.9008 131.609 53.8456V47.2888C131.636 47.2888 132.662 47.2343 133.177 47.2343C135.933 47.2343 136.609 49.754 136.609 50.7304C136.609 52.735 135.069 53.9008 132.662 53.9546ZM76.7079 56.8538C75.6419 53.8573 73.1499 46.5551 73.0172 46.1606L70.6436 46.8211C70.3511 50.2652 68.3154 55.6647 66.6254 59.9146C66.193 61.0259 65.4098 61.6818 64.246 61.7356C64.2382 61.7337 64.2311 61.7317 64.2233 61.7298H63.6783V62.4577H70.1116V61.7408H69.0831C69.0746 61.7415 69.0662 61.7434 69.0585 61.7441C68.274 61.6896 67.5827 61.5669 67.5704 60.9442C67.5658 60.7132 67.6183 60.5231 67.7328 60.2409L69.1128 56.6378H74.4917L75.816 60.6198C75.8555 60.7307 75.8697 60.8585 75.8697 60.9935C75.8697 61.6442 75.1933 61.7214 74.7603 61.7214L74.7189 61.7194V61.7201H73.3285V62.4577H80.411V61.7298H79.1947C78.1954 61.7298 77.772 59.8504 76.7079 56.8538ZM69.4902 55.6349C69.4902 55.6349 70.8249 51.867 71.6521 48.4008C72.4631 50.8731 74.1124 55.6349 74.1124 55.6349H69.4902ZM122.959 59.585V49.6197C122.959 49.512 122.957 49.4394 122.957 49.2954C122.957 48.1283 123.202 47.1098 124.473 47.1098H125.581V46.3689H118.443V47.1188H119.471C119.876 47.1188 120.201 47.15 120.418 47.2038C121.094 47.3122 121.094 48.2807 121.094 49.6068V59.6713C121.094 60.7281 120.823 61.7071 119.66 61.7071H118.443V62.4479H125.742V61.7298H124.473C122.959 61.7298 122.959 61.0752 122.959 59.585ZM59.2452 53.6835C59.1371 53.6835 59.0833 53.5206 59.029 53.4129C59.0833 53.2507 59.1371 53.1424 59.1908 53.1424C60.5954 52.4645 61.1371 51.0288 61.1371 49.9169C61.1371 47.3971 58.5959 45.9634 56.3803 46.1788C55.0547 46.2327 54.109 46.3144 52.7847 46.3689C52.7621 46.367 52.7368 46.365 52.7135 46.3637H50.0552V47.1266H51.1083C51.6222 47.1266 51.8928 47.1811 52.0552 47.3972C52.6488 47.9116 52.7847 49.6197 52.7847 51.0826V60.2915C52.7847 61.1842 52.4339 61.7668 51.4869 61.7668H50.0552V62.4479H53.0812V62.4577C54.6288 62.4888 55.702 62.8035 57.4334 62.8035C60.9209 62.7483 62.6239 60.5277 62.4621 57.7089C62.4084 56.0838 61.7054 54.1168 59.2452 53.6835ZM54.5414 47.3433H55.6508C57.3253 47.3433 58.9209 48.0757 59.029 50.188C59.1371 51.8955 57.7577 53.4129 56.056 53.4129H54.5414V47.3433ZM57.1635 61.8556C55.7589 61.8556 54.5414 61.5734 54.5414 60.3545V54.3601H56.2722C58.5959 54.3601 60.462 55.6504 60.5164 58.3051C60.5416 60.6892 59.0833 61.8011 57.1635 61.8556ZM113.445 48.4008C114.201 47.4789 114.553 47.2038 115.66 47.2038H116.093V46.4325H109.957V47.1811H110.821C111.498 47.1811 111.768 47.5327 111.768 48.0219C111.768 48.4007 111.66 48.753 111.389 49.0242L107.064 54.4684C108.055 55.7049 109.102 56.885 110.171 58.043C111.672 59.526 114.302 62.204 117.619 64.2346L117.877 64.1035C114.661 60.9883 111.877 57.2872 109.334 53.5751L113.445 48.4008ZM94.1655 46.4111L94.148 47.1318H95.8737C96.5481 47.1318 96.9268 47.4244 96.9268 48.6985L97.442 59.3457C92.5926 52.735 87.0054 47.3725 85.9341 46.3637H83.7418C83.7218 46.365 83.7017 46.367 83.6816 46.3689C83.6635 46.367 83.6441 46.365 83.624 46.3637H81.4919V47.1266H82.6279C83.6816 47.1266 83.8706 47.6411 83.8706 48.6985V59.7116C83.8706 60.8228 83.7625 61.7168 82.4117 61.7168H81.4647V62.4655H88.1692V61.7298H87.0067C85.3044 61.7298 85.1419 60.3493 85.1419 58.804L85.0875 48.6447L85.1166 48.6791C85.1613 48.7219 92.3946 55.8438 97.7663 63.1667H98.387L98.4414 48.5091C98.4414 47.6411 98.6569 47.1098 99.6039 47.1098H100.821V46.4111H94.1655ZM106.686 59.6979V57.8023V48.9703C106.686 48.2892 106.739 47.6949 107.226 47.3972C107.604 47.2343 108.011 47.1188 108.443 47.1188H109.01V46.3637H102.361V47.1188H103.253C103.577 47.1188 103.847 47.1811 104.01 47.2343C104.632 47.3972 104.74 48.343 104.74 49.6697V59.6713C104.74 60.7281 104.578 61.7071 103.306 61.7071H102.091V62.4655H109.442V61.7298H107.903C106.794 61.7298 106.686 60.7132 106.686 59.6979Z" fill="#1F3E63"/>
<path fill-rule="evenodd" clip-rule="evenodd" d="M158.559 50.0797C158.559 47.5327 156.154 45.7993 153.558 46.1788C152.502 46.3027 151.708 46.3118 150.823 46.3125V46.317H147.205V47.1188H148.369C148.693 47.1188 149.018 47.1811 149.18 47.3972C149.746 47.9116 149.801 49.6197 149.801 51.0826V59.6168C149.801 61.0259 149.532 61.7298 148.531 61.7298H147.016V62.444H154.558V61.7239H153.612C152.017 61.6701 151.666 60.7145 151.666 59.3865V54.6858H153.72C154.145 55.3371 154.683 56.1324 155.303 57.0005C156.478 58.4763 159.14 61.5605 162.778 64.2761L162.965 64.169C160.047 61.0797 157.613 57.4494 155.936 54.063C157.667 53.3591 158.559 51.95 158.559 50.0797ZM152.775 53.9546C152.449 53.9008 152.071 53.9008 151.72 53.8456V48.537C151.715 48.5915 151.699 48.6336 151.699 48.6933V47.2194H153.273C153.273 47.2194 153.187 47.2213 153.065 47.2376C153.147 47.2369 153.222 47.2343 153.288 47.2343C156.046 47.2343 156.721 49.754 156.721 50.7304C156.721 52.735 155.18 53.9008 152.775 53.9546ZM171.276 46.4208V47.1727H172.438C173.764 47.1727 174.439 47.2343 174.439 50.7304V55.4182C174.439 60.0229 172.546 61.892 169.275 61.7836C166.41 61.7298 164.356 60.0768 164.356 56.2311V49.6197C164.356 48.1841 164.356 47.1188 165.788 47.1188H167.006V46.3689H160.329V47.1266H160.978C162.463 47.0189 162.463 48.2924 162.463 50.6752V56.34C162.463 61.6753 165.356 62.9494 169.114 63.059C173.006 63.1667 175.818 61.0259 175.818 55.9054V49.6197C175.818 48.1302 175.872 47.1727 177.142 47.1727H177.926V46.4208H171.276Z" fill="#ABB10B"/>
</svg>
