<svg width="148" height="39" viewBox="0 0 148 39" fill="none" xmlns="http://www.w3.org/2000/svg">
<g clip-path="url(#clip0)">
<path d="M20.4155 38.1525C19.7617 37.6735 19.7759 37.5486 21.0644 32.4533C21.7889 29.5881 22.4571 26.3334 22.5492 25.2207L22.7167 23.1975L20.9907 26.5526C17.9162 32.5286 15.6523 35.4304 12.7222 37.1507C10.8859 38.2289 7.48399 38.5918 5.20552 37.9527C0.560058 36.6496 -1.09837 30.4216 2.3517 27.2354C4.42943 25.3167 10.3723 26.0853 9.70656 28.1867C9.48721 28.8791 9.30755 28.9349 7.9525 28.7313C6.63195 28.5329 6.33174 28.6158 5.55624 29.3927C4.87035 30.0799 4.66967 30.6311 4.66967 31.8277C4.66967 33.1288 4.83894 33.5172 5.73552 34.273C7.57388 35.8228 10.3984 35.3143 12.6738 33.024C14.2459 31.4417 16.9514 26.46 20.4155 18.7693C24.0147 10.7787 26.1812 6.46498 28.063 3.5425C29.7687 0.893453 30.0394 0.669312 31.1855 0.957498C32.4833 1.28384 32.551 2.4546 31.4186 4.98847C29.2831 9.76683 27.7479 15.3831 27.3424 19.9003L27.1088 22.5034L30.4948 17.6444C34.792 11.478 37.2757 8.39108 41.1763 4.36885C43.6658 1.80175 44.4873 1.15842 45.276 1.15842C46.5165 1.15842 46.8875 2.01565 46.165 3.21254C45.8675 3.70534 44.1116 6.60746 42.2631 9.6617C35.4113 20.9824 32.3093 29.293 33.4088 33.3838C33.8819 35.144 34.6788 35.4261 36.6179 34.5199C38.7329 33.5314 39.8037 32.4274 41.0537 29.9466C43.3394 25.4101 47.8732 21.9828 51.5884 21.9828C52.5635 21.9828 53.6729 22.2015 54.0538 22.4687C54.6473 22.8852 54.841 22.8852 55.4095 22.4687C56.274 21.8354 57.8217 21.847 58.355 22.4908C58.6968 22.9035 58.4171 23.7015 56.8649 26.7425C55.8139 28.8014 54.5935 31.139 54.1529 31.937C53.7123 32.7351 53.4584 33.4948 53.5887 33.6252C54.3816 34.4197 57.9629 30.6045 61.6086 25.0815C62.8689 23.1722 62.8784 23.1315 62.3574 21.8822C61.6802 20.2585 61.679 17.034 62.3551 15.7241C62.923 14.6239 64.4675 13.653 65.6497 13.653C66.0549 13.653 66.8421 14.1096 67.3991 14.6676C68.2258 15.4959 68.4117 15.9762 68.4117 17.2844C68.4117 18.2019 68.1155 19.4684 67.7188 20.2474C66.8067 22.0387 66.8266 22.106 68.2011 21.8826C69.6238 21.6513 70.8366 22.3864 70.8366 23.4799C70.8366 23.9013 69.7362 25.6426 68.3815 27.3648C63.7965 33.1938 63.0562 36.1176 66.5339 34.6618C68.8003 33.713 69.9476 32.5811 75.3418 25.9721C79.2703 21.1588 80.7726 19.5533 81.3476 19.5533C82.2333 19.5533 83.6543 20.4546 83.6543 21.0165C83.6543 21.2269 83.0056 22.26 82.2126 23.3122L80.771 25.2253L81.2309 26.8144C81.4838 27.6885 81.7586 29.0674 81.8414 29.8787C81.9242 30.69 82.0684 31.3537 82.1618 31.3537C82.2553 31.3537 83.2292 30.723 84.3262 29.9521C85.9175 28.8337 86.5005 28.1498 87.2107 26.5681C91.0944 17.9186 94.1723 11.2708 94.5964 10.6162C95.195 9.69217 97.177 9.53412 97.8579 10.3561C98.3177 10.9111 98.3098 10.9337 94.6135 19.6489L93.0274 23.3888L94.5203 22.5123C96.1577 21.5509 97.4315 21.4004 98.2668 22.0696C99.0538 22.7 99.5984 24.622 99.3536 25.9044C99.1324 27.0633 97.4981 30.4708 95.9494 33.0023C95.4108 33.8828 95.2151 34.4774 95.464 34.4774C96.3991 34.4774 98.8439 31.9902 99.7671 30.0996C100.98 27.615 104.73 23.7737 107.038 22.6516C109.226 21.5877 111.995 21.5013 113.057 22.4639C113.685 23.0333 113.806 23.0487 113.984 22.582C114.421 21.4422 117.604 21.6267 117.604 22.7918C117.604 23.0553 116.513 25.3808 115.179 27.9597C113.845 30.5386 112.754 32.9869 112.754 33.4003C112.754 34.7271 113.704 34.617 115.539 33.0773C116.949 31.8947 117.624 30.9171 118.98 28.0959C122.353 21.0762 127.472 14.6098 132.149 11.4617C134.872 9.62856 137.35 9.81902 137.35 11.8615C137.35 12.9456 135.107 17.7918 133.566 20.0344C131.993 22.3259 128.47 25.628 125.2 27.8767C121.607 30.348 121.47 30.504 121.206 32.4309C120.949 34.3099 121.837 35.402 123.318 35.0296C124.862 34.6411 128.036 31.0193 130.061 27.3332C132.727 22.4826 134.051 20.4221 136.257 17.695C138.566 14.8391 143.495 10.6808 144.949 10.3607C146.368 10.0485 147.355 10.4184 147.589 11.3496C147.833 12.3249 146.461 16.1522 144.929 18.7692C143.488 21.2304 138.721 26.0214 135.171 28.5772C132.382 30.5847 131.795 31.6093 132.293 33.5974C132.936 36.1631 135.892 35.0915 139.133 31.1182C141.015 28.8101 141.31 28.5779 141.771 29.0397C142.52 29.7903 142.131 30.8266 140.077 33.5524C138.133 36.1334 135.483 38.1193 133.509 38.4747C131.334 38.8662 129.02 37.3463 128.233 35.0095C128.171 34.825 127.585 35.1789 126.932 35.7959C125.29 37.3476 122.58 38.6423 120.973 38.6423C119.95 38.6423 119.388 38.4005 118.617 37.6278C118.06 37.0698 117.604 36.2889 117.604 35.8924C117.604 35.4959 117.519 35.1715 117.416 35.1715C117.312 35.1715 116.416 35.7854 115.424 36.5357C112.376 38.8404 110.785 39.0182 109.329 37.2169L108.746 36.4951L107.546 37.2024C106.885 37.5915 105.602 38.0758 104.695 38.2786C102.772 38.7082 101.32 38.253 99.9857 36.8029L99.1691 35.9153L97.7932 36.9138C95.6929 38.4382 94.3104 38.7966 93.05 38.1436C91.7464 37.4682 90.9268 36.3189 90.9374 35.1811C90.9419 34.6986 91.8772 32.5178 93.0159 30.3349C94.1546 28.1519 95.0863 26.2387 95.0863 26.0832C95.0863 25.4169 94.0946 25.9197 92.3408 27.4752C90.7131 28.9189 90.1998 29.72 88.5083 33.4573C86.2749 38.3919 85.4387 39.2373 83.7409 38.277C82.7471 37.7148 82.5113 36.459 83.1326 35.0367C83.3206 34.6061 82.5583 34.9868 80.9106 36.146C76.761 39.0657 73.4183 39.3042 71.1248 36.8444L70.1988 35.8512L68.3526 36.9583C67.0326 37.7498 65.9425 38.1097 64.5284 38.221C62.6899 38.3656 62.4761 38.3022 61.4972 37.3214C60.7317 36.5545 60.4439 35.9397 60.4439 35.0713C60.4439 33.4053 62.4909 29.4821 64.5893 27.1264C65.689 25.8918 66.2023 25.0664 65.9626 24.918C65.4972 24.6298 65.6645 24.4388 62.3556 29.0373C58.7055 34.1101 56.6065 36.3382 54.4749 37.4024C52.3102 38.4831 50.8722 38.5368 49.8505 37.5752L49.0855 36.8552L47.6768 37.5752C45.8423 38.5128 43.3259 38.5225 41.812 37.5978C41.1864 37.2156 40.5863 36.6727 40.4785 36.3913C40.3204 35.9785 40.002 36.0732 38.8297 36.8812C36.363 38.5815 33.3678 38.9816 31.2613 37.8922C29.6506 37.0591 29.0543 33.4717 29.7129 28.5772L29.9697 26.6683L28.8859 28.5772C25.8808 33.87 22.2924 38.6423 21.3175 38.6423C21.1891 38.6423 20.7832 38.4219 20.4155 38.1525ZM76.9148 35.0138C77.6053 34.3221 77.7642 33.8163 77.7604 32.324C77.7549 30.1958 77.46 28.8524 77.0299 28.9968C76.4196 29.2018 73.608 32.9316 73.608 33.5363C73.608 34.2182 75.0781 35.8657 75.6866 35.8657C75.8944 35.8657 76.4471 35.4823 76.9148 35.0138ZM107.457 33.2685C110.336 30.7996 112.388 24.7561 110.442 24.4784C107.884 24.1134 103.044 29.6217 102.949 33.0079C102.879 35.4479 104.787 35.5582 107.457 33.2685ZM47.6787 33.8245C50.0247 32.334 51.958 29.2356 52.3556 26.3292C52.591 24.6081 52.1552 24.1564 50.6292 24.5401C47.456 25.3381 42.6947 32.5326 44.1652 34.3077C44.8114 35.0878 45.9332 34.9335 47.6787 33.8245ZM127.92 22.0696C130.395 19.6283 134.015 14.3472 133.213 14.3472C133.053 14.3472 131.69 15.6509 130.185 17.2443C127.559 20.0229 124.213 24.7594 124.875 24.7594C125.049 24.7594 126.42 23.549 127.92 22.0696ZM139.239 21.4622C140.946 19.8893 144.379 14.3472 143.646 14.3472C142.644 14.3472 135.618 23.2578 135.618 24.5291C135.618 24.7352 136.348 24.2076 137.24 23.3566C138.133 22.5055 139.032 21.6531 139.239 21.4622ZM65.6003 18.8249C65.9359 17.8604 65.6494 16.4296 65.1207 16.4296C64.6791 16.4296 64.2387 17.9967 64.4323 18.8795C64.7206 20.1949 65.1302 20.1758 65.6003 18.8249Z" fill="#395B6F"/>
</g>
<defs>
<clipPath id="clip0">
<rect x="0.512451" y="0.861328" width="147.105" height="37.7809" fill="white"/>
</clipPath>
</defs>
</svg>
