<svg width="188" height="63" viewBox="0 0 188 63" fill="none" xmlns="http://www.w3.org/2000/svg">
<path fill-rule="evenodd" clip-rule="evenodd" d="M160.53 28.2385L160.584 27.8969C160.61 27.7598 160.572 27.6166 160.484 27.5082C160.393 27.4018 160.262 27.3384 160.124 27.3384H157.68C157.454 27.3353 157.256 27.4959 157.213 27.7209L157.145 28.0923L154.534 42.4268C154.51 42.5649 154.552 42.7091 154.644 42.8165C154.737 42.9229 154.877 42.9863 155.018 42.9833L156.223 42.9649H157.357C157.583 42.9649 157.771 42.8063 157.816 42.5884L159.607 33.6919C160.199 31.4373 161.686 30.7662 163.001 30.5709C163.072 30.5617 163.338 30.5657 163.394 30.5289C162.492 35.9229 161.425 42.3092 161.407 42.4155C161.383 42.5506 161.423 42.6907 161.512 42.7981C161.6 42.9035 161.734 42.9649 161.868 42.9649H164.5C164.705 42.9649 164.888 42.8329 164.948 42.6334C165.032 42.3736 165.661 38.7084 166.039 36.507C167.014 37.9913 170.126 42.748 170.126 42.748C170.213 42.881 170.361 42.9597 170.519 42.9597L173.665 42.9649C173.722 42.9649 173.774 42.9516 173.827 42.9342C173.894 42.9649 173.968 42.9853 174.041 42.9833L176.697 42.9649C176.926 42.9638 177.119 42.7981 177.157 42.5761C177.157 42.5761 179.08 31.4158 179.206 30.6834C179.825 30.6824 182.255 30.6793 182.255 30.6793C182.483 30.6793 182.679 30.5136 182.719 30.2875L183.129 27.8877C183.134 27.8611 183.137 27.8365 183.137 27.8079C183.137 27.6995 183.098 27.591 183.028 27.5061C182.939 27.3997 182.807 27.3384 182.666 27.3384H179.663C179.809 26.4903 180.344 23.3611 180.344 23.3611C180.347 23.3335 180.35 23.3069 180.35 23.2814C180.35 23.1678 180.312 23.0604 180.24 22.9765C180.152 22.8681 180.018 22.8088 179.882 22.8088H177.242C177.014 22.8088 176.818 22.9745 176.779 23.1995C176.779 23.1995 176.191 26.697 176.082 27.3384C175.844 27.3455 175.597 27.3506 175.597 27.3506L175.186 27.3537L174.749 27.3455C174.581 27.3414 174.431 27.4284 174.344 27.5644C174.259 27.4345 174.117 27.3506 173.957 27.3506L171.54 27.3455H170.833C170.701 27.3455 170.578 27.4018 170.486 27.4969C170.486 27.4969 168.056 30.2957 166.764 31.7002C167.142 29.4753 168.184 23.3673 168.184 23.3673C168.187 23.3386 168.19 23.3141 168.19 23.2855C168.19 23.176 168.15 23.0676 168.078 22.9837C167.989 22.8753 167.858 22.8149 167.719 22.8149L165.09 22.8088C164.859 22.8077 164.661 22.9724 164.624 23.1985C164.563 23.5627 164.29 25.1881 163.924 27.3537C163.92 27.3465 163.917 27.3414 163.912 27.3353C163.819 27.2258 163.685 27.1685 163.542 27.1737C162.422 27.2064 161.411 27.6677 160.53 28.2385ZM173.701 41.6586C172.619 39.9114 169.456 34.811 169.178 34.3609C169.543 33.9271 173.394 29.2144 174.176 28.2917L173.83 30.1187C173.803 30.2578 173.842 30.4011 173.931 30.5074C174.021 30.6148 174.152 30.6793 174.294 30.6793H175.494C175.357 31.512 174.102 39.1912 173.701 41.6586ZM83.4175 35.5577C82.8686 37.4829 81.0539 39.315 79.283 39.7467C77.9286 39.9267 76.9347 39.7988 76.2422 39.3487C75.5131 38.8455 75.1475 37.9719 74.8644 37.1832C74.8155 36.9008 74.7901 36.6165 74.7901 36.3392C74.7901 34.5859 75.7239 32.896 77.4419 31.602C78.4297 30.9074 79.7708 30.6455 80.948 30.9166C81.612 31.0701 82.5204 31.467 83.0876 32.4981C83.4053 33.0576 83.5744 33.7665 83.5744 34.4581C83.5744 34.8406 83.5214 35.2161 83.4175 35.5577ZM70.0293 23.1842L69.4611 26.2837C69.4346 26.4218 69.4723 26.566 69.5619 26.6775C69.6515 26.7839 69.7839 26.8473 69.9275 26.8473H72.674C72.9 26.8473 73.0966 26.6857 73.1373 26.4586L73.6536 23.3867C73.676 23.2496 73.6393 23.1054 73.5518 22.998C73.4622 22.8906 73.3298 22.8272 73.1933 22.8261L70.4937 22.8036C70.2676 22.8016 70.0731 22.9632 70.0293 23.1842ZM64.0964 35.5577C64.1993 35.2161 64.2492 34.8406 64.2492 34.4581C64.2492 33.7665 64.0821 33.0576 63.7654 32.4981C63.1952 31.467 62.2878 31.0701 61.6228 30.9166C60.4487 30.6455 59.1045 30.9074 58.1167 31.602C56.4018 32.896 55.4649 34.5859 55.4649 36.3392C55.4649 36.6165 55.4914 36.9008 55.5402 37.1832C55.8233 37.9719 56.1889 38.8455 56.9191 39.3487C57.6116 39.7988 58.6065 39.9267 59.9588 39.7467C61.7308 39.315 63.5434 37.4829 64.0964 35.5577ZM41.5665 33.3461C42.6907 33.3359 48.0747 33.2847 48.8497 33.2776C48.7937 32.7538 48.5187 32.2628 47.9434 31.6838C47.3079 31.1376 46.4372 30.8808 45.2009 30.8737C43.8618 31.0619 42.2976 31.9467 41.5665 33.3461ZM151.942 35.5577C151.394 37.4829 149.581 39.315 147.808 39.7467C146.452 39.9267 145.458 39.7988 144.77 39.3487C144.039 38.8455 143.672 37.9719 143.389 37.1832C143.342 36.9008 143.314 36.6165 143.314 36.3392C143.314 34.5859 144.249 32.896 145.969 31.602C146.953 30.9074 148.298 30.6455 149.474 30.9166C150.137 31.0701 151.047 31.467 151.613 32.4981C151.928 33.0576 152.098 33.7665 152.098 34.4581C152.098 34.8406 152.046 35.2161 151.942 35.5577ZM4.16455 42.7224V42.4288C4.17881 42.3981 4.19714 42.3685 4.22056 42.3429L23.7902 19.6867C23.8584 19.611 23.9541 19.566 24.058 19.566H27.2179C27.3218 19.566 27.4216 19.6141 27.4898 19.6959C27.5407 19.7594 27.5703 19.8422 27.5703 19.9189C27.5703 19.9414 27.5652 19.968 27.5611 19.9916C27.5611 19.9916 25.1099 32.1513 24.6547 34.3506C26.1975 32.5994 37.5888 19.6867 37.5888 19.6867C37.654 19.608 37.7517 19.566 37.8505 19.566H40.8241C40.933 19.566 41.0359 19.6151 41.1031 19.7011C41.1693 19.787 41.1937 19.9005 41.1662 20.0049L38.045 32.7344C38.0705 32.6873 38.0929 32.6413 38.1163 32.5963C39.6021 29.6942 42.4249 27.6544 45.48 27.279C45.4891 27.277 45.5014 27.277 45.5136 27.277C48.2764 27.1358 50.4088 28.1864 51.6878 30.308C51.695 30.3192 51.7 30.3294 51.7082 30.3417C52.1675 31.2685 52.5096 32.5134 52.5707 33.7952C53.0921 32.2669 54.0188 30.8532 55.307 29.6604C57.4904 27.6207 60.1523 26.8177 62.8062 27.4028C62.8336 27.4089 62.8662 27.4202 62.8937 27.4314L63.1402 27.5378C63.7288 27.7925 64.3693 28.0749 64.9111 28.5628C65.1983 27.2064 66.0394 23.1842 66.0394 23.1842C66.0863 22.9663 66.2787 22.8088 66.5017 22.8088H68.9417C69.0833 22.8088 69.2156 22.8722 69.3053 22.9775C69.3949 23.086 69.4325 23.2292 69.4081 23.3673L65.849 42.6447C65.8062 42.8697 65.6117 43.0314 65.3836 43.0314L62.963 43.0242C62.8214 43.0242 62.687 42.9649 62.5974 42.8574C62.5261 42.7715 62.4884 42.6641 62.4884 42.5547C62.4884 42.525 62.4915 42.4953 62.4976 42.4677C62.4976 42.4677 62.5587 42.1445 62.5974 41.9307C60.6238 43.1541 58.6258 43.6308 56.7541 43.2902C54.6135 42.8626 52.6206 40.7604 52.2194 38.5079C52.1094 37.9044 52.0605 37.2998 52.0666 36.7044C51.9821 36.7812 51.8701 36.8272 51.7499 36.8272C51.7499 36.8272 41.043 36.8313 40.5104 36.8323C40.4982 36.8783 40.4911 36.9203 40.4911 36.9694C40.4911 37.1423 40.5501 37.3663 40.6275 37.622C40.6275 37.622 40.6601 37.7386 40.6754 37.7888C41.209 39.1053 42.4891 39.9308 43.9412 39.896C45.3853 39.8633 46.7234 39.1687 47.9118 37.8338C47.9994 37.7325 48.1287 37.6752 48.2611 37.6752H50.7672C50.9291 37.6752 51.0809 37.7591 51.1654 37.8972C51.253 38.0343 51.2642 38.2071 51.196 38.3534C49.7733 41.3578 46.5828 43.3761 43.2345 43.3761C40.9055 43.285 38.9503 42.1465 37.8617 40.2428C37.3199 39.228 37.0633 37.9688 37.0786 36.6799L35.6081 42.6774C35.5684 42.839 35.4248 42.9495 35.2629 42.9495H32.0928C31.9858 42.9495 31.883 42.8994 31.8178 42.8135C31.7659 42.749 31.7394 42.6713 31.7394 42.5946C31.7394 42.5649 31.7435 42.5393 31.7486 42.5117C32.9869 37.3335 34.7232 29.9735 35.3535 27.0611C33.8372 28.8441 21.9551 42.8032 21.9551 42.8032C21.8899 42.882 21.7932 42.926 21.6903 42.926L19.0121 42.9495C18.9041 42.9495 18.8043 42.9025 18.7361 42.8165C18.6852 42.7541 18.6567 42.6754 18.6567 42.5946C18.6567 42.57 18.6577 42.5444 18.6638 42.5199C19.7972 37.2804 21.3828 29.819 21.9408 26.9169C20.4795 28.6702 8.69518 42.8237 8.69518 42.8237C8.62695 42.9045 8.52206 42.9516 8.4131 42.9495C7.49862 42.9178 6.8092 42.9219 6.00878 42.926H4.48329C4.34684 42.9291 4.22158 42.8482 4.16455 42.7224ZM156.299 27.5082C156.211 27.4018 156.079 27.3384 155.938 27.3384H153.496C153.274 27.3384 153.08 27.4949 153.035 27.7138L152.846 28.6416C152.304 28.1536 151.763 27.8406 150.988 27.5378L150.745 27.4314C150.715 27.4202 150.686 27.4089 150.655 27.4028C148.003 26.8177 145.339 27.6207 143.157 29.6604C142.068 30.667 141.242 31.8342 140.695 33.0914L143.903 20.0049C143.93 19.9005 143.906 19.787 143.839 19.7011C143.773 19.6151 143.671 19.566 143.562 19.566H140.59C140.486 19.566 140.392 19.608 140.325 19.6867C140.325 19.6867 128.935 32.5994 127.392 34.3506C127.846 32.1513 130.387 19.9916 130.387 19.9916C130.387 19.968 130.393 19.9414 130.393 19.9189C130.393 19.8402 130.368 19.7594 130.315 19.6959C130.247 19.6141 130.146 19.566 130.042 19.566H126.757C126.654 19.566 126.557 19.611 126.491 19.6867L110.087 38.7145C109.812 35.9444 108.499 32.9277 108.499 32.9277C106.301 28.4032 101.41 26.9374 98.6357 29.5326L98.6164 29.5367L98.1815 29.8538C100.194 26.6284 105.299 26.7716 108.586 30.5698C108.586 30.5698 110.046 32.3334 111.083 34.9572C111.359 34.0305 111.528 33.0709 111.579 32.0899C109.868 29.7638 107.939 28.3981 107.939 28.3981C103.788 25.585 98.817 26.7737 97.706 30.4133L97.6917 30.4287L97.4768 30.9207C97.6123 27.1143 102.103 24.6767 106.839 26.3144C106.839 26.3144 109.068 27.1358 111.318 28.9577C111.288 28.8124 111.257 28.6672 111.217 28.5219C110.974 27.5603 110.622 26.6479 110.166 25.7988C107.541 24.6572 105.215 24.4444 105.215 24.4444C100.217 24.0956 96.5074 27.6156 97.3567 31.3278L97.3506 31.3473L97.4066 31.8833C95.6316 28.5178 98.3058 24.155 103.221 23.1913C103.221 23.1913 105.503 22.7934 108.31 23.2138C107.598 22.4589 106.786 21.7971 105.884 21.2385C103.071 21.57 100.972 22.5479 100.972 22.5479C96.4728 24.7534 95.0104 29.6686 97.594 32.4572L97.597 32.4735L97.9147 32.9134C94.7018 30.89 94.8475 25.763 98.6255 22.463C98.6255 22.463 100.391 20.9838 103.018 19.9374C101.934 19.611 100.811 19.4453 99.6775 19.4371C97.4819 21.1158 96.1998 22.9397 96.1998 22.9397C93.4004 27.1123 94.5817 32.1012 98.205 33.2193L98.2182 33.2315L98.7111 33.4515C94.9228 33.3144 92.4961 28.8032 94.1265 24.0455C94.1265 24.0455 94.877 21.9945 96.5328 19.8381C95.5848 20.0847 94.6876 20.4447 93.8464 20.8979C92.7772 23.4604 92.5776 25.6904 92.5776 25.6904C92.2283 30.712 95.7355 34.4386 99.4311 33.5865L99.4473 33.5916L99.985 33.5313C96.6337 35.3183 92.2863 32.63 91.3321 27.6903C91.3321 27.6903 90.9492 25.4838 91.3321 22.7341C90.5337 23.4941 89.8352 24.3667 89.2567 25.3405C89.6152 28.0503 90.5307 30.041 90.5307 30.041C92.7273 34.5634 97.6184 36.0303 100.393 33.4341L100.414 33.43L100.848 33.1139C98.8374 36.3392 93.7303 36.196 90.4462 32.3978C90.4462 32.3978 88.7618 30.2834 87.882 27.8222C87.883 27.7066 87.8484 27.5961 87.7771 27.5082C87.6864 27.4018 87.5541 27.3384 87.4115 27.3384H84.9725C84.7485 27.3384 84.556 27.4949 84.5092 27.7138C84.5092 27.7138 84.3218 27.9992 84.2353 28.5628C83.6935 28.0749 83.0519 27.7925 82.4654 27.5378L82.2179 27.4314C82.1894 27.4202 82.1578 27.4089 82.1293 27.4028C79.4786 26.8177 76.8156 27.6207 74.6322 29.6604C73.343 30.8532 72.4163 32.2669 71.8908 33.7952C71.8908 33.7952 71.8745 33.8341 71.846 33.8954L72.8837 27.8907C72.9061 27.7547 72.8685 27.6125 72.7788 27.5061C72.6872 27.3997 72.5548 27.3373 72.4163 27.3384L69.8134 27.3414C69.5853 27.3435 69.3908 27.5061 69.349 27.7332L66.6596 42.4677C66.6362 42.6058 66.6738 42.748 66.7635 42.8574C66.8521 42.9638 66.9855 43.0242 67.125 43.0242L69.8684 43.0314C70.1006 43.0314 70.2971 42.8646 70.3348 42.6365L71.3715 36.642C71.3827 36.6799 71.3918 36.7044 71.3918 36.7044C71.3827 37.2998 71.4316 37.9044 71.5426 38.5079C71.9458 40.7604 73.9347 42.8626 76.0783 43.2902C77.948 43.6308 79.948 43.1541 81.9216 41.9307C81.8829 42.1445 81.8208 42.4677 81.8208 42.4677C81.8157 42.4953 81.8136 42.525 81.8136 42.5547C81.8136 42.6641 81.8513 42.7715 81.9216 42.8574C82.0102 42.9649 82.1436 43.0242 82.2872 43.0242L84.7078 43.0314C84.9359 43.0314 85.1324 42.8697 85.1721 42.6447L87.3035 31.0476C88.8983 32.9502 90.9849 34.5747 90.9849 34.5747C95.1357 37.3898 100.103 36.2011 101.214 32.5625L101.23 32.5472L101.446 32.0531C101.311 35.8595 96.819 38.2982 92.0826 36.6584C92.0826 36.6584 90.0409 35.9045 87.8891 34.2412C87.9074 34.32 87.9227 34.4018 87.9431 34.4816C88.1987 35.4779 88.5683 36.4221 89.047 37.2998C91.5501 38.335 93.709 38.5304 93.709 38.5304C98.704 38.8813 102.415 35.3593 101.566 31.647L101.573 31.6276L101.514 31.0895C103.291 34.455 100.615 38.825 95.6988 39.7815C95.6988 39.7815 93.5501 40.1589 90.8566 39.7937C91.5012 40.476 92.2283 41.0878 93.0307 41.6115C95.822 41.2729 97.8903 40.3062 97.8903 40.3062C102.391 38.1018 103.855 33.1855 101.27 30.4L101.265 30.3785L100.949 29.9438C104.162 31.9651 104.019 37.0901 100.24 40.3932C100.24 40.3932 98.4371 41.8969 95.7731 42.9454C96.5084 43.194 97.263 43.371 98.0278 43.4722H99.1174C101.356 41.7772 102.661 39.9144 102.661 39.9144C105.464 35.7429 104.282 30.7509 100.658 29.6359L100.643 29.6205L100.153 29.4027C103.942 29.5408 106.369 34.0519 104.739 38.8097C104.739 38.8097 103.924 41.0356 102.118 43.2932C102.264 43.2605 102.404 43.2308 102.547 43.193C103.463 42.9597 104.324 42.6191 105.126 42.2038C106.246 39.5861 106.452 37.2732 106.452 37.2732C106.803 32.2577 103.295 28.527 99.597 29.3802L99.5818 29.3761L99.0471 29.4333C102.395 27.6493 106.745 30.3366 107.701 35.2764C107.701 35.2764 108.253 37.5443 107.84 40.2305C107.76 40.6182 107.598 41.1808 107.287 41.7803C107.192 41.947 107.074 42.1445 106.931 42.3736C106.934 42.3705 106.935 42.3675 106.935 42.3675C106.934 42.3736 106.928 42.3787 106.924 42.3859C106.921 42.393 106.921 42.3941 106.921 42.3992C106.865 42.4953 106.853 42.615 106.901 42.7224C106.957 42.8482 107.083 42.9291 107.222 42.926H108.746C109.546 42.9219 110.235 42.9178 111.15 42.9495C111.259 42.9516 111.363 42.9045 111.433 42.8237C111.433 42.8237 123.218 28.6702 124.678 26.9169C124.119 29.819 122.534 37.2804 121.4 42.5199C121.396 42.5444 121.394 42.57 121.394 42.5946C121.394 42.6754 121.42 42.7541 121.47 42.8165C121.537 42.9025 121.639 42.9495 121.749 42.9495L124.428 42.926C124.53 42.926 124.627 42.882 124.693 42.8032C124.693 42.8032 136.572 28.8441 138.093 27.0611C137.459 29.9735 135.725 37.3335 134.489 42.5117C134.481 42.5393 134.477 42.5649 134.477 42.5946C134.477 42.6713 134.503 42.749 134.553 42.8135C134.621 42.8994 134.721 42.9495 134.831 42.9495H138C138.162 42.9495 138.305 42.839 138.344 42.6774L139.716 37.088L139.906 36.3024C139.912 36.5264 139.915 36.7044 139.915 36.7044C139.909 37.2998 139.958 37.9044 140.069 38.5079C140.469 40.7604 142.462 42.8626 144.602 43.2902C146.472 43.6308 148.474 43.1541 150.447 41.9307C150.408 42.1445 150.346 42.4677 150.346 42.4677C150.341 42.4953 150.338 42.525 150.338 42.5547C150.338 42.6641 150.375 42.7715 150.444 42.8574C150.537 42.9649 150.67 43.0242 150.809 43.0242L153.231 43.0314C153.462 43.0314 153.656 42.8697 153.697 42.6447L155.884 30.9688L156.409 27.8222C156.411 27.7066 156.375 27.5961 156.299 27.5082Z" fill="#395B6F"/>
</svg>
