<svg width="116" height="31" viewBox="0 0 116 31" fill="none" xmlns="http://www.w3.org/2000/svg">
<path d="M28.8213 30.915C26.7992 30.6144 25.0305 29.74 23.6799 28.3733C22.5534 27.2334 21.8229 25.9799 21.2845 24.2624C20.4438 21.5807 20.4435 18.1329 21.2837 15.5058C22.0979 12.96 23.9313 10.7439 26.175 9.5934C29.2824 8.00006 33.6558 8.10015 36.5337 9.83048C39.1238 11.3877 40.6926 14.1548 41.1292 17.9352C41.2624 19.0894 41.1759 21.5275 40.966 22.5338C40.1069 26.653 37.6049 29.5304 33.9392 30.6148C33.5441 30.7316 32.9316 30.8684 32.578 30.9186C31.8297 31.025 29.5456 31.0228 28.8213 30.915ZM33.1979 30.597C34.6777 30.2441 35.8574 29.7055 36.9118 28.9011C39.4766 26.9444 40.8819 23.9442 41.0117 20.1486C41.1396 16.4068 40.0349 13.2171 37.8987 11.1605C36.1646 9.49109 33.9794 8.69084 31.1547 8.69084C28.1605 8.69084 25.7491 9.63915 23.8939 11.5464C21.9066 13.5893 20.8554 16.4392 20.8554 19.784C20.8554 23.254 21.8052 26.0551 23.647 28.0176C24.6624 29.0996 25.6509 29.7486 27.0684 30.2636C27.5696 30.4458 27.9384 30.5333 29.2784 30.7876C29.393 30.8094 30.1624 30.8134 30.988 30.7966C32.1056 30.7739 32.6702 30.7228 33.1979 30.597ZM30.0337 29.3864C28.6638 28.7517 27.6924 26.8221 27.2056 23.769C26.897 21.8337 26.8678 17.5296 27.149 15.4207C27.544 12.459 28.3782 10.7094 29.6771 10.1183C30.5676 9.71318 31.8015 9.9529 32.5948 10.6851C34.3569 12.3111 35.2462 16.9352 34.8624 22.4752C34.5871 26.4507 33.7424 28.6069 32.167 29.3562C31.596 29.628 30.5857 29.6421 30.0337 29.3864ZM31.8467 29.261C32.4375 29.0818 33.166 28.3838 33.5545 27.625C34.3565 26.0585 34.7147 23.7419 34.7237 20.0634C34.7347 15.4534 34.0272 12.5199 32.5339 10.9839C31.9069 10.3389 31.4622 10.1386 30.6605 10.1399C28.8811 10.1428 27.7517 12.0403 27.3056 15.7767C27.1005 17.4942 27.0994 21.5859 27.3036 23.0875C27.9356 27.7348 29.5676 29.9523 31.8467 29.261ZM64.6381 30.914C63.8107 30.8283 61.2825 30.3985 60.3993 30.1934L59.7884 30.0514L59.836 26.7187C59.9507 18.6944 59.9652 14.3139 59.8909 10.0538C59.8181 5.88068 59.797 5.43949 59.6393 4.82213C59.4397 4.03994 59.1516 3.4944 58.8051 3.24233C58.6705 3.14445 58.3047 3.00568 57.9923 2.93395C56.9539 2.69568 57.0103 2.73385 56.9826 2.24998C56.9667 1.97125 56.9962 1.78707 57.066 1.73059C57.1596 1.65478 65.6766 -0.00467541 65.9479 9.90256e-06C66.0258 0.0013729 66.0368 1.11375 65.9969 4.94268C65.9686 7.66016 65.9649 9.88355 65.9888 9.88355C66.0127 9.88355 66.3239 9.74589 66.6804 9.57764C67.755 9.07052 68.7454 8.85048 70.1839 8.7992C71.1415 8.76513 71.5852 8.78651 72.0765 8.89027C75.2891 9.5693 77.6666 12.2553 78.4974 16.1448C78.7141 17.1593 78.7947 19.6811 78.6509 20.944C78.5282 22.0206 78.1783 23.4711 77.8142 24.4123C76.4401 27.9642 73.4921 30.2814 69.5812 30.8836C68.6804 31.0222 65.8515 31.0396 64.6381 30.914ZM69.3499 30.7108C71.8832 30.3228 73.7414 29.434 75.3151 27.858C77.5898 25.58 78.6854 22.3648 78.5374 18.4022C78.4612 16.3622 78.135 15.0295 77.3072 13.3762C76.1858 11.1364 74.2679 9.56529 72.0901 9.10264C70.4566 8.75558 68.3547 9.02742 66.7567 9.7924C66.3585 9.98305 65.9772 10.139 65.9096 10.139C65.8022 10.139 65.7905 9.50822 65.8179 5.17021L65.8492 0.201393L65.5146 0.269884C65.3306 0.307537 63.4538 0.664813 61.3439 1.06375C59.2339 1.46268 57.4254 1.8088 57.3248 1.83282C57.1719 1.86945 57.1452 1.92891 57.1615 2.19572C57.1798 2.49294 57.2037 2.51986 57.5111 2.58894C58.5684 2.82653 58.7566 2.91121 59.1497 3.32599C59.6311 3.83413 59.8487 4.48292 59.9914 5.83706C60.1051 6.91604 60.1303 25.5058 60.0217 28.2498L59.9574 29.8769L60.8174 30.0647C64.0738 30.7761 67.3198 31.0218 69.3499 30.7108ZM66.3749 29.4148C66.2063 29.3967 66.0259 29.3297 65.9741 29.2659C65.8312 29.0899 65.6764 17.5261 65.7717 14.1428L65.8472 11.4594L66.5144 11.2629C67.4987 10.9731 68.5584 11.0181 69.3096 11.3818C70.8182 12.1121 71.8094 13.9162 72.324 16.8688C72.4917 17.8307 72.4669 21.1712 72.2833 22.3599C71.8999 24.8421 71.2023 26.7576 70.2312 27.9953C69.7604 28.5951 68.9785 29.1626 68.3672 29.3481C67.9729 29.4678 67.1275 29.4961 66.3749 29.4148ZM67.9804 29.2198C68.5862 29.1024 69.0568 28.8561 69.5622 28.3919C70.8287 27.2289 71.781 24.8275 72.1555 21.8522C72.308 20.6404 72.2875 17.8792 72.1185 16.8677C71.6612 14.1323 70.6785 12.3344 69.245 11.6105C68.6504 11.3102 68.5587 11.2891 67.8533 11.2891C67.3488 11.2891 66.9149 11.3442 66.5459 11.4553L65.9936 11.6215L65.9529 14.735C65.9006 18.7233 66.0276 28.7082 66.1343 28.9947C66.2022 29.1775 66.2772 29.2164 66.6149 29.2434C67.4095 29.3072 67.541 29.3049 67.9804 29.2198ZM88.6142 30.8717C84.4769 30.1095 81.518 27.1125 80.5512 22.7049C80.4269 22.138 80.3719 21.5036 80.3407 20.2763C80.2914 18.3348 80.446 17.1297 80.9365 15.6323C81.8784 12.7572 83.5663 10.7198 86.0183 9.49876C88.6063 8.20996 92.1446 8.12554 94.435 9.29797C97.0137 10.618 98.531 13.2538 98.916 17.0818C98.9678 17.5973 98.9978 18.2105 98.9828 18.4448L98.9553 18.8708L92.7841 18.8926L86.6128 18.9145L86.6363 19.6592C86.6908 21.3846 87.0539 22.9109 87.7256 24.2376C88.031 24.8407 88.274 25.1694 88.8644 25.7783C90.1981 27.1539 91.5249 27.6863 93.6179 27.6863C95.1355 27.6863 96.2268 27.377 97.3682 26.6232C97.6879 26.4121 98.0119 26.2394 98.088 26.2394C98.2622 26.2394 98.6634 26.7668 98.6634 26.9959C98.6634 27.3714 97.4668 28.5819 96.2998 29.3872C95.344 30.0467 93.8281 30.644 92.5137 30.8788C91.5932 31.0435 89.5252 31.0396 88.6142 30.8717ZM92.323 30.708C94.2553 30.388 96.1581 29.4407 97.5257 28.1178C98.2748 27.3932 98.5233 27.0435 98.4191 26.8602C98.1411 26.3714 98.1532 26.3719 97.4434 26.8173C96.3131 27.5264 95.7466 27.7221 94.4188 27.8612C92.8678 28.0237 91.4372 27.7591 90.1152 27.0647C89.2383 26.604 88.1874 25.5446 87.6621 24.5918C86.9453 23.2913 86.5564 21.7724 86.4404 19.8203C86.3917 19.0007 86.4023 18.7965 86.4966 18.7355C86.5608 18.694 89.3416 18.6597 92.7214 18.6591L98.8302 18.6578V18.4113C98.8302 17.851 98.6501 16.3449 98.4887 15.5554C97.8398 12.3805 96.1266 10.1166 93.6838 9.20597C92.7115 8.8435 91.7918 8.69093 90.5794 8.69093C87.7071 8.69093 85.3613 9.65329 83.5466 11.5762C82.0997 13.1094 81.2413 14.8316 80.7174 17.2523C80.5595 17.9818 80.533 18.3611 80.533 19.8931C80.533 21.4139 80.5601 21.8061 80.7131 22.5095C81.6856 26.9776 84.5632 29.9201 88.6975 30.6738C89.7452 30.8647 91.2892 30.8794 92.323 30.708ZM86.4581 17.2297C86.3953 17.126 86.5509 15.6098 86.7051 14.8243C87.0762 12.9312 87.6706 11.5642 88.4886 10.7225C88.9285 10.2697 89.1293 10.1286 89.488 10.0197C89.735 9.9448 90.0146 9.88372 90.1096 9.88398C90.4922 9.885 90.9437 10.0845 91.2798 10.4009C92.1818 11.2502 92.6979 13.074 92.8002 15.7737L92.8506 17.1063L91.9833 17.1557C90.2423 17.2547 86.5036 17.3049 86.4581 17.2297ZM91.2327 16.9863L92.6836 16.9348L92.6313 15.8819C92.4472 12.1696 91.5577 10.1407 90.1152 10.1424C88.5475 10.1442 87.2947 12.203 86.7738 15.6337C86.7097 16.0554 86.6567 16.5554 86.6559 16.745L86.6543 17.0896L88.218 17.0638C89.0781 17.0494 90.4347 17.0146 91.2327 16.9863ZM105.293 30.9544C103.808 30.7917 101.443 30.263 100.656 29.9172L100.271 29.7485L100.219 27.8023C100.19 26.732 100.157 25.3008 100.145 24.622L100.123 23.3879L100.354 23.275C100.48 23.213 100.736 23.155 100.922 23.1461L101.26 23.1301L101.548 23.8542C102.672 26.679 103.989 28.2021 105.711 28.6654C106.367 28.8422 107.598 28.8437 108.084 28.6683C109.446 28.1775 110.192 27.1243 110.199 25.6858C110.207 23.982 109.29 23.1634 105.826 21.7814C103.681 20.9252 102.932 20.4846 102.041 19.5528C101.079 18.5475 100.618 17.4033 100.531 15.8095C100.427 13.8838 101.017 12.2603 102.324 10.8769C103.64 9.4847 105.348 8.73011 107.675 8.51323C109.724 8.32224 112.869 8.76615 114.517 9.47891L114.818 9.60891L114.871 11.3435C114.901 12.2975 114.931 13.5763 114.939 14.1854L114.953 15.2928L114.55 15.446C113.911 15.6881 113.869 15.6577 113.514 14.6966C112.519 12.0027 111.362 10.728 109.56 10.3386C108.462 10.1013 107.545 10.3564 106.878 11.0846C106.358 11.6526 106.155 12.1571 106.106 13.0042C106.052 13.922 106.213 14.4182 106.762 15.0318C107.439 15.7881 108.547 16.4409 110.756 17.3835C113.46 18.5381 114.751 19.5183 115.452 20.9508C115.908 21.8812 116.037 22.6243 115.991 24.0547C115.957 25.128 115.923 25.3486 115.684 26.0692C114.905 28.4187 113.145 29.9655 110.427 30.6908C109.507 30.9364 109.375 30.949 107.545 30.9696C106.49 30.9812 105.477 30.9745 105.293 30.9544ZM109.255 30.7157C112.798 30.1661 115.085 28.2253 115.685 25.2598C115.975 23.8279 115.84 22.2357 115.338 21.1708C114.636 19.68 113.448 18.7801 110.505 17.5095C108.32 16.5657 107.01 15.7658 106.474 15.0473C106.031 14.4538 105.887 13.9974 105.892 13.2059C105.901 12.0119 106.344 11.0975 107.19 10.5273C107.898 10.0499 108.786 9.93347 109.819 10.1824C111.068 10.4831 112.006 11.2659 112.854 12.7131C113.124 13.1737 113.679 14.4666 113.949 15.2643C113.991 15.3881 114.039 15.3933 114.331 15.3055C114.514 15.2502 114.69 15.1786 114.721 15.1464C114.753 15.1143 114.751 13.8939 114.717 12.4345L114.655 9.78107L114.352 9.65014C113.842 9.42933 112.509 9.05902 111.631 8.89401C110.971 8.7699 110.39 8.73778 108.837 8.73957C106.985 8.74161 106.833 8.75397 106.068 8.96608C103.845 9.58207 102.198 10.8634 101.336 12.6452C100.879 13.5921 100.721 14.3221 100.726 15.4634C100.733 17.0839 101.165 18.2802 102.122 19.3253C102.944 20.2246 104.014 20.8663 105.835 21.5533C107.269 22.094 108.749 22.849 109.309 23.3258C109.639 23.606 109.898 23.9252 110.091 24.2894C110.366 24.8074 110.38 24.8758 110.38 25.6859C110.38 26.4664 110.358 26.5857 110.116 27.1086C109.482 28.475 108.214 29.1533 106.554 29.0147C104.297 28.8262 102.709 27.3021 101.416 24.0847C101.079 23.2455 101.056 23.2281 100.543 23.4273L100.307 23.5187L100.366 26.519C100.418 29.1819 100.441 29.5316 100.565 29.629C100.936 29.9193 103.336 30.5013 105.001 30.7045C106.294 30.8621 108.277 30.8674 109.255 30.7157ZM0.110832 30.4425C0.0415309 30.4138 0.00658823 30.2015 0.00658823 29.8086C0.00658823 29.1026 -0.0373611 29.1342 1.29922 28.881C2.32448 28.6867 2.69117 28.488 3.14392 27.8817C4.02166 26.706 4.21138 24.4426 4.21338 15.1226C4.21522 6.36991 4.0501 4.52866 3.14234 3.17589C2.73954 2.57574 2.06078 2.24981 0.923854 2.11079L0.0482025 2.00371L0.0241846 1.30534L0 0.607056L0.274371 0.557136C0.425316 0.529706 5.72651 0.51812 12.055 0.531325L23.5613 0.555518L23.6151 0.896268C23.6448 1.08368 23.6935 3.00602 23.7234 5.16808L23.7776 9.09915L23.1844 9.28324C22.2914 9.56027 22.2967 9.56367 21.895 8.47787C20.9083 5.81082 19.7768 4.27404 18.2285 3.49798C17.1606 2.96275 16.6669 2.89809 13.6512 2.89809H11.0268L10.9815 3.34532C10.8966 4.184 10.7628 9.57901 10.7637 12.1196L10.7646 14.654L11.536 14.6495C11.9603 14.647 12.7969 14.6151 13.3952 14.5786C14.2945 14.5236 14.5617 14.4749 14.938 14.2969C15.8625 13.8598 16.4913 12.8977 16.8767 11.3311L17.0756 10.5223L17.7563 10.4975L18.437 10.4727V20.7091L17.756 20.6843L17.0751 20.6595L16.8818 19.8502C16.5187 18.3296 15.8198 17.2411 14.9561 16.8509C14.5572 16.6707 13.5703 16.5682 11.6611 16.5089L10.7646 16.481V18.4038C10.7646 20.4991 10.8774 23.3337 11.0219 24.8721C11.2234 27.0168 11.76 28.2018 12.7235 28.6307C12.9074 28.7126 13.4896 28.8454 14.017 28.9262C14.5445 29.0069 15.0418 29.1076 15.122 29.15C15.3256 29.2573 15.3376 30.3681 15.1361 30.447C14.9783 30.509 0.261111 30.5043 0.110832 30.4425ZM15.1011 29.7748C15.1011 29.5171 15.0786 29.3062 15.0511 29.3062C14.6536 29.3062 12.802 28.8984 12.5044 28.7454C11.4454 28.2006 10.9559 26.906 10.7659 24.1479C10.6309 22.1872 10.4966 16.4271 10.5837 16.338C10.6628 16.2572 14.1887 16.4007 14.6007 16.5014C15.74 16.7801 16.6183 17.925 17.058 19.7048L17.2518 20.4893L17.761 20.5148L18.27 20.5401V10.6502H17.7279C17.2212 10.6502 17.1859 10.6627 17.1859 10.8422C17.1859 11.1649 16.8695 12.1863 16.5701 12.8304C16.1011 13.8392 15.4406 14.4482 14.6006 14.646C14.3942 14.6947 13.42 14.7726 12.4355 14.8191C11.0471 14.8848 10.6305 14.8806 10.5782 14.8002C10.4814 14.6518 10.702 3.43588 10.812 2.9147L10.8534 2.71826L13.9154 2.74433L16.9775 2.77048L17.6901 3.03115C19.3405 3.63496 20.528 4.86788 21.5203 7.00771C21.7432 7.48851 22.029 8.18841 22.1552 8.56332C22.2815 8.93814 22.3932 9.25674 22.4036 9.27131C22.4138 9.28588 22.6878 9.21543 23.0123 9.11473L23.6023 8.93167L23.5609 6.14927C23.5381 4.61896 23.4976 2.78223 23.4713 2.06777L23.4232 0.768657H0.165456L0.190308 1.30074L0.215077 1.83282L0.965635 1.92866C1.96696 2.05652 2.33399 2.16803 2.7372 2.46636C3.34841 2.91862 3.72427 3.58291 3.96095 4.62936C4.32864 6.25499 4.46098 9.92121 4.39977 16.7839C4.33497 24.0353 4.24541 25.5434 3.7929 27.0064C3.42071 28.2097 2.72786 28.8474 1.58368 29.0406C1.26878 29.0937 0.822612 29.1784 0.592274 29.229L0.173462 29.3206V30.2435H15.1012L15.1011 29.7748ZM41.2206 30.4263C41.1446 30.3769 41.1197 30.1803 41.1373 29.7671L41.1623 29.1784L41.4542 29.1151C41.6147 29.0801 41.9595 29.0107 42.2204 28.961C43.0279 28.8069 43.4919 28.3592 43.7531 27.4822C43.9659 26.7679 44.0596 24.4825 44.0644 19.893C44.0704 14.2801 43.9559 12.9545 43.4004 12.2031C43.0992 11.7958 42.8821 11.6801 42.1514 11.5368C41.7908 11.4661 41.4114 11.3903 41.3082 11.3683C41.1411 11.3328 41.1206 11.2771 41.1206 10.8596C41.1206 10.4537 41.1457 10.3804 41.3082 10.312C41.5577 10.2073 49.8194 8.52038 50.0833 8.52038H50.2892L50.2489 9.7769C50.2266 10.4679 50.1912 11.4743 50.17 12.0131L50.1314 12.9927L50.4307 12.4414C51.3889 10.6765 52.4633 9.5808 53.8922 8.91199C54.6765 8.54474 55.1999 8.43519 56.1688 8.43519C57.318 8.43519 58.467 8.8182 58.467 9.20137C58.467 9.45898 56.4422 14.9239 56.3306 14.9676C56.2761 14.9889 55.8807 14.8346 55.452 14.6243C54.5578 14.186 53.719 13.9718 52.9048 13.9736C51.8907 13.9758 50.7579 14.3573 50.3107 14.8473C50.1194 15.0569 50.1185 15.0695 50.071 18.1994C50.0239 21.2989 50.125 25.0797 50.2956 26.6003C50.441 27.8958 50.778 28.5335 51.4739 28.8305C51.7061 28.9295 53.175 29.1352 53.6544 29.1357C53.6908 29.1357 53.7094 29.4328 53.6961 29.7959L53.6717 30.4561L47.5005 30.4764C44.1061 30.4877 41.2803 30.4652 41.2206 30.4263ZM53.5465 29.7821V29.3209L52.9002 29.265C51.4095 29.1365 51.0011 28.9836 50.6095 28.4078C50.0422 27.5733 49.9188 26.0332 49.9188 19.7935V14.9234L50.1255 14.6986C50.3864 14.4149 51.2018 14.0192 51.7784 13.8964C52.9493 13.647 54.4461 13.8625 55.6167 14.4489C55.9527 14.6173 56.2417 14.7406 56.2588 14.723C56.2934 14.6877 58.2161 9.49757 58.2757 9.27855C58.3029 9.17922 58.1921 9.09267 57.8687 8.96046C57.1764 8.67747 56.5762 8.58052 55.8018 8.62636C53.7306 8.74911 51.8925 10.1547 50.5685 12.6281C50.3488 13.0387 50.1211 13.375 50.0627 13.3755C49.9777 13.3761 49.9679 12.9044 50.0135 11.0286L50.0706 8.68087L49.8697 8.72926C49.7591 8.75584 48.0924 9.10076 46.1661 9.49569C42.0343 10.3427 41.4601 10.4661 41.3616 10.5283C41.3208 10.5541 41.2874 10.7063 41.2874 10.8667C41.2874 11.1884 41.2507 11.1697 42.1895 11.324C43.48 11.536 43.9358 12.1788 44.1282 14.0578C44.3792 16.5079 44.2789 26.0589 43.9885 27.3628C43.8401 28.0295 43.4565 28.6716 43.0704 28.8997C42.9273 28.9844 42.4769 29.12 42.0696 29.2012L41.3291 29.3489L41.3038 29.7961L41.2786 30.2434H53.5465V29.7821Z" fill="#33629A"/>
<path d="M15.1011 29.7748C15.1011 29.5171 15.0786 29.3062 15.0511 29.3062C14.6536 29.3062 12.802 28.8984 12.5044 28.7454C11.4454 28.2006 10.9559 26.906 10.7659 24.1479C10.6309 22.1872 10.4966 16.4271 10.5837 16.338C10.6628 16.2572 14.1887 16.4007 14.6007 16.5014C15.74 16.7801 16.6183 17.925 17.058 19.7048L17.2518 20.4893L17.761 20.5148L18.27 20.5401V10.6502H17.7279C17.2212 10.6502 17.1859 10.6627 17.1859 10.8422C17.1859 11.1649 16.8695 12.1863 16.5701 12.8304C16.1011 13.8392 15.4406 14.4482 14.6006 14.646C14.3942 14.6947 13.42 14.7726 12.4355 14.8191C11.0471 14.8848 10.6305 14.8806 10.5782 14.8002C10.4814 14.6518 10.702 3.43588 10.812 2.9147L10.8534 2.71826L13.9154 2.74433L16.9775 2.77048L17.6901 3.03115C19.3405 3.63496 20.528 4.86788 21.5203 7.00771C21.7432 7.48851 22.029 8.18841 22.1552 8.56332C22.2815 8.93814 22.3932 9.25674 22.4036 9.27131C22.4138 9.28588 22.6878 9.21543 23.0123 9.11473L23.6023 8.93167L23.5609 6.14927C23.5381 4.61896 23.4976 2.78223 23.4713 2.06777L23.4232 0.768657H0.165456L0.190308 1.30074L0.215077 1.83282L0.965635 1.92866C1.96696 2.05652 2.33399 2.16803 2.7372 2.46636C3.34841 2.91862 3.72427 3.58291 3.96095 4.62936C4.32864 6.25499 4.46098 9.92121 4.39977 16.7839C4.33497 24.0353 4.24541 25.5434 3.7929 27.0064C3.42071 28.2097 2.72786 28.8474 1.58368 29.0406C1.26878 29.0937 0.822612 29.1784 0.592274 29.229L0.173462 29.3206V30.2435H15.1012L15.1011 29.7748Z" fill="#33629A"/>
<path fill-rule="evenodd" clip-rule="evenodd" d="M33.1979 30.597C34.6777 30.2441 35.8574 29.7055 36.9118 28.9011C39.4766 26.9444 40.8819 23.9442 41.0117 20.1486C41.1396 16.4068 40.0349 13.2171 37.8987 11.1605C36.1646 9.49109 33.9794 8.69084 31.1547 8.69084C28.1605 8.69084 25.7491 9.63915 23.8939 11.5464C21.9066 13.5893 20.8554 16.4392 20.8554 19.784C20.8554 23.254 21.8052 26.0551 23.647 28.0176C24.6624 29.0996 25.6509 29.7486 27.0684 30.2636C27.5696 30.4458 27.9384 30.5333 29.2784 30.7876C29.393 30.8094 30.1624 30.8134 30.988 30.7966C32.1056 30.7739 32.6702 30.7228 33.1979 30.597ZM27.2056 23.769C27.6924 26.8221 28.6638 28.7517 30.0337 29.3864C30.5857 29.6421 31.596 29.628 32.167 29.3562C33.7424 28.6069 34.5871 26.4507 34.8624 22.4752C35.2462 16.9352 34.3569 12.3111 32.5948 10.6851C31.8015 9.9529 30.5676 9.71318 29.6771 10.1183C28.3782 10.7094 27.544 12.459 27.149 15.4207C26.8678 17.5296 26.897 21.8337 27.2056 23.769Z" fill="#33629A"/>
<path d="M53.5465 29.7821V29.3209L52.9002 29.265C51.4095 29.1365 51.0011 28.9836 50.6095 28.4078C50.0422 27.5733 49.9188 26.0332 49.9188 19.7935V14.9234L50.1255 14.6986C50.3864 14.4149 51.2018 14.0192 51.7784 13.8964C52.9493 13.647 54.4461 13.8625 55.6167 14.4489C55.9527 14.6173 56.2417 14.7406 56.2588 14.723C56.2934 14.6877 58.2161 9.49757 58.2757 9.27855C58.3029 9.17922 58.1921 9.09267 57.8687 8.96046C57.1764 8.67747 56.5762 8.58052 55.8018 8.62636C53.7306 8.74911 51.8925 10.1547 50.5685 12.6281C50.3488 13.0387 50.1211 13.375 50.0627 13.3755C49.9777 13.3761 49.9679 12.9044 50.0135 11.0286L50.0706 8.68087L49.8697 8.72926C49.7591 8.75584 48.0924 9.10076 46.1661 9.49569C42.0343 10.3427 41.4601 10.4661 41.3616 10.5283C41.3208 10.5541 41.2874 10.7063 41.2874 10.8667C41.2874 11.1884 41.2507 11.1697 42.1895 11.324C43.48 11.536 43.9358 12.1788 44.1282 14.0578C44.3792 16.5079 44.2789 26.0589 43.9885 27.3628C43.8401 28.0295 43.4565 28.6716 43.0704 28.8997C42.9273 28.9844 42.4769 29.12 42.0696 29.2012L41.3291 29.3489L41.3038 29.7961L41.2786 30.2434H53.5465V29.7821Z" fill="#33629A"/>
<path fill-rule="evenodd" clip-rule="evenodd" d="M69.3499 30.7108C71.8832 30.3228 73.7414 29.434 75.3151 27.858C77.5898 25.58 78.6854 22.3648 78.5374 18.4022C78.4612 16.3622 78.135 15.0295 77.3072 13.3762C76.1858 11.1364 74.2679 9.56529 72.0901 9.10264C70.4566 8.75558 68.3547 9.02742 66.7567 9.7924C66.3585 9.98305 65.9772 10.139 65.9096 10.139C65.8022 10.139 65.7905 9.50822 65.8179 5.17021L65.8492 0.201393L65.5146 0.269884C65.3306 0.307537 63.4538 0.664813 61.3439 1.06375C59.2339 1.46268 57.4254 1.8088 57.3248 1.83282C57.1719 1.86945 57.1452 1.92891 57.1615 2.19572C57.1798 2.49294 57.2037 2.51986 57.5111 2.58894C58.5684 2.82653 58.7566 2.91121 59.1497 3.32599C59.6311 3.83413 59.8487 4.48292 59.9914 5.83706C60.1051 6.91604 60.1303 25.5058 60.0217 28.2498L59.9574 29.8769L60.8174 30.0647C64.0738 30.7761 67.3198 31.0218 69.3499 30.7108ZM65.9741 29.2659C66.0259 29.3297 66.2063 29.3967 66.3749 29.4148C67.1275 29.4961 67.9729 29.4678 68.3672 29.3481C68.9785 29.1626 69.7604 28.5951 70.2312 27.9953C71.2023 26.7576 71.8999 24.8421 72.2833 22.3599C72.4669 21.1712 72.4917 17.8307 72.324 16.8688C71.8094 13.9162 70.8182 12.1121 69.3096 11.3818C68.5584 11.0181 67.4987 10.9731 66.5144 11.2629L65.8472 11.4594L65.7717 14.1428C65.6764 17.5261 65.8312 29.0899 65.9741 29.2659Z" fill="#33629A"/>
<path fill-rule="evenodd" clip-rule="evenodd" d="M92.323 30.708C94.2553 30.388 96.1581 29.4407 97.5257 28.1178C98.2748 27.3932 98.5233 27.0435 98.4191 26.8602C98.1411 26.3714 98.1532 26.3719 97.4434 26.8173C96.3131 27.5264 95.7466 27.7221 94.4188 27.8612C92.8678 28.0237 91.4372 27.7591 90.1152 27.0647C89.2383 26.604 88.1874 25.5446 87.6621 24.5918C86.9453 23.2913 86.5564 21.7724 86.4404 19.8203C86.3917 19.0007 86.4023 18.7965 86.4966 18.7355C86.5608 18.694 89.3416 18.6597 92.7214 18.6591L98.8302 18.6578V18.4113C98.8302 17.851 98.6501 16.3449 98.4887 15.5554C97.8398 12.3805 96.1266 10.1166 93.6838 9.20597C92.7115 8.8435 91.7918 8.69093 90.5794 8.69093C87.7071 8.69093 85.3613 9.65329 83.5466 11.5762C82.0997 13.1094 81.2413 14.8316 80.7174 17.2523C80.5595 17.9818 80.533 18.3611 80.533 19.8931C80.533 21.4139 80.5601 21.8061 80.7131 22.5095C81.6856 26.9776 84.5632 29.9201 88.6975 30.6738C89.7452 30.8647 91.2892 30.8794 92.323 30.708ZM86.7051 14.8243C86.5509 15.6098 86.3953 17.126 86.4581 17.2297C86.5036 17.3049 90.2423 17.2547 91.9833 17.1557L92.8506 17.1063L92.8002 15.7737C92.6979 13.074 92.1818 11.2502 91.2798 10.4009C90.9437 10.0845 90.4922 9.885 90.1096 9.88398C90.0146 9.88372 89.735 9.9448 89.488 10.0197C89.1293 10.1286 88.9285 10.2697 88.4886 10.7225C87.6706 11.5642 87.0762 12.9312 86.7051 14.8243Z" fill="#33629A"/>
<path d="M109.255 30.7157C112.798 30.1661 115.085 28.2253 115.685 25.2598C115.975 23.8279 115.84 22.2357 115.338 21.1708C114.636 19.68 113.448 18.7801 110.505 17.5095C108.32 16.5657 107.01 15.7658 106.474 15.0473C106.031 14.4538 105.887 13.9974 105.892 13.2059C105.901 12.0119 106.344 11.0975 107.19 10.5273C107.898 10.0499 108.786 9.93347 109.819 10.1824C111.068 10.4831 112.006 11.2659 112.854 12.7131C113.124 13.1737 113.679 14.4666 113.949 15.2643C113.991 15.3881 114.039 15.3933 114.331 15.3055C114.514 15.2502 114.69 15.1786 114.721 15.1464C114.753 15.1143 114.751 13.8939 114.717 12.4345L114.655 9.78107L114.352 9.65014C113.842 9.42933 112.509 9.05902 111.631 8.89401C110.971 8.7699 110.39 8.73778 108.837 8.73957C106.985 8.74161 106.833 8.75397 106.068 8.96608C103.845 9.58207 102.198 10.8634 101.336 12.6452C100.879 13.5921 100.721 14.3221 100.726 15.4634C100.733 17.0839 101.165 18.2802 102.122 19.3253C102.944 20.2246 104.014 20.8663 105.835 21.5533C107.269 22.094 108.749 22.849 109.309 23.3258C109.639 23.606 109.898 23.9252 110.091 24.2894C110.366 24.8074 110.38 24.8758 110.38 25.6859C110.38 26.4664 110.358 26.5857 110.116 27.1086C109.482 28.475 108.214 29.1533 106.554 29.0147C104.297 28.8262 102.709 27.3021 101.416 24.0847C101.079 23.2455 101.056 23.2281 100.543 23.4273L100.307 23.5187L100.366 26.519C100.418 29.1819 100.441 29.5316 100.565 29.629C100.936 29.9193 103.336 30.5013 105.001 30.7045C106.294 30.8621 108.277 30.8674 109.255 30.7157Z" fill="#33629A"/>
</svg>
