<svg width="83" height="50" viewBox="0 0 83 50" fill="none" xmlns="http://www.w3.org/2000/svg">
<g clip-path="url(#clip0)">
<path d="M9.85636 47.4456H8.75122V39.3719H9.85636V42.7857H13.3904V39.3719H14.4955V47.4456H13.3904V43.7431H9.85636V47.4456Z" fill="#395B6F"/>
<path d="M16.2315 42.7166C17.0256 42.0822 17.797 41.9324 18.3495 41.9324C20.3524 41.9324 20.364 43.6855 20.364 44.0315V46.0156C20.364 46.4303 20.4561 46.673 20.9166 46.6962V47.5726C20.1336 47.5726 19.7309 47.2035 19.5352 46.7881C18.948 47.2148 18.3954 47.5726 17.6013 47.5726C16.381 47.5726 15.8516 46.8225 15.8516 46.0037C15.8516 44.3199 17.463 44.1006 19.4085 44.0315C19.4662 42.9358 18.7869 42.7628 18.2459 42.7628C17.8429 42.7628 17.3597 42.959 16.6804 43.4087L16.2315 42.7166ZM16.9451 46.0037C16.9451 46.3728 17.2098 46.7306 17.8314 46.7306C18.3034 46.7306 18.9942 46.4422 19.4085 45.796V44.8276C17.3709 44.7813 16.9451 45.5307 16.9451 46.0037Z" fill="#395B6F"/>
<path d="M25.7837 42.9127V42.0591H26.7392V47.4456H25.7837V44.1123L23.2856 46.6499V47.4456H22.3301V42.0591H23.2856V45.45L25.7837 42.9127ZM23.5966 39.3719C23.6193 39.9599 24.0108 40.3982 24.5402 40.3982C25.0585 40.3982 25.4499 39.9599 25.4727 39.3719H26.1173C26.1636 40.456 25.4037 41.1135 24.5402 41.1135C23.654 41.1135 22.9057 40.456 22.952 39.3719H23.5966Z" fill="#395B6F"/>
<path d="M28.8213 49.0258H27.8657V46.6267H28.5566C28.8444 46.2689 29.3392 45.4268 29.3392 43.3393V42.0591H32.9079V46.6267H33.6905V49.0258H32.735V47.4569H28.8213V49.0258ZM31.9524 42.8895H30.2947C30.3063 44.7813 30.1564 45.7503 29.6732 46.6267H31.9524V42.8895Z" fill="#395B6F"/>
<path d="M37.2566 46.7418C37.9356 46.7418 38.3155 46.4998 38.8911 45.923L39.4896 46.4998C38.9486 47.1804 38.1313 47.5726 37.2566 47.5726C35.6333 47.5726 34.5745 46.3271 34.5745 44.7926C34.5745 43.1548 35.6106 41.9324 37.0952 41.9324C38.8796 41.9324 39.5358 43.547 39.4896 44.9427H35.668C35.6449 45.6346 35.9674 46.7418 37.2566 46.7418ZM35.8522 39.4526C36.2552 39.4526 36.4852 39.8101 36.4852 40.087C36.4852 40.4098 36.1859 40.7213 35.8522 40.7213C35.599 40.7213 35.2191 40.5136 35.2191 40.087C35.2191 39.7063 35.5184 39.4526 35.8522 39.4526ZM38.4076 44.1123C38.3617 43.6393 38.1198 42.7629 37.0609 42.7629C36.0479 42.7629 35.7716 43.5355 35.7142 44.1123H38.4076ZM38.2234 39.4526C38.5113 39.4526 38.8565 39.6832 38.8565 40.087C38.8565 40.4445 38.5802 40.7213 38.2234 40.7213C37.8781 40.7213 37.6019 40.4561 37.6019 40.087C37.6019 39.6832 37.9471 39.4526 38.2234 39.4526Z" fill="#395B6F"/>
<path d="M41.9286 42.8895H40.3169V42.0591H44.4956V42.8895H42.8839V47.4456H41.9286V42.8895Z" fill="#395B6F"/>
<path d="M50.0421 46.4534C49.3401 47.4569 48.465 47.5726 47.9124 47.5726C46.0248 47.5726 45.2996 46.1882 45.2996 44.8276C45.2996 43.0856 46.4621 41.9324 48.0623 41.9324C48.6723 41.9324 49.3285 42.1285 49.9847 42.7628L49.4321 43.4319C49.0063 43.0165 48.5686 42.7628 47.9702 42.7628C47.0952 42.7628 46.3931 43.374 46.3931 44.8157C46.3931 46.0037 46.9456 46.7418 47.9587 46.7418C48.5802 46.7418 48.937 46.4766 49.3975 45.9117L50.0421 46.4534Z" fill="#395B6F"/>
<path d="M53.8741 45.3349C53.1719 45.3349 53.172 45.5889 52.7574 46.2464C52.2164 47.0996 51.8249 47.5726 51.215 47.5726C51.0882 47.5726 50.973 47.5494 50.8582 47.5031V46.6962C50.904 46.6962 50.9502 46.6962 50.9961 46.6962C51.4222 46.6611 51.5028 46.3271 51.8365 45.8078C52.0206 45.5307 52.1589 45.3117 52.6194 45.1735V45.116C51.8365 45.1504 51.238 44.5273 51.238 43.6971C51.238 42.7512 51.917 42.0591 53.0106 42.0591H55.3706V47.4456H54.415V45.3349H53.8741ZM53.2179 42.8895C52.9763 42.8895 52.3316 42.8895 52.3316 43.674C52.3316 44.4929 52.9647 44.5042 53.2409 44.5042H54.415V42.8895H53.2179Z" fill="#395B6F"/>
<path d="M59.7417 42.0591H61.7792C62.1591 42.0591 63.5636 42.0822 63.5636 43.3856C63.5636 43.8817 63.2527 44.4466 62.6658 44.5849C63.3448 44.643 63.9204 45.1041 63.9204 45.8885C63.9204 47.2723 62.7694 47.4456 61.9634 47.4456H59.7417V42.0591ZM61.503 44.2161C61.9175 44.2161 62.4701 44.1814 62.4701 43.4663C62.4701 42.8667 61.8598 42.8895 61.503 42.8895H60.6972V44.2161H61.503ZM61.6643 46.6155C62.2859 46.6155 62.8269 46.5573 62.8269 45.7847C62.8269 45.2542 62.4585 45.0465 61.6643 45.0465H60.6972V46.6155H61.6643Z" fill="#395B6F"/>
<path d="M69.5941 46.4534C68.8921 47.4569 68.0169 47.5726 67.4645 47.5726C65.5766 47.5726 64.8516 46.1882 64.8516 44.8276C64.8516 43.0856 66.0139 41.9324 67.6141 41.9324C68.224 41.9324 68.88 42.1285 69.5366 42.7628L68.9842 43.4319C68.5584 43.0165 68.1204 42.7628 67.522 42.7628C66.6468 42.7628 65.9448 43.374 65.9448 44.8157C65.9448 46.0037 66.4972 46.7418 67.5105 46.7418C68.132 46.7418 68.4887 46.4766 68.949 45.9117L69.5941 46.4534Z" fill="#395B6F"/>
<path d="M73.0228 46.7418C73.7018 46.7418 74.0815 46.4998 74.6575 45.923L75.256 46.4998C74.7144 47.1804 73.8974 47.5726 73.0228 47.5726C71.3995 47.5726 70.3408 46.3271 70.3408 44.7926C70.3408 43.1548 71.3765 41.9324 72.861 41.9324C74.646 41.9324 75.302 43.547 75.256 44.9427H71.4341C71.4111 45.6346 71.7333 46.7418 73.0228 46.7418ZM71.6182 39.4526C72.0216 39.4526 72.2511 39.8101 72.2511 40.087C72.2511 40.4098 71.9519 40.7213 71.6182 40.7213C71.365 40.7213 70.9853 40.5136 70.9853 40.087C70.9853 39.7063 71.2845 39.4526 71.6182 39.4526ZM74.1736 44.1123C74.1275 43.6393 73.8859 42.7629 72.8272 42.7629C71.8138 42.7629 71.5376 43.5355 71.4801 44.1123H74.1736ZM73.9895 39.4526C74.2771 39.4526 74.6224 39.6832 74.6224 40.087C74.6224 40.4445 74.3462 40.7213 73.9895 40.7213C73.6442 40.7213 73.368 40.4561 73.368 40.087C73.368 39.6832 73.7133 39.4526 73.9895 39.4526Z" fill="#395B6F"/>
<path d="M13.4647 0.794922H9.05371C4.72016 0.794922 1.0446 4.10043 1.0446 10.5176C1.0446 14.3674 2.82462 17.2063 5.99691 18.6063L0.0774973 29.3399C-0.11603 29.6903 0.0774973 29.9618 0.386547 29.9618H3.13367C3.36595 29.9618 3.52078 29.8842 3.59822 29.6903L8.97629 19.1506H10.9112V29.6903C10.9112 29.8066 11.0273 29.9618 11.1815 29.9618H13.5808C13.8131 29.9618 13.8905 29.8454 13.8905 29.6514V1.18399C13.8905 0.91124 13.7356 0.794922 13.4647 0.794922ZM10.9112 16.662H9.28598C6.73238 16.662 4.25627 14.7952 4.25627 10.1285C4.25627 5.26646 6.57753 3.28338 8.93755 3.28338H10.9112V16.662Z" fill="#395B6F"/>
<path d="M28.0088 10.4637H25.6101C25.4159 10.4637 25.3004 10.6189 25.3004 10.7352V18.1633H20.8501V10.7352C20.8501 10.5413 20.7732 10.4637 20.5797 10.4637H18.1804C17.9874 10.4637 17.8713 10.5801 17.8713 10.7352V29.6364C17.8713 29.8303 17.9488 29.9467 18.1416 29.9467H20.5797C20.7346 29.9467 20.8501 29.8303 20.8501 29.6364V20.6143H25.3004V29.6364C25.3004 29.8303 25.4159 29.9467 25.6101 29.9467H28.0088C28.2024 29.9467 28.2791 29.7916 28.2791 29.6364V10.7352C28.2791 10.5801 28.1636 10.4637 28.0088 10.4637Z" fill="#395B6F"/>
<path d="M82.7829 28.7032L82.4728 27.3807C82.4351 27.2644 82.3961 27.2255 82.2797 27.2255C82.0866 27.2255 81.042 27.6522 79.5332 27.6522C76.5922 27.6522 75.1608 24.8146 75.1608 20.3029C75.1608 16.3354 76.3602 12.4081 78.3715 12.4081C78.9136 12.4081 79.5715 12.5633 80.6162 13.5367C80.7325 13.653 80.8099 13.6919 80.925 13.6919C81.042 13.6919 81.1583 13.6129 81.274 13.4191L82.3187 11.7087C82.3961 11.5912 82.4351 11.4736 82.4351 11.3572C82.4351 11.2021 82.2797 11.0857 82.0476 10.9694C80.4615 10.1523 79.3778 9.99719 78.4489 9.99719C74.8123 9.99719 71.9878 14.3524 71.9878 21.1574C71.9878 27.0304 74.696 30.4135 78.5652 30.4135C80.191 30.4135 81.9319 29.6365 82.6281 29.1298C82.7829 29.0134 82.8212 28.8583 82.7829 28.7032Z" fill="#395B6F"/>
<path d="M65.9659 19.2519L70.6093 10.7352C70.6867 10.6189 70.6477 10.4637 70.4929 10.4637H68.2105C67.552 10.4637 67.32 10.6965 67.0885 11.202L63.6051 18.4748C63.4122 18.9028 63.2187 19.1742 63.0251 19.2919V10.7352C63.0251 10.5801 62.9477 10.4637 62.7929 10.4637H60.278C60.1625 10.4637 60.0464 10.5801 60.0464 10.7352V29.6752C60.0464 29.7916 60.1237 29.9467 60.278 29.9467H62.7929C62.9477 29.9467 63.0251 29.8303 63.0251 29.6752V19.9137C63.1412 19.9913 63.2187 20.1076 63.2967 20.264L67.7074 29.3637C67.9395 29.8303 68.2879 29.9467 68.7911 29.9467H71.2665C71.4219 29.9467 71.4602 29.7916 71.3835 29.6752L65.9659 19.2519Z" fill="#395B6F"/>
<path d="M43.7952 27.497H43.3307C42.7501 27.497 42.5959 27.2643 42.5959 26.7976V10.7352C42.5959 10.5413 42.5185 10.4637 42.3636 10.4637H34.6249C34.432 10.4637 34.3152 10.5801 34.3152 10.7352V12.1353C34.3152 16.8409 34.0449 22.9077 31.5687 27.497H30.7172C30.4849 27.497 30.4075 27.6146 30.4075 27.8085C30.4075 27.8085 30.4075 32.4753 30.4075 33.4862C30.4075 33.6814 30.5623 33.7577 30.6784 33.7577H32.5359C32.961 33.7577 33.1159 33.4474 33.1159 33.1747V29.9467H41.3966V33.4862C41.3966 33.6414 41.512 33.7577 41.6669 33.7577H43.6404C43.872 33.7577 44.1043 33.5638 44.1043 33.1747V27.8085C44.1043 27.6146 43.9882 27.497 43.7952 27.497ZM39.6159 27.497H34.0062C35.9797 24.1138 36.7527 20.3028 37.0243 15.6359C37.101 14.6251 37.1398 13.5741 37.1398 12.9134H39.6159V27.497Z" fill="#395B6F"/>
<path d="M51.6883 9.99719C47.5103 9.99719 45.6528 15.2858 45.6528 21.041C45.6528 26.914 48.2838 30.4135 52.1529 30.4135C54.0483 30.4135 55.7128 29.6754 56.5638 29.1298C56.7187 29.0523 56.7567 28.9359 56.7187 28.7808L56.409 27.4583C56.3703 27.3031 56.2929 27.2255 56.0993 27.2255C55.9451 27.2255 54.8226 27.6522 53.2361 27.6522C50.2568 27.6522 48.8638 25.0473 48.8638 21.6254C48.8638 21.1574 48.8638 20.7045 48.8638 20.7045C48.8638 20.7045 50.3729 20.8859 51.2625 20.8859H56.9122V19.252C56.9122 13.2252 54.7832 9.99719 51.6883 9.99719ZM51.2625 18.4362C50.3729 18.4362 48.98 18.5914 48.98 18.5914C48.98 18.5914 48.98 18.0084 49.0574 17.3852C49.4051 14.0797 50.218 12.4081 51.5722 12.4081C52.8109 12.4081 53.5844 14.1185 53.778 17.1137C53.8161 17.7356 53.8161 18.4362 53.8161 18.4362H51.2625Z" fill="#395B6F"/>
</g>
<defs>
<clipPath id="clip0">
<rect y="0.794922" width="82.7965" height="48.231" fill="white"/>
</clipPath>
</defs>
</svg>
